<svg xmlns="http://www.w3.org/2000/svg" xmlns:xlink="http://www.w3.org/1999/xlink" width="126" height="124" viewBox="0 0 126 124">
  <defs>
    <clipPath id="clip-a_2">
      <rect width="126" height="124"/>
    </clipPath>
  </defs>
  <g id="a_2" data-name="a – 2" clip-path="url(#clip-a_2)">
    <path id="Icon_ionic-md-flower" data-name="Icon ionic-md-flower" d="M99.717,61.758A20.845,20.845,0,1,0,78.865,25.8l.167-1.572a20.936,20.936,0,0,0-41.872,0l.167,1.572A20.859,20.859,0,1,0,16.475,61.758,20.845,20.845,0,1,0,37.328,97.713l-.167,1.572a20.936,20.936,0,0,0,41.872,0l-.167-1.572A20.859,20.859,0,1,0,99.717,61.758ZM58.1,82.612A20.855,20.855,0,1,1,79.032,61.758,20.906,20.906,0,0,1,58.1,82.612Z" transform="matrix(0.966, 0.259, -0.259, 0.966, 22.867, -12.689)" fill="#2b729b" stroke="#312f30" stroke-width="1"/>
    <g id="Ellipse_445" data-name="Ellipse 445" transform="translate(41.439 40.063)" fill="#fffdfc" stroke="#312f30" stroke-width="1">
      <circle cx="22" cy="22" r="22" stroke="none"/>
      <circle cx="22" cy="22" r="21.5" fill="none"/>
    </g>
  </g>
</svg>
