<?xml version="1.0" encoding="UTF-8"?><svg id="Layer_3" xmlns="http://www.w3.org/2000/svg" viewBox="0 0 62.062 29.627"><defs><style>.cls-1{fill:#f6e1ce;}</style></defs><path class="cls-1" d="M61.612,14.062c-.024,1.54,1.455,2.664-.828,3.799s-4.357,1.237-8.147,1.53c-3.048,.234-8.476,.09-12.372-.461-3.906-.541-8.976-1.325-13.206-1.375-2.21-.023-3.73,.096-5.236,.115-.597,.007-4.817-.253-4.934,.233-.434,1.803,9.383,4.058,9.386,6.779,.004,4.082,.561,4.942-1.119,4.945-.811,.007-3.194-.261-5.306-1.621-1.503-.973-2.084-2.37-3.557-3.342-3.926-2.332-3.803-3.119-7.038-4.041C6.655,19.889-.055,16.267,0,15.018c.088-2.028,4.436-4.016,6.942-5.265,.984-.492,6.108-1.968,9.007-3.656,1.576-.906,1.854-2.248,5.488-5.147C21.816,.671,24.566-.032,25.026,.001c1.066,.14,1.875,.924,2.414,2.359,.408,1.122-.668,1.992-.632,3.563,.045,1.932-6.689,3.275-8.638,5.365-.788,.845,3.112,.484,4.166,.723,2.337,.532,5.27,.397,7.872,.35,3.873-.07,8.361-.964,11.805-1.766,3.444-.803,8.171-1.329,11.053-1.367,3.603-.048,5.721,.412,7.729,1.569,2.008,1.157,.842,1.713,.818,3.263Z"/></svg>