<svg xmlns="http://www.w3.org/2000/svg" xmlns:xlink="http://www.w3.org/1999/xlink" viewBox="0 0 358 202" xmlns:v="https://vecta.io/nano"><style><![CDATA[.F{fill:#fff}.G{fill:none}.H{stroke:#fff}.I{stroke-miterlimit:10}.J{fill:#2c27ff}]]></style><rect width="358" height="200.93" rx="14.94" class="J"/><path d="M340.95 19.99v129.33c0 19.77-16.02 35.8-35.77 35.8H24.05c-9.26 0-17.7-3.52-24.05-9.3v14.19c0 6.03 4.89 10.92 10.91 10.92h335.94c6.03 0 10.91-4.89 10.91-10.92V10.92A10.91 10.91 0 0 0 346.85 0h-12c3.85 5.71 6.09 12.59 6.09 19.99z" fill="#2121d8"/><g opacity=".2" class="F"><path d="M16.83 180.94V51.61c0-19.77 16.03-35.8 35.8-35.8h281.3c9.27 0 17.71 3.52 24.07 9.3V10.92C358 4.89 353.11 0 347.08 0H10.92C4.89 0 0 4.89 0 10.92v179.09c0 6.03 4.89 10.92 10.92 10.92h12a35.64 35.64 0 0 1-6.1-19.99z"/></g><g class="F"><use xlink:href="#B"/><use xlink:href="#C"/><path d="M54.85 40.17c.17.05.34.08.5.09l.5.02c.42 0 .83-.05 1.21-.16.39-.1.75-.26 1.1-.45.34-.2.65-.44.92-.72s.49-.6.65-.94l3.16 2.89c-.4.52-.86.98-1.38 1.4a8.86 8.86 0 0 1-1.69 1.05c-.6.29-1.24.51-1.91.65-.67.15-1.35.22-2.06.22-1.19 0-2.31-.2-3.35-.6a8.5 8.5 0 0 1-2.74-1.68c-.78-.72-1.4-1.58-1.85-2.57s-.68-2.08-.68-3.27.23-2.33.68-3.34 1.07-1.87 1.85-2.58 1.7-1.26 2.74-1.65c1.05-.39 2.16-.59 3.35-.59.7 0 1.39.08 2.07.23.67.15 1.31.37 1.92.66.6.29 1.17.64 1.7 1.06s.99.88 1.39 1.4l-8.08 8.88zm2.21-8.1c-.2-.07-.4-.11-.59-.13s-.4-.03-.61-.03c-.59 0-1.14.1-1.66.29-.52.2-.97.48-1.36.84a3.89 3.89 0 0 0-.91 1.32c-.22.51-.33 1.09-.33 1.73l.02.49.08.55.13.54c.05.17.12.33.21.46l5.02-6.07z"/><use xlink:href="#D"/><path d="M89.65 24.35c0 .36-.08.71-.23 1.02s-.36.59-.62.83-.57.42-.92.56-.73.21-1.13.21-.78-.07-1.13-.21a3.15 3.15 0 0 1-.92-.56c-.26-.23-.46-.51-.61-.83a2.38 2.38 0 0 1-.23-1.02c0-.36.08-.69.23-1.01s.36-.6.61-.83a3.02 3.02 0 0 1 .92-.56c.35-.14.73-.21 1.13-.21s.78.07 1.13.21a3.15 3.15 0 0 1 .92.56c.26.24.47.51.62.83s.23.66.23 1.01zm-.74 19.59h-4.34V28.53h4.34v15.41zm11.75 0c-1.04 0-2.02-.18-2.93-.54s-1.72-.85-2.41-1.48-1.23-1.36-1.62-2.19-.59-1.73-.59-2.68v-4.57h-2.1v-3.91h2.1v-6.16h4.29v6.16h6.53v3.91H97.4v4.57a2.69 2.69 0 0 0 .25 1.16 3.05 3.05 0 0 0 .69.94c.29.27.64.48 1.04.64s.83.24 1.28.24h3.27v3.91h-3.27z"/><use xlink:href="#B" x="100.99"/><path d="M151.83 43.94h-1.04l-1.67-2.11a12.3 12.3 0 0 1-1.3.94 9.9 9.9 0 0 1-1.44.76c-.5.22-1.02.39-1.55.51a7.32 7.32 0 0 1-1.62.19c-1.19 0-2.31-.18-3.35-.55-1.05-.36-1.96-.89-2.74-1.59s-1.4-1.55-1.85-2.55c-.45-1.01-.68-2.15-.68-3.44 0-1.2.23-2.3.68-3.3a7.87 7.87 0 0 1 1.85-2.58 8.5 8.5 0 0 1 2.74-1.68c1.04-.4 2.16-.6 3.35-.6a6.77 6.77 0 0 1 1.62.19c.54.12 1.06.3 1.56.52s.99.48 1.44.78.89.62 1.29.96l1.67-1.83h1.04v15.38zm-4.34-7.84c0-.54-.11-1.06-.34-1.56s-.53-.95-.92-1.34-.84-.7-1.36-.94c-.52-.23-1.08-.35-1.66-.35s-1.14.09-1.66.27-.97.45-1.36.81c-.38.35-.69.79-.91 1.32-.22.52-.33 1.12-.33 1.79s.11 1.27.33 1.79.52.96.91 1.32.84.62 1.36.81 1.08.27 1.66.27 1.14-.12 1.66-.35.98-.55 1.36-.94a4.27 4.27 0 0 0 .92-1.34c.23-.5.34-1.02.34-1.56z"/><use xlink:href="#C" x="120.05"/><use xlink:href="#D" x="103.21"/><path d="M29.94 176c0 .7-.14 1.35-.43 1.96a5 5 0 0 1-1.18 1.59c-.5.45-1.08.81-1.75 1.07s-1.39.39-2.15.39a5.91 5.91 0 0 1-1.38-.16v-2.7a2.5 2.5 0 0 0 .66.25 2.96 2.96 0 0 0 .72.09c.38 0 .73-.07 1.07-.2a2.71 2.71 0 0 0 .88-.54c.25-.23.45-.49.59-.8.14-.3.22-.63.22-.97v-7.54h2.75v7.54z"/><use xlink:href="#E"/><path d="M45.93 181.02h-2.62V167.9h2.62v4.14a3.07 3.07 0 0 1 .97-.46c.33-.09.67-.14 1.02-.14.63 0 1.23.11 1.79.33s1.04.52 1.46.9c.41.38.74.83.98 1.34s.36 1.06.36 1.63V181h-2.64v-5.36h.02a1.66 1.66 0 0 0-.15-.7 1.69 1.69 0 0 0-.42-.57c-.18-.16-.39-.29-.62-.39-.24-.09-.49-.14-.76-.14a2.29 2.29 0 0 0-.78.14c-.24.09-.46.22-.63.39a1.69 1.69 0 0 0-.42.57 1.66 1.66 0 0 0-.15.7V181zm11.06 0h-2.62v-9.38H55l.86.91c.42-.35.9-.62 1.44-.81.53-.19 1.09-.29 1.68-.29a4.81 4.81 0 0 1 1.78.33c.56.22 1.04.52 1.46.9a4.18 4.18 0 0 1 .98 1.34c.24.51.36 1.06.36 1.63v5.36h-2.62v-5.36a1.66 1.66 0 0 0-.15-.7 1.69 1.69 0 0 0-.42-.57c-.18-.16-.39-.29-.62-.39-.24-.09-.49-.14-.76-.14a2.29 2.29 0 0 0-.78.14c-.24.09-.46.22-.63.39a1.69 1.69 0 0 0-.42.57 1.66 1.66 0 0 0-.15.7v5.36zm25.26-6.28c0 .58-.08 1.13-.25 1.67-.16.53-.4 1.03-.7 1.5-.3.46-.66.89-1.08 1.27s-.88.71-1.39.99a7.44 7.44 0 0 1-1.65.64c-.59.15-1.2.22-1.83.22H71.2v-12.56h4.15c.63 0 1.24.07 1.83.22a6.98 6.98 0 0 1 1.65.64 6.26 6.26 0 0 1 1.39.99c.42.38.77.81 1.08 1.27a6.05 6.05 0 0 1 .7 1.5 5.77 5.77 0 0 1 .25 1.67zm-2.76 0c0-.52-.11-1.01-.32-1.46a3.84 3.84 0 0 0-.88-1.2c-.37-.34-.81-.61-1.32-.81-.5-.2-1.04-.3-1.61-.3h-1.37v7.54h1.37a4.51 4.51 0 0 0 1.61-.29 4.05 4.05 0 0 0 1.32-.81c.38-.34.67-.74.88-1.2a3.5 3.5 0 0 0 .32-1.47z"/><use xlink:href="#E" x="51.88"/><path d="M99.28 178.73c.1.03.2.05.31.06s.21.01.31.01c.26 0 .5-.03.74-.1a2.64 2.64 0 0 0 .67-.28c.21-.12.39-.27.56-.44.16-.17.3-.36.4-.57l1.92 1.76c-.24.32-.52.6-.84.85s-.66.46-1.03.64a5.31 5.31 0 0 1-1.16.4 5.77 5.77 0 0 1-1.25.14c-.72 0-1.4-.12-2.04-.37a5.43 5.43 0 0 1-1.67-1.02c-.48-.44-.85-.96-1.13-1.56s-.41-1.27-.41-1.99.14-1.42.41-2.03.65-1.14 1.13-1.57a5.22 5.22 0 0 1 1.67-1.01c.64-.24 1.32-.36 2.04-.36a5.86 5.86 0 0 1 1.26.14c.41.09.8.23 1.17.4.37.18.71.39 1.03.64s.6.54.85.85l-4.92 5.41zm1.35-4.93c-.12-.04-.24-.07-.36-.08l-.37-.02c-.36 0-.7.06-1.01.18-.32.12-.59.29-.83.51s-.42.49-.55.8-.2.66-.2 1.06l.01.3c0 .11.03.22.05.34s.05.22.08.33c.03.1.07.2.12.28l3.06-3.7zm-72.24-14.77c-.43 0-.82.07-1.17.2-.35.14-.64.33-.88.59a2.72 2.72 0 0 0-.56.93c-.13.36-.19.77-.19 1.22 0 .6.1 1.12.31 1.56s.51.78.92 1.03c.41.24.92.36 1.54.36.35 0 .68-.03.99-.08s.61-.12.91-.2v.73c-.29.1-.59.17-.9.22-.32.05-.69.07-1.12.07-.8 0-1.47-.15-2-.45-.54-.3-.94-.73-1.2-1.28s-.4-1.2-.4-1.95c0-.54.08-1.04.25-1.49s.41-.84.73-1.16c.32-.33.71-.58 1.18-.76s1-.27 1.61-.27c.4 0 .78.04 1.15.11s.7.17 1 .31l-.36.71c-.25-.1-.53-.2-.82-.27s-.62-.12-.97-.12zm8.5 6.53l-.97-2.27h-3.15l-.96 2.27h-.92l3.07-7.19h.82l3.05 7.19h-.94zm-1.24-3.01l-.92-2.26-.1-.29-.15-.42-.12-.35-.12.4-.12.37-.1.29-.93 2.26h2.57z"/><use xlink:href="#F"/><use xlink:href="#G"/><path d="M62.5 165.56h-.91v-3.37h-4.12v3.37h-.91v-7.16h.91v3.05h4.12v-3.05h.91v7.16zm8.97-3.59a4.83 4.83 0 0 1-.23 1.51c-.15.46-.38.84-.68 1.17s-.68.58-1.12.75c-.45.18-.97.26-1.56.26s-1.14-.09-1.59-.26c-.45-.18-.83-.43-1.13-.75-.3-.33-.52-.72-.67-1.17a4.79 4.79 0 0 1-.22-1.51c0-.73.13-1.37.4-1.92.26-.55.67-.98 1.21-1.29s1.21-.46 2.03-.46 1.43.15 1.96.46a3.05 3.05 0 0 1 1.21 1.28c.27.55.41 1.2.41 1.95zm-6.25 0c0 .61.09 1.13.28 1.58.19.44.48.79.87 1.03s.89.36 1.5.36 1.11-.12 1.5-.36.68-.58.86-1.03c.19-.44.28-.97.28-1.58 0-.92-.21-1.65-.64-2.17-.42-.52-1.09-.78-1.98-.78-.61 0-1.11.12-1.5.36s-.69.58-.88 1.02-.29.96-.29 1.57zm7.99 3.59v-7.16h.91v6.42h3.49v.74h-4.4z"/><use xlink:href="#G" x="33.25"/><path d="M91.3,165.56h-4.37v-7.16h4.37v.73h-3.46v2.32h3.26v.73h-3.26v2.65h3.46v.73Z"/><use xlink:href="#F" x="54.13"/><path d="M100.93 91.04c.81 0 1.52.11 2.13.34s1.09.55 1.43.98.51.95.51 1.55c0 .5-.13.94-.4 1.32s-.63.71-1.09.99a8.73 8.73 0 0 1-1.62.76c.72.24 1.35.51 1.88.82.54.31.95.67 1.25 1.1s.45.92.45 1.5c0 .7-.2 1.3-.6 1.79-.4.5-.94.88-1.63 1.14s-1.47.39-2.35.39-1.71-.13-2.38-.4c-.67-.26-1.2-.64-1.57-1.13s-.55-1.06-.55-1.71c0-.61.15-1.13.45-1.56s.71-.81 1.23-1.12a8.4 8.4 0 0 1 1.79-.78c-.55-.21-1.05-.45-1.51-.72s-.82-.6-1.09-.98-.41-.85-.41-1.4c0-.6.18-1.12.53-1.54.35-.43.83-.76 1.45-.99.61-.23 1.32-.35 2.11-.35zm-3.55 9.45c0 .76.31 1.37.93 1.82s1.48.68 2.56.68 1.96-.23 2.62-.68.99-1.09.99-1.92c0-.46-.13-.87-.38-1.22s-.62-.66-1.1-.92a9.44 9.44 0 0 0-1.75-.72l-.47-.15a10.5 10.5 0 0 0-1.77.72c-.51.27-.91.6-1.2.98s-.44.85-.44 1.39zm3.54-8.72c-.9 0-1.63.19-2.21.57s-.87.91-.87 1.61c0 .47.13.86.4 1.19s.64.61 1.11.84 1.02.45 1.63.65c.64-.23 1.19-.46 1.63-.71.45-.25.79-.53 1.03-.85s.35-.7.35-1.14c0-.71-.27-1.24-.82-1.61-.55-.36-1.3-.54-2.26-.54zm9.1 11.78l5.94-11.54h-8.2v-.79h9.28v.62l-5.93 11.71h-1.09z"/><use xlink:href="#H"/><use xlink:href="#I"/><path d="M160.1,103.55l5.94-11.54h-8.2v-.79h9.28v.62l-5.93,11.71h-1.09Z"/><use xlink:href="#H" x="50.08"/><use xlink:href="#I" x="50.08"/><path d="M202.39 100.4h-2.47v3.15h-.97v-3.15h-7.28v-.68l7.21-8.58h1.04v8.47h2.47v.79zm-3.44-.79v-4.74-.9l.01-.69.02-.6.02-.59h-.06l-.52.75a10.12 10.12 0 0 1-.61.77l-5.06 6h6.19z"/><use xlink:href="#H" x="100.16"/><use xlink:href="#I" x="100.16"/><path d="M252.47 100.4H250v3.15h-.97v-3.15h-7.28v-.68l7.21-8.58H250v8.47h2.47v.79zm-3.44-.79v-4.74-.9l.01-.69.02-.6.02-.59h-.06l-.52.75a10.12 10.12 0 0 1-.61.77l-5.06 6h6.19zm13.34-5.55c0 .55-.13 1.03-.39 1.44-.26.42-.62.76-1.07 1.02-.46.26-.98.44-1.57.54v.05c1.13.12 1.99.44 2.58.95.6.51.89 1.2.89 2.08 0 .69-.19 1.31-.57 1.85s-.95.96-1.71 1.27-1.72.46-2.87.46c-.78 0-1.5-.06-2.17-.19-.67-.12-1.28-.29-1.83-.51v-.83c.54.23 1.17.42 1.88.57s1.42.22 2.12.22c1.39 0 2.42-.26 3.09-.77a2.48 2.48 0 0 0 1.01-2.07c0-.63-.18-1.14-.54-1.51-.36-.38-.87-.66-1.52-.83s-1.42-.26-2.29-.26h-1.57v-.75h1.58c.74 0 1.4-.1 1.99-.3s1.06-.5 1.4-.89.52-.89.52-1.48c0-.76-.28-1.34-.85-1.73s-1.32-.58-2.26-.58c-.5 0-.98.05-1.42.14s-.87.22-1.28.39-.82.38-1.22.62l-.51-.62c.56-.37 1.21-.68 1.95-.92s1.56-.36 2.47-.36c1.3 0 2.32.27 3.05.81s1.1 1.28 1.1 2.21z"/><use xlink:href="#J"/><path d="M300.97 94.06c0 .55-.13 1.03-.39 1.44-.26.42-.62.76-1.07 1.02-.46.26-.98.44-1.57.54v.05c1.12.12 1.99.44 2.58.95.6.51.89 1.2.89 2.08 0 .69-.19 1.31-.57 1.85s-.95.96-1.71 1.27-1.72.46-2.87.46c-.78 0-1.5-.06-2.17-.19-.67-.12-1.28-.29-1.83-.51v-.83c.54.23 1.17.42 1.88.57s1.42.22 2.12.22c1.39 0 2.42-.26 3.09-.77a2.48 2.48 0 0 0 1.01-2.07c0-.63-.18-1.14-.54-1.51-.36-.38-.87-.66-1.52-.83s-1.42-.26-2.29-.26h-1.57v-.75h1.58c.74 0 1.4-.1 1.99-.3s1.06-.5 1.4-.89c.34-.4.51-.89.51-1.48 0-.76-.28-1.34-.85-1.73s-1.32-.58-2.26-.58c-.5 0-.98.05-1.42.14s-.87.22-1.28.39-.82.38-1.22.62l-.51-.62c.56-.37 1.21-.68 1.95-.92s1.56-.36 2.47-.36c1.3 0 2.32.27 3.05.81s1.1 1.28 1.1 2.21z"/><use xlink:href="#J" x="22.95"/><use xlink:href="#J" x="34.42"/><path d="M314.73 133.52c1.22 0 1.69.37 1.94.65 1.1 1.22.88 4.27.57 7.3-.22 2.13-.02 4.08.15 5.82.41 4.13.39 5.47-2.84 6.25a7.12 7.12 0 0 1-1.66.21h-.18c-3.26-.12-4.55-3.48-5.66-9.22-1.07-5.57-1.67-8.63 4.6-10.48 1.21-.36 2.24-.54 3.07-.54m0-1c-.92 0-2.05.19-3.35.58-7.13 2.1-6.36 6.1-5.29 11.63.98 5.08 2.31 10.03 6.82 10.03h0c.59 0 1.22-.08 1.89-.24 4.23-1.02 3.98-3.54 3.6-7.34-.17-1.68-.36-3.58-.15-5.6.35-3.39.55-6.55-.82-8.07-.6-.66-1.47-.98-2.69-.98h0z"/></g><path d="M314.73 132.96c1.08 0 1.85.27 2.35.84 1.25 1.39 1.04 4.58.72 7.73-.21 2.07-.02 3.99.15 5.7.41 4.11.44 5.97-3.26 6.86-.64.15-1.24.23-1.79.23-4.18 0-5.41-4.58-6.39-9.68-1.06-5.5-1.76-9.13 4.99-11.12 1.26-.37 2.35-.56 3.23-.56m0-.88c-.94 0-2.09.19-3.48.6-7.46 2.2-6.68 6.58-5.6 12.13.96 4.95 2.29 10.39 7.26 10.39.61 0 1.27-.08 1.99-.26 6.63-1.6 3.12-6.86 3.78-13.33.52-5.09.66-9.53-3.95-9.53h0z" class="G H I"/><path d="M326.37 134.23c1.42 0 2.63.5 3.49 1.46 3.98 4.42 3.45 5.16 1.19 8.28l-.95 1.34c-4.47 6.48-7.41 7.84-9.1 7.84-.79 0-1.55-.31-2.28-.92-2.56-2.18-2.62-7.98-.14-12.93 1.48-2.94 4.75-5.07 7.79-5.07m0-1c-3.4 0-7.05 2.37-8.68 5.62-2.72 5.42-2.55 11.63.39 14.14.91.77 1.89 1.16 2.93 1.16 2.79 0 6.13-2.78 9.92-8.27l.94-1.33c2.38-3.29 3.27-4.52-1.26-9.53-1.05-1.17-2.52-1.79-4.23-1.79h0z" class="F"/><path d="M326.37 133.67h0c1.11 0 2.68.29 3.9 1.64 4.29 4.75 3.58 5.73 1.23 8.98l-.95 1.34c-3.7 5.36-6.92 8.08-9.55 8.08-.94 0-1.8-.35-2.64-1.06-2.79-2.38-2.91-8.35-.28-13.6 1.56-3.12 5.05-5.38 8.29-5.38m0-.88c-3.46 0-7.33 2.37-9.08 5.87-2.63 5.24-2.8 11.86.5 14.67 1.05.89 2.13 1.27 3.21 1.27 3.94 0 7.89-5.01 10.28-8.46 3.04-4.41 4.99-5.49-.35-11.41-1.21-1.34-2.83-1.93-4.56-1.93h0z" class="G H I"/><path d="M300.55 138.41c2.94 0 5.6 2.94 5.68 6.29.08 2.95 1.71 5.08 3.04 6.8 1.81 2.35 2.17 2.96.44 4.4-.95.79-1.73 1.18-2.46 1.22h-.12c-1.06 0-2.2-.76-3.66-1.74-1.51-1.01-3.22-2.15-5.55-2.96-2.05-.72-3.46-2.18-3.97-4.12-.64-2.42.19-5.18 2.27-7.57 1.33-1.52 2.83-2.33 4.33-2.33m0-1c-1.8 0-3.56.92-5.09 2.67-2.31 2.64-3.21 5.73-2.48 8.48.6 2.27 2.24 3.98 4.61 4.8 2.22.77 3.88 1.89 5.35 2.86 1.59 1.06 2.84 1.9 4.19 1.9h0c1.01 0 2.03-.46 3.22-1.46 2.53-2.12 1.41-3.58-.29-5.78-1.29-1.68-2.76-3.58-2.83-6.21-.1-3.87-3.22-7.27-6.68-7.27h0z" class="F"/><path d="M300.55 137.85h0c3.18 0 6.15 3.26 6.24 6.84.07 2.77 1.65 4.82 2.92 6.46 1.82 2.37 2.48 3.4.35 5.17-1.11.93-2.04 1.36-2.94 1.36-1.22 0-2.42-.8-3.95-1.82-1.49-.99-3.17-2.12-5.45-2.91-2.23-.78-3.77-2.38-4.33-4.5-.69-2.6.18-5.55 2.39-8.08 1.44-1.65 3.09-2.52 4.76-2.52m0-.88c-1.77 0-3.67.82-5.42 2.83-4.68 5.35-3.34 12.02 2.31 13.99 4.61 1.61 6.88 4.78 9.69 4.78 1.04 0 2.16-.44 3.51-1.56 4.95-4.14-2.81-6.47-2.95-12.34-.1-3.96-3.33-7.7-7.12-7.7h0z" class="G H I"/><path d="M313.02 168.42a6.35 6.35 0 0 1 2.92.7c1.97 1.03 3.03 2.73 3.14 5.06.1 2.02-.51 4.4-1.72 6.72-2.3 4.42-4.77 6.57-7.55 6.57-.95 0-1.98-.26-3.05-.77-5-2.37-4.63-6.39-2.41-12.1 1.35-3.47 5.16-6.19 8.67-6.19m0-1c-3.89 0-8.11 3-9.6 6.83-2.04 5.26-3.1 10.51 2.91 13.36 1.21.57 2.38.87 3.48.87 3.19 0 5.95-2.33 8.43-7.11 2.3-4.41 3.19-10.5-1.85-13.13-1.04-.54-2.18-.82-3.38-.82h0z" class="F"/><path d="M313.01 167.87h0a6.75 6.75 0 0 1 3.17.77c4.75 2.48 3.87 8.3 1.67 12.53-2.41 4.62-5.04 6.87-8.05 6.87-1.04 0-2.15-.27-3.29-.82-5.38-2.55-4.96-6.96-2.69-12.81 1.43-3.67 5.46-6.55 9.19-6.55m0-.88c-4.25 0-8.51 3.27-10.01 7.11-1.92 4.94-3.45 10.79 3.13 13.92 1.32.63 2.54.91 3.67.91 4.02 0 6.84-3.54 8.83-7.35 2.54-4.88 3.12-11.03-2.04-13.72-1.15-.6-2.37-.87-3.58-.87h0z" class="G H I"/><path d="M319.81,169.83c3.61,0,5.95,5.53,7.51,9.21,1.24,2.94,1.48,5.17,.69,6.47-.65,1.05-2.06,1.67-4.22,1.82-.8,.06-1.56,.09-2.27,.09-4.21,0-4.5-.95-5.87-5.49-1.29-4.24-1.38-7.43-.28-9.48,.63-1.17,1.69-1.99,3.16-2.43,.44-.13,.87-.2,1.29-.2m0-1c-.51,0-1.04,.08-1.58,.25-1.73,.52-2.99,1.5-3.75,2.91-1.53,2.85-.78,6.97,.21,10.24,1.4,4.64,1.88,6.2,6.83,6.2,.69,0,1.48-.03,2.35-.1,2.5-.18,4.18-.95,5-2.29,1.22-2,.38-5-.62-7.38-1.65-3.91-4.15-9.82-8.43-9.82h0Zm1.7,19.59h0Z" class="F"/><path d="M319.81 169.27c3.99 0 6.42 5.75 8.03 9.56l.09.22c.87 2.07 1.68 4.92.56 6.76-.74 1.21-2.31 1.91-4.66 2.09-.86.06-1.63.1-2.32.1-4.63 0-5.01-1.25-6.41-5.89l-.1-.32c-.87-2.87-1.6-6.87-.14-9.59.71-1.32 1.85-2.2 3.49-2.7.5-.15.99-.23 1.46-.23m0-.88c-.54 0-1.11.08-1.71.26-5.76 1.73-5.61 7.88-3.94 13.39 1.48 4.87 1.95 6.83 7.35 6.83.7 0 1.49-.03 2.38-.1 7.05-.51 6.79-5.49 4.85-10.07-1.73-4.1-4.28-10.31-8.93-10.31h0z" class="G H I"/><path d="M292.84 151.88c1.41 0 3.01.53 4.62 1.54 1.79 1.12 3.84 1.74 5.65 2.29 4.45 1.35 5.13 1.98 4.58 4.18-.94 3.74-4.32 4.48-9.76 5.38l-.18.03-3.23.58a5.18 5.18 0 0 1-1.02.1h-.16c-1.63-.06-2.8-1.01-3.5-1.81-1.53-1.75-2.35-4.42-2.05-6.64.29-2.11 1.32-5.65 5.06-5.65m0-1c-3.28 0-5.49 2.37-6.05 6.51-.34 2.49.58 5.48 2.29 7.43.86.98 2.33 2.16 4.42 2.16h0c.4 0 .8-.05 1.21-.13 1.14-.24 2.28-.42 3.39-.61 5.06-.84 9.42-1.56 10.56-6.12.84-3.35-1.34-4.18-5.26-5.38-1.75-.53-3.74-1.13-5.41-2.18-1.77-1.11-3.55-1.69-5.15-1.69h0z" class="F"/><path d="M292.83 151.32h0c1.51 0 3.21.56 4.91 1.63 1.72 1.08 3.74 1.69 5.52 2.23 3.88 1.18 5.71 1.88 4.97 4.85-1.07 4.28-5.1 4.95-10.2 5.79-1.11.18-2.26.37-3.4.61-.38.08-.76.12-1.12.12-1.93 0-3.29-1.09-4.09-2.01-1.6-1.84-2.5-4.75-2.19-7.08.53-3.9 2.57-6.13 5.61-6.13m0-.88c-3.31 0-5.87 2.34-6.49 6.9-.56 4.17 2.27 10.09 7.15 10.09.42 0 .85-.04 1.3-.13 6.5-1.33 12.82-1.18 14.29-7.05s-5.99-4.98-10.87-8.04c-1.88-1.18-3.73-1.76-5.38-1.76h0z" class="G H I"/><path d="M336.35 143.32c3.04 0 5.18 2.12 6.55 6.48.43 1.38.47 2.4.13 3.05-.55 1.02-2.25 1.51-4.22 2.08-1.78.51-3.8 1.1-5.52 2.28-1.86 1.27-3.91 1.97-5.79 1.97h-.2c-2.48-.07-4.39-1.37-5.56-3.77-1.73-3.58 1.03-5.46 6.06-8.48l2.23-1.36c2.36-1.49 4.48-2.25 6.32-2.25m0-1c-2.03 0-4.34.81-6.85 2.4l-2.21 1.35c-4.65 2.79-8.66 5.19-6.45 9.77 1.35 2.8 3.72 4.34 6.66 4.34h0c2.07 0 4.32-.76 6.35-2.15 1.59-1.09 3.52-1.65 5.23-2.14 2.19-.63 4.07-1.18 4.82-2.57.48-.91.47-2.15-.06-3.82-1.5-4.76-4.02-7.18-7.5-7.18h0z" class="F"/><path d="M336.35 142.76h0c3.27 0 5.65 2.31 7.08 6.87.49 1.55.51 2.69.09 3.48-.66 1.23-2.46 1.75-4.56 2.35-1.74.5-3.72 1.08-5.36 2.2-1.95 1.34-4.12 2.07-6.1 2.07s-4.62-.71-6.26-4.09c-1.94-4.01 1.12-6.11 6.27-9.2l2.22-1.36c2.44-1.54 4.67-2.33 6.62-2.33m0-.88c-2.27 0-4.72.97-7.09 2.47-5.4 3.42-11.58 5.98-8.82 11.69 1.55 3.22 4.2 4.59 7.05 4.59 2.21 0 4.54-.82 6.6-2.22 4.72-3.23 12.51-1.6 10.18-9.03-1.71-5.44-4.62-7.49-7.92-7.49h0z" class="G H I"/><path d="M338.48 157.85c1.04 0 6.27.19 6.72 4.02.37 3.16.03 5.36-1.02 6.53-.71.8-1.84 1.21-3.45 1.25h-.28c-.96 0-2.05-.12-3.33-.36l-2.2-.4c-6.15-1.08-9.13-1.8-9.61-6.13-.12-1.07.04-1.86.49-2.41 1.05-1.29 3.81-1.55 6.48-1.81 1.28-.12 2.43-.23 3.5-.43a14.56 14.56 0 0 1 2.69-.25m0-1a15.65 15.65 0 0 0-2.87.27c-1.06.2-2.23.31-3.41.42-2.87.27-5.85.55-7.17 2.17-.63.77-.86 1.8-.71 3.15.59 5.27 4.72 6 10.43 7.01l2.19.39c1.34.26 2.49.38 3.51.38h0c2.06 0 3.52-.51 4.47-1.58 1.26-1.41 1.67-3.8 1.26-7.31-.43-3.62-4.26-4.91-7.71-4.91h0z" class="F"/><path d="M338.48 157.29h0c3.26 0 6.89 1.18 7.27 4.51.39 3.32 0 5.67-1.15 6.96-.86.97-2.22 1.44-4.15 1.44-.99 0-2.11-.12-3.43-.37l-2.2-.4c-6.08-1.07-9.54-1.91-10.07-6.62-.14-1.23.06-2.15.61-2.82 1.2-1.48 4.09-1.75 6.87-2.01 1.16-.11 2.36-.22 3.45-.42a15.75 15.75 0 0 1 2.79-.26m0-.88a16.52 16.52 0 0 0-2.95.27c-4.98.92-12.34-.08-11.64 6.22.7 6.31 6.36 6.52 12.98 7.79 1.3.25 2.5.39 3.59.39 4.46 0 6.99-2.37 6.17-9.39-.42-3.59-4.02-5.29-8.15-5.29h0z" class="G H I"/><path d="M325.89 164.8c2.16 0 5.42 1.7 8.07 3.08l.08.04 1.76.9c2.13 1.05 5.02 2.69 5.5 4.83.3 1.33-.29 2.94-1.75 4.79-2.37 3.02-4.14 4.47-5.54 4.55h-.12c-1.17 0-2.51-.98-4.5-3.26-4.32-4.97-6.52-7.81-5.42-13.21.3-1.44.95-1.73 1.92-1.73m0-1c-1.62 0-2.54.81-2.9 2.53-1.19 5.84 1.24 9 5.64 14.07 2.23 2.56 3.75 3.61 5.26 3.61h0c1.77 0 3.76-1.52 6.44-4.93 1.66-2.1 2.31-4 1.94-5.63-.57-2.52-3.52-4.27-6.03-5.51-.56-.27-1.17-.6-1.82-.93-2.73-1.42-6.13-3.2-8.53-3.2h0z" class="F"/><path d="M325.89 164.24h0c2.29 0 5.64 1.74 8.33 3.15l1.83.93c2.42 1.19 5.27 2.87 5.8 5.21.34 1.5-.28 3.27-1.85 5.26-2.59 3.3-4.48 4.77-6.1 4.77-1.35 0-2.82-1.03-4.93-3.46-4.31-4.96-6.7-8.05-5.54-13.69.31-1.52 1.05-2.17 2.47-2.17m0-.88c-1.64 0-2.89.76-3.33 2.88-1.25 6.09 1.43 9.49 5.74 14.45 2.08 2.39 3.78 3.76 5.59 3.76 1.94 0 4-1.56 6.79-5.11 4.95-6.29.32-9.54-4.25-11.8-2.99-1.47-7.45-4.17-10.54-4.17h0z" class="G H I"/><path d="M308.57 163.38c1.14 0 1.86.37 2.43 1.23.72 1.08.94 2.15.68 3.26-.69 2.95-4.43 5.54-6.6 6.81-1.56.91-2.66 2.13-3.55 3.12-1.17 1.3-1.85 2-2.92 2.06h-.14c-.87 0-2.02-.39-3.44-1.16-3.59-1.95-4.45-5.76-3.71-8.67.58-2.26 2.03-3.72 3.72-3.73l.99.04c2.36 0 4.78-.83 7.14-1.63l.06-.02c1.98-.67 3.85-1.31 5.33-1.31m0-1c-1.66 0-3.63.67-5.71 1.38-2.27.78-4.62 1.58-6.82 1.58-.21 0-.43-.01-.97-.04-2.17 0-4.02 1.76-4.72 4.49-.84 3.29.14 7.6 4.2 9.8 1.59.86 2.87 1.28 3.91 1.28h0c1.66 0 2.61-1.06 3.81-2.4.87-.97 1.87-2.08 3.3-2.91 2.31-1.36 6.3-4.12 7.07-7.45.32-1.38.04-2.74-.82-4.04-.76-1.15-1.79-1.68-3.27-1.68h0z" class="F"/><path d="M308.57 162.81c1.33 0 2.22.45 2.9 1.48.81 1.22 1.05 2.43.76 3.7-.74 3.17-4.62 5.85-6.87 7.17-1.49.87-2.51 2.01-3.4 3-1.29 1.44-2.09 2.26-3.49 2.26-.97 0-2.18-.4-3.7-1.23-3.86-2.09-4.78-6.18-3.99-9.31.64-2.53 2.32-4.16 4.29-4.16.1 0 .2 0 .3.01.22.02.45.02.68.02 2.27 0 4.65-.81 6.96-1.6 2.05-.7 3.98-1.36 5.57-1.36m0-.88c-3.59 0-8.42 2.96-12.53 2.96-.2 0-.41 0-.61-.02-.12-.01-.25-.01-.37-.01-5.88 0-8.18 11.06-.72 15.12 1.75.95 3.07 1.33 4.12 1.33 3.17 0 4.01-3.44 7.33-5.38 4.43-2.59 9.68-7.17 6.4-12.12-.92-1.38-2.17-1.88-3.63-1.88h0z" class="G H I"/><path d="M316.44,175.97c-8.1,0-14.68-6.59-14.68-14.68s6.59-14.68,14.68-14.68,14.68,6.59,14.68,14.68-6.59,14.68-14.68,14.68Z" class="J"/><path d="M316.44,147.11c7.82,0,14.18,6.36,14.18,14.18s-6.36,14.18-14.18,14.18-14.18-6.36-14.18-14.18,6.36-14.18,14.18-14.18m0-1c-8.38,0-15.18,6.8-15.18,15.18s6.8,15.18,15.18,15.18,15.18-6.8,15.18-15.18-6.8-15.18-15.18-15.18h0Z" class="F"/><path d="M309.23 165.59c.53 1.71 2.18 2.85 3.84 3.3 2.1.57 4.26.03 5.89-1.39.41-.36-.19-.96-.6-.6-1.4 1.22-3.27 1.66-5.06 1.18-1.37-.37-2.81-1.29-3.25-2.71-.16-.52-.98-.3-.81.23h0z" class="J"/><path d="M309.65 165.07c-.26 0-.51.21-.42.52h0c.53 1.7 2.18 2.85 3.84 3.3.55.15 1.11.22 1.66.22 1.54 0 3.03-.57 4.23-1.61.32-.28.02-.71-.32-.71-.09 0-.19.03-.28.11-1.02.9-2.3 1.37-3.62 1.37-.48 0-.97-.06-1.45-.19-1.37-.37-2.81-1.29-3.25-2.71-.06-.21-.23-.29-.4-.29h0z" class="F"/><path d="M317.81 166.02c.27 1.22 1.65 1.96 2.83 1.55.21-.07.37-.29.3-.52-.07-.2-.3-.37-.52-.3a1.21 1.21 0 0 1-.18.05l-.09.02h-.03s-.04.01.02 0c-.03.02-.13.01-.17.01h-.17 0l-.09-.01c-.06-.01-.12-.02-.17-.04-.05-.01-.1-.04-.16-.05-.03-.01-.02 0 .03.01l-.04-.02-.08-.04s-.1-.05-.14-.08l-.07-.05c-.08-.06.07.06 0 0l-.24-.24c-.04-.04.05.07 0 0l-.05-.07-.09-.16c-.02-.04-.06-.08 0-.01-.02-.02-.02-.06-.03-.08-.02-.06-.04-.12-.05-.18-.05-.22-.31-.36-.52-.3-.23.07-.35.29-.3.52h0z" class="J"/><path d="M318.2 165.48s-.07 0-.11.02c-.23.07-.35.29-.3.52h0c.22 1 1.17 1.67 2.15 1.67a2.25 2.25 0 0 0 .68-.11c.21-.07.37-.29.3-.52-.06-.17-.22-.32-.41-.32-.04 0-.08 0-.11.02a1.21 1.21 0 0 1-.18.05l-.09.02h0s-.05.01-.08.01h-.09-.17-.01l-.08-.01c-.06-.01-.12-.02-.17-.04a.88.88 0 0 1-.15-.05h0l-.08-.04s-.1-.05-.14-.08l-.07-.05h.01l-.04-.02.02.02h0l-.23-.24h0l-.02-.02h0v.02h0l-.05-.09-.09-.16s-.01-.02-.02-.03v.02h0l-.02-.03v.02-.07c-.02-.06-.04-.12-.05-.18a.43.43 0 0 0-.41-.31h0zm1.93 1.35h0z" class="F"/><path d="M310.59 160.3c-.16-.03-.28-.11-.38-.26-.23-.34-.3-1-.17-1.66.16-.81.54-1.75 1.09-1.75.04 0 .08 0 .13.01a.52.52 0 0 1 .37.24c.21.32.27.94.14 1.68l-.03.15c-.17.9-.73 1.59-1.09 1.59h-.05z" class="J"/><path d="M311.13 156.13c-.9 0-1.39 1.14-1.58 2.15-.21 1.09 0 2.33.95 2.51.05 0 .09.01.14.01.71 0 1.39-.97 1.59-2h0c.21-1.09.17-2.45-.88-2.65l-.22-.02h0z" class="F"/><path d="M318.82 160.54c1.36-1.06 4.02-.53 4.45 1.28.13.53.94.31.81-.23-.6-2.48-4.03-3.07-5.87-1.65-.18.14-.15.45 0 .6.18.18.42.14.6 0h0z" class="J"/><path d="M320.6 159.18c-.86 0-1.72.25-2.37.76-.18.14-.15.45 0 .6.08.08.18.12.28.12.11 0 .22-.05.32-.12.47-.36 1.09-.54 1.73-.54 1.2 0 2.44.64 2.72 1.82a.37.37 0 0 0 .38.3c.25 0 .52-.21.44-.53-.38-1.59-1.94-2.41-3.49-2.41h0z" class="F"/><path d="M318.95 160.33c.77-1.14 2.41-1.55 3.58-.82.47.29.89-.44.43-.73-1.58-.98-3.73-.38-4.74 1.13-.3.45.43.88.73.43h0z" class="J"/><path d="M321.25 158.3c-1.18 0-2.35.6-3.03 1.6-.21.32.08.62.38.62a.42.42 0 0 0 .35-.19h0c.51-.75 1.39-1.19 2.28-1.19a2.56 2.56 0 0 1 1.31.36c.07.05.15.07.21.07.36 0 .6-.55.21-.79a3.21 3.21 0 0 0-1.71-.48h0z" class="F"/><path d="M318.53 160.72c1.17-.08 2.54.12 3.3 1.08.14.18.45.15.6 0 .18-.18.14-.42 0-.6-.88-1.13-2.54-1.42-3.9-1.33-.23.02-.42.18-.42.42 0 .22.19.44.42.42h0z" class="J"/><g class="F"><path d="M319 159.86l-.47.02c-.23.02-.42.18-.42.42 0 .21.18.42.4.42h.03l.46-.02c1.05 0 2.18.26 2.83 1.1.07.09.17.12.28.12.12 0 .24-.05.32-.12.18-.18.14-.42 0-.6-.78-1-2.18-1.35-3.42-1.35h0z"/><rect x="34.5" y="83.39" width="46.08" height="25.86" rx="9.74"/></g><defs ><path id="B" d="M32.9 41.83c-1.05.83-2.23 1.46-3.53 1.9a12.59 12.59 0 0 1-4.05.66c-1.07 0-2.11-.13-3.1-.38s-1.92-.61-2.79-1.08a11.41 11.41 0 0 1-2.37-1.68 10.54 10.54 0 0 1-1.84-2.17c-.51-.79-.9-1.64-1.18-2.55a9.55 9.55 0 0 1-.42-2.83 9.55 9.55 0 0 1 .42-2.83c.28-.91.67-1.76 1.18-2.55a11.09 11.09 0 0 1 1.84-2.17c.71-.65 1.51-1.21 2.37-1.68.87-.46 1.8-.82 2.79-1.08.99-.25 2.03-.38 3.1-.38 1.4 0 2.75.22 4.05.65 1.3.44 2.48 1.07 3.53 1.91l-2.4 3.6c-.66-.65-1.45-1.15-2.35-1.5s-1.85-.52-2.84-.52-1.94.17-2.81.52-1.64.81-2.29 1.4-1.17 1.29-1.55 2.09a5.87 5.87 0 0 0-.57 2.55c0 .9.19 1.75.57 2.54a6.7 6.7 0 0 0 1.55 2.08c.66.6 1.41 1.06 2.29 1.41.87.35 1.81.52 2.81.52s1.94-.17 2.84-.53c.9-.35 1.69-.85 2.35-1.5l2.4 3.6z"/><path id="C" d="M39.37 43.94h-4.31V28.53h1.04l1.42 1.83c.69-.58 1.48-1.02 2.37-1.33a8.22 8.22 0 0 1 2.74-.47h3.8v3.91h-3.8a3.63 3.63 0 0 0-1.28.23c-.4.15-.75.36-1.04.63s-.53.59-.69.95c-.17.36-.25.75-.25 1.17v8.49z"/><path id="D" d="M81.29,43.94h-1.04l-1.67-2.11c-.41,.34-.84,.65-1.3,.94s-.94,.55-1.44,.76-1.02,.39-1.55,.51c-.53,.12-1.07,.19-1.62,.19-1.19,0-2.31-.2-3.35-.61s-1.96-.97-2.74-1.7c-.78-.72-1.4-1.58-1.85-2.58s-.68-2.07-.68-3.24,.23-2.24,.68-3.24,1.07-1.86,1.85-2.59c.78-.73,1.7-1.3,2.74-1.71,1.05-.41,2.16-.62,3.35-.62,.38,0,.77,.03,1.18,.09s.8,.15,1.18,.28,.74,.3,1.08,.51,.62,.47,.85,.78v-7.19h4.34v21.54Zm-4.34-7.84c0-.54-.11-1.06-.34-1.56-.23-.5-.53-.95-.92-1.34-.39-.39-.84-.7-1.36-.94-.52-.23-1.08-.35-1.66-.35s-1.14,.1-1.66,.29-.97,.47-1.36,.83c-.38,.36-.69,.8-.91,1.32-.22,.52-.33,1.1-.33,1.75,0,.57,.11,1.1,.33,1.61s.52,.95,.91,1.34c.38,.38,.84,.69,1.36,.91s1.08,.33,1.66,.33,1.14-.12,1.66-.35,.98-.55,1.36-.94c.39-.39,.7-.83,.92-1.34s.34-1.02,.34-1.56Z"/><path id="E" d="M41.86 176.25a4.78 4.78 0 0 1-.41 1.96 4.79 4.79 0 0 1-1.12 1.57c-.47.44-1.03.79-1.67 1.04s-1.32.38-2.05.38a5.52 5.52 0 0 1-2.04-.38c-.64-.25-1.19-.6-1.67-1.04s-.85-.96-1.13-1.57c-.28-.6-.41-1.26-.41-1.96s.14-1.37.41-1.98.65-1.13 1.13-1.57 1.03-.79 1.67-1.04a5.56 5.56 0 0 1 2.04-.38c.72 0 1.41.12 2.05.35.64.24 1.19.57 1.67 1.01a4.79 4.79 0 0 1 1.12 1.57c.27.61.41 1.29.41 2.04zm-2.64 0c0-.39-.07-.73-.21-1.05s-.33-.58-.56-.81a2.38 2.38 0 0 0-.83-.52c-.32-.12-.66-.18-1.01-.18s-.7.06-1.01.18-.59.29-.83.52c-.23.23-.42.49-.55.81-.13.31-.2.66-.2 1.05a2.6 2.6 0 0 0 .2 1.01c.13.31.32.58.55.81s.51.41.83.54.65.2 1.01.2.7-.06 1.01-.18a2.38 2.38 0 0 0 .83-.52c.24-.22.42-.49.56-.81s.21-.66.21-1.04z"/><path id="F" d="M41.04 158.4c.64 0 1.18.07 1.6.22s.73.37.94.66c.21.3.31.68.31 1.14 0 .38-.08.69-.23.95s-.35.46-.59.61a2.77 2.77 0 0 1-.78.36l2.15 3.22h-1.06l-1.92-2.99h-1.63v2.99h-.91v-7.16h2.12zm-.05.72h-1.15v2.75h1.25c.64 0 1.11-.12 1.42-.36.3-.24.45-.59.45-1.05s-.16-.83-.48-1.03-.81-.3-1.48-.3z"/><path id="G" d="M51.94 161.91c0 .81-.16 1.48-.48 2.02a2.99 2.99 0 0 1-1.4 1.22c-.61.27-1.35.41-2.22.41h-2.13v-7.16h2.37c.8 0 1.49.13 2.06.4.58.27 1.02.66 1.33 1.18s.47 1.17.47 1.93zm-.96.03c0-.64-.12-1.17-.35-1.59s-.58-.73-1.03-.93-1.01-.31-1.66-.31h-1.32v5.74h1.11c1.08 0 1.89-.24 2.44-.73s.81-1.21.81-2.17z"/><path id="H" d="M119.43 98.29c0-.92.08-1.76.25-2.53.17-.76.41-1.44.74-2.02a5.14 5.14 0 0 1 1.24-1.49c.5-.41 1.08-.71 1.75-.92s1.42-.31 2.25-.31l1.03.05a5.72 5.72 0 0 1 .86.14v.78c-.24-.07-.52-.13-.84-.17a8.28 8.28 0 0 0-1.03-.06c-1.12 0-2.07.22-2.84.67s-1.35 1.11-1.75 2-.63 1.98-.67 3.29h.07c.19-.3.46-.59.8-.87s.77-.5 1.29-.68 1.12-.26 1.82-.26c.86 0 1.61.15 2.23.45s1.11.73 1.44 1.28c.34.56.51 1.22.51 1.98 0 .82-.17 1.54-.52 2.15a3.6 3.6 0 0 1-1.51 1.43c-.66.34-1.45.51-2.37.51-.79 0-1.47-.14-2.06-.41-.59-.28-1.08-.66-1.48-1.16-.4-.49-.69-1.07-.89-1.73a7.31 7.31 0 0 1-.3-2.13zm4.72 4.68c1.08 0 1.92-.29 2.52-.87s.9-1.41.9-2.48c0-.92-.27-1.65-.82-2.19s-1.38-.81-2.49-.81c-.77 0-1.44.13-2 .4-.56.26-.99.59-1.29.98s-.45.77-.45 1.15a4.46 4.46 0 0 0 .18 1.18c.12.43.32.85.6 1.25s.66.73 1.12.99c.47.26 1.05.39 1.74.39z"/><path id="I" d="M135.15 96.12c.97 0 1.8.14 2.51.42.7.28 1.25.69 1.63 1.23s.57 1.19.57 1.97c0 .82-.21 1.53-.64 2.13s-1.03 1.05-1.8 1.38c-.78.32-1.69.48-2.74.48-.76 0-1.45-.06-2.07-.19s-1.14-.3-1.57-.51v-.86c.46.24 1.01.43 1.64.58.64.15 1.3.23 2 .23.84 0 1.57-.12 2.19-.37.62-.24 1.1-.6 1.45-1.08.34-.47.52-1.05.52-1.74 0-.92-.32-1.63-.97-2.15-.65-.51-1.63-.77-2.93-.77a10.87 10.87 0 0 0-1.54.1c-.49.06-.94.15-1.36.24l-.57-.35.58-5.65h6.89V92h-6.04l-.44 4.4 1.11-.19c.45-.06.97-.1 1.58-.1z"/><path id="J" d="M291.07 100.4h-2.47v3.15h-.97v-3.15h-7.28v-.68l7.21-8.58h1.04v8.47h2.47v.79zm-3.44-.79v-4.74-.9l.01-.69.02-.6.02-.59h-.06l-.52.75a8.11 8.11 0 0 1-.61.77l-5.06 6h6.19z"/></defs></svg>