<svg xmlns="http://www.w3.org/2000/svg" xmlns:xlink="http://www.w3.org/1999/xlink" width="618" height="139" viewBox="0 0 618 139">
  <defs>
    <clipPath id="clip-path">
      <rect id="Rectangle_886" data-name="Rectangle 886" width="342" height="160" transform="translate(0 -0.465)"/>
    </clipPath>
    <clipPath id="clip-path-2">
      <rect id="Rectangle_885" data-name="Rectangle 885" width="342.759" height="146.535" transform="translate(0 0)" fill="none"/>
    </clipPath>
    <clipPath id="clip-path-3">
      <rect id="Rectangle_820" data-name="Rectangle 820" width="371.833" height="278.293" fill="none"/>
    </clipPath>
    <clipPath id="clip-path-4">
      <rect id="Rectangle_888" data-name="Rectangle 888" width="342" height="160"/>
    </clipPath>
    <clipPath id="clip-path-5">
      <rect id="Rectangle_887" data-name="Rectangle 887" width="342.759" height="146.962" transform="translate(0 0)" fill="none"/>
    </clipPath>
    <clipPath id="clip-path-6">
      <rect id="Rectangle_820-2" data-name="Rectangle 820" width="371.833" height="279.104" fill="none"/>
    </clipPath>
    <clipPath id="clip-n">
      <rect width="618" height="139"/>
    </clipPath>
  </defs>
  <g id="n" clip-path="url(#clip-n)">
    <g id="cloud_twos" transform="translate(-27 -20.535)" clip-path="url(#clip-path)">
      <g id="Scroll_Group_5" data-name="Scroll Group 5" transform="translate(-1.228 13)" clip-path="url(#clip-path-2)">
        <g id="Group_1653" data-name="Group 1653" transform="translate(1.228 7.388)">
          <g id="Group_1652" data-name="Group 1652" clip-path="url(#clip-path-3)">
            <path id="Path_1432" data-name="Path 1432" d="M535.176,90.332c3.632,14.465-21.068,16.961-28.628,18.758A22.657,22.657,0,0,1,482.06,116.6c-5.409,9.74-15.888,13.425-27.74,12.6-26.356,1.283-11.976-17.688-43.646-12.531-9.582.012-19.042-6.834-21.07-15.832-27.5-1.174-26.918-46.8-.07-49.18-1.387-13.488,2.226-25.352,18.194-26,15.491,5.619,10.346-6.488,24.851-9.747,4.573-8.138,9.7-13.887,19.665-13.9,9.752-.015,15.362,4.19,20.217,9.521,8.848-1.7,19.64,4.681,22.493,14.724,7.828-6.347,17.954-7.472,25.091-2,6.551,2.7,4.53,15.209,10.856,13.249,28.978-2.8,35.726,52.413,4.274,52.836" transform="translate(-197.676 -1.036)" fill="#fffdfc"/>
            <path id="Path_1433" data-name="Path 1433" d="M535.176,90.332c3.632,14.465-21.068,16.961-28.628,18.758A22.657,22.657,0,0,1,482.06,116.6c-5.409,9.74-15.888,13.425-27.74,12.6-26.356,1.283-11.976-17.688-43.646-12.531-9.582.012-19.042-6.834-21.07-15.832-27.5-1.174-26.918-46.8-.07-49.18-1.387-13.488,2.226-25.352,18.194-26,15.491,5.619,10.346-6.488,24.851-9.747,4.573-8.138,9.7-13.887,19.665-13.9,9.752-.015,15.362,4.19,20.217,9.521,8.848-1.7,19.64,4.681,22.493,14.724,7.828-6.347,17.954-7.472,25.091-2,6.551,2.7,4.53,15.209,10.856,13.249C559.881,34.7,566.629,89.909,535.176,90.332Z" transform="translate(-197.676 -1.036)" fill="none" stroke="#312f30" stroke-miterlimit="10" stroke-width="4"/>
            <path id="Path_1434" data-name="Path 1434" d="M168.415,152.539c-.482.021,2.651,4.063-4.441,10.189-5.694,4.918-15.466,6.653-22.666,4.829a20.539,20.539,0,0,1-1.52,1.932c-6.051,6.824-15.729,9.185-24.49,6.773-5.409,8.8-15.888,12.124-27.74,11.379-12.177-.766-16.331.989-24.062-13.281-3.6,3.063-14.267,1.954-19.584,1.962-9.582.013-19.042-6.17-21.07-14.3C10.392,161.356,1.986,151.752,2,139.834c.014-11.407,9.071-20.828,20.769-22.23a21.62,21.62,0,0,1-.3-3.635c.013-10.952,4.041-19.194,18.5-19.849,3.406-.154,8.636.6,11.372,2.329,2.624-5.377,4.9-10.333,13.48-11.128,4.572-7.354,9.7-12.546,19.665-12.56,9.752-.014,15.362,3.784,20.217,8.6a21.288,21.288,0,0,1,16.07,4.349,19.375,19.375,0,0,1,6.423,8.949c7.828-5.733,17.954-6.749,25.091-1.8a17.076,17.076,0,0,1,7.207,12.414,23.882,23.882,0,0,1,3.654-.45c13.339-.6,24.692,10.1,25.353,23.909s-7.74,23.218-21.079,23.812" transform="translate(-1.071 -37.715)" fill="#fffdfc"/>
            <path id="Path_1435" data-name="Path 1435" d="M168.415,152.539c-.482.021,2.651,4.063-4.441,10.189-5.694,4.918-15.466,6.653-22.666,4.829a20.539,20.539,0,0,1-1.52,1.932c-6.051,6.824-15.729,9.185-24.49,6.773-5.409,8.8-15.888,12.124-27.74,11.379-12.177-.766-16.331.989-24.062-13.281-3.6,3.063-14.267,1.954-19.584,1.962-9.582.013-19.042-6.17-21.07-14.3C10.392,161.356,1.986,151.752,2,139.834c.014-11.407,9.071-20.828,20.769-22.23a21.62,21.62,0,0,1-.3-3.635c.013-10.952,4.041-19.194,18.5-19.849,3.406-.154,8.636.6,11.372,2.329,2.624-5.377,4.9-10.333,13.48-11.128,4.572-7.354,9.7-12.546,19.665-12.56,9.752-.014,15.362,3.784,20.217,8.6a21.288,21.288,0,0,1,16.07,4.349,19.375,19.375,0,0,1,6.423,8.949c7.828-5.733,17.954-6.749,25.091-1.8a17.076,17.076,0,0,1,7.207,12.414,23.882,23.882,0,0,1,3.654-.45c13.339-.6,24.692,10.1,25.353,23.909S181.753,151.946,168.415,152.539Z" transform="translate(-1.071 -37.715)" fill="none" stroke="#312f30" stroke-miterlimit="10" stroke-width="4"/>
            <path id="Path_1436" data-name="Path 1436" d="M539.754,152.538c3.633,13.065-21.068,15.319-28.628,16.941-6.051,6.828-15.726,9.189-24.492,6.778-5.409,8.8-15.888,12.124-27.74,11.379-26.356,1.158-11.976-15.974-43.646-11.317-9.582.011-19.042-6.172-21.07-14.3-27.5-1.06-26.919-42.266-.07-44.417-1.387-12.182,2.226-22.9,18.194-23.484,15.491,5.074,10.346-5.861,24.851-8.8,4.573-7.349,9.7-12.542,19.666-12.556,9.753-.014,15.362,3.784,20.217,8.6,8.848-1.54,19.64,4.227,22.493,13.3,7.828-5.733,17.954-6.749,25.091-1.8,6.551,2.438,4.53,13.736,10.856,11.966,28.979-2.527,35.727,47.337,4.274,47.717" transform="translate(-200.127 -37.714)" fill="#fffdfc"/>
            <path id="Path_1437" data-name="Path 1437" d="M539.754,152.538c3.633,13.065-21.068,15.319-28.628,16.941-6.051,6.828-15.726,9.189-24.492,6.778-5.409,8.8-15.888,12.124-27.74,11.379-26.356,1.158-11.976-15.974-43.646-11.317-9.582.011-19.042-6.172-21.07-14.3-27.5-1.06-26.919-42.266-.07-44.417-1.387-12.182,2.226-22.9,18.194-23.484,15.491,5.074,10.346-5.861,24.851-8.8,4.573-7.349,9.7-12.542,19.666-12.556,9.753-.014,15.362,3.784,20.217,8.6,8.848-1.54,19.64,4.227,22.493,13.3,7.828-5.733,17.954-6.749,25.091-1.8,6.551,2.438,4.53,13.736,10.856,11.966C564.459,102.293,571.208,152.156,539.754,152.538Z" transform="translate(-200.127 -37.714)" fill="none" stroke="#312f30" stroke-miterlimit="10" stroke-width="4"/>
            <path id="Path_1438" data-name="Path 1438" d="M252.752,250.7c3.632,13.065-21.068,15.319-28.628,16.941-6.051,6.83-15.728,9.191-24.488,6.779-5.409,8.8-15.888,12.125-27.74,11.379-26.356,1.158-11.976-15.974-43.646-11.317-9.582.011-19.042-6.172-21.07-14.3-27.5-1.06-26.918-42.267-.07-44.417-1.387-12.182,2.226-22.9,18.194-23.484,15.491,5.074,10.346-5.861,24.851-8.8,4.573-7.349,9.7-12.542,19.666-12.556,9.752-.014,15.362,3.784,20.217,8.6,8.848-1.54,19.64,4.227,22.493,13.3,7.828-5.733,17.954-6.749,25.091-1.8,6.551,2.437,4.53,13.736,10.856,11.966,28.979-2.527,35.726,47.337,4.274,47.717" transform="translate(-46.456 -88.595)" fill="#fffdfc"/>
            <path id="Path_1439" data-name="Path 1439" d="M252.752,250.7c3.632,13.065-21.068,15.319-28.628,16.941-6.051,6.83-15.728,9.191-24.488,6.779-5.409,8.8-15.888,12.125-27.74,11.379-26.356,1.158-11.976-15.974-43.646-11.317-9.582.011-19.042-6.172-21.07-14.3-27.5-1.06-26.918-42.267-.07-44.417-1.387-12.182,2.226-22.9,18.194-23.484,15.491,5.074,10.346-5.861,24.851-8.8,4.573-7.349,9.7-12.542,19.666-12.556,9.752-.014,15.362,3.784,20.217,8.6,8.848-1.54,19.64,4.227,22.493,13.3,7.828-5.733,17.954-6.749,25.091-1.8,6.551,2.437,4.53,13.736,10.856,11.966C277.457,200.452,284.2,250.316,252.752,250.7Z" transform="translate(-46.456 -88.595)" fill="none" stroke="#312f30" stroke-miterlimit="10" stroke-width="4"/>
            <path id="Path_1440" data-name="Path 1440" d="M195.171,376.907c4.227,15.2-24.518,17.827-33.316,19.716-7.041,7.948-18.3,10.7-28.5,7.889-6.295,10.237-18.49,14.11-32.283,13.242C70.4,419.1,87.136,399.163,50.28,404.583c-11.152.012-22.161-7.183-24.521-16.641-32-1.233-31.327-49.188-.082-51.691-1.614-14.176,2.591-26.647,21.174-27.328,18.028,5.9,12.04-6.82,28.921-10.245,5.324-8.553,11.293-14.594,22.886-14.612,11.35-.016,17.877,4.4,23.529,10.007,10.3-1.789,22.855,4.92,26.176,15.476,9.11-6.671,20.894-7.854,29.2-2.1,7.623,2.837,5.272,15.986,12.634,13.925,33.725-2.94,41.578,55.086,4.974,55.534" transform="translate(-1.071 -147.243)" fill="#35a293"/>
            <path id="Path_1441" data-name="Path 1441" d="M195.171,376.907c4.227,15.2-24.518,17.827-33.316,19.716-7.041,7.948-18.3,10.7-28.5,7.889-6.295,10.237-18.49,14.11-32.283,13.242C70.4,419.1,87.136,399.163,50.28,404.583c-11.152.012-22.161-7.183-24.521-16.641-32-1.233-31.327-49.188-.082-51.691-1.614-14.176,2.591-26.647,21.174-27.328,18.028,5.9,12.04-6.82,28.921-10.245,5.324-8.553,11.293-14.594,22.886-14.612,11.35-.016,17.877,4.4,23.529,10.007,10.3-1.789,22.855,4.92,26.176,15.476,9.11-6.671,20.894-7.854,29.2-2.1,7.623,2.837,5.272,15.986,12.634,13.925C223.922,318.433,231.775,376.462,195.171,376.907Z" transform="translate(-1.071 -147.243)" fill="none" stroke="#312f30" stroke-miterlimit="10" stroke-width="4"/>
            <path id="Path_1442" data-name="Path 1442" d="M417.221,280.449c-3.633,14.465,21.068,16.961,28.628,18.758a22.656,22.656,0,0,0,24.488,7.506c5.409,9.74,15.888,13.425,27.74,12.6,26.356,1.283,11.976-17.688,43.646-12.531,9.582.012,19.042-6.834,21.07-15.832,27.5-1.174,26.918-46.8.07-49.18,1.387-13.488-2.227-25.353-18.194-26-15.491,5.619-10.346-6.488-24.851-9.747-4.573-8.138-9.7-13.887-19.666-13.9-9.753-.015-15.362,4.19-20.217,9.521-8.848-1.7-19.64,4.681-22.493,14.724-7.828-6.347-17.954-7.472-25.091-2-6.551,2.7-4.53,15.209-10.856,13.249-28.979-2.8-35.726,52.413-4.274,52.836" transform="translate(-212.305 -99.583)" fill="#fffdfc"/>
            <path id="Path_1443" data-name="Path 1443" d="M417.221,280.449c-3.633,14.465,21.068,16.961,28.628,18.758a22.656,22.656,0,0,0,24.488,7.506c5.409,9.74,15.888,13.425,27.74,12.6,26.356,1.283,11.976-17.688,43.646-12.531,9.582.012,19.042-6.834,21.07-15.832,27.5-1.174,26.918-46.8.07-49.18,1.387-13.488-2.227-25.353-18.194-26-15.491,5.619-10.346-6.488-24.851-9.747-4.573-8.138-9.7-13.887-19.666-13.9-9.753-.015-15.362,4.19-20.217,9.521-8.848-1.7-19.64,4.681-22.493,14.724-7.828-6.347-17.954-7.472-25.091-2-6.551,2.7-4.53,15.209-10.856,13.249C392.516,224.816,385.768,280.028,417.221,280.449Z" transform="translate(-212.305 -99.583)" fill="none" stroke="#312f30" stroke-miterlimit="10" stroke-width="4"/>
            <path id="Path_1444" data-name="Path 1444" d="M407.353,416.846c3.632,13.065-21.068,15.319-28.628,16.941-6.05,6.829-15.725,9.19-24.49,6.778-5.409,8.8-15.888,12.124-27.74,11.378-26.356,1.158-11.976-15.974-43.646-11.317-9.582.011-19.042-6.172-21.07-14.3-27.5-1.06-26.918-42.266-.07-44.417-1.387-12.181,2.226-22.9,18.194-23.484,15.491,5.074,10.346-5.861,24.851-8.8,4.573-7.349,9.7-12.542,19.666-12.556,9.752-.014,15.362,3.784,20.217,8.6,8.848-1.54,19.64,4.227,22.493,13.3,7.828-5.733,17.954-6.749,25.091-1.8,6.551,2.437,4.53,13.736,10.856,11.966,28.979-2.527,35.726,47.337,4.274,47.717" transform="translate(-129.235 -174.717)" fill="#f6e1ce"/>
            <path id="Path_1445" data-name="Path 1445" d="M407.353,416.846c3.632,13.065-21.068,15.319-28.628,16.941-6.05,6.829-15.725,9.19-24.49,6.778-5.409,8.8-15.888,12.124-27.74,11.378-26.356,1.158-11.976-15.974-43.646-11.317-9.582.011-19.042-6.172-21.07-14.3-27.5-1.06-26.918-42.266-.07-44.417-1.387-12.181,2.226-22.9,18.194-23.484,15.491,5.074,10.346-5.861,24.851-8.8,4.573-7.349,9.7-12.542,19.666-12.556,9.752-.014,15.362,3.784,20.217,8.6,8.848-1.54,19.64,4.227,22.493,13.3,7.828-5.733,17.954-6.749,25.091-1.8,6.551,2.437,4.53,13.736,10.856,11.966C432.058,366.6,438.806,416.464,407.353,416.846Z" transform="translate(-129.235 -174.717)" fill="none" stroke="#312f30" stroke-miterlimit="10" stroke-width="4"/>
          </g>
        </g>
      </g>
    </g>
    <g id="cloud_twos-2" data-name="cloud_twos" transform="translate(309 -21)" clip-path="url(#clip-path-4)">
      <g id="Scroll_Group_5-2" data-name="Scroll Group 5" transform="translate(0.469 13.038)" clip-path="url(#clip-path-5)">
        <g id="Group_1653-2" data-name="Group 1653" transform="translate(-30.302 7.41)">
          <g id="Group_1652-2" data-name="Group 1652" clip-path="url(#clip-path-6)">
            <path id="Path_1432-2" data-name="Path 1432" d="M389.9,90.589c-3.632,14.508,21.068,17.01,28.628,18.813a22.617,22.617,0,0,0,24.488,7.528c5.409,9.769,15.888,13.464,27.74,12.636,26.356,1.286,11.976-17.739,43.646-12.568,9.582.012,19.042-6.853,21.07-15.878,27.5-1.177,26.918-46.935.07-49.323,1.387-13.527-2.226-25.426-18.194-26.078C501.857,31.354,507,19.212,492.5,15.943,487.924,7.782,482.793,2.016,472.832,2c-9.752-.015-15.362,4.2-20.217,9.548-8.848-1.71-19.64,4.695-22.493,14.767-7.828-6.366-17.954-7.494-25.091-2-6.551,2.707-4.53,15.254-10.856,13.287-28.978-2.805-35.726,52.565-4.274,52.99" transform="translate(-355.566 -1.034)" fill="#fffdfc"/>
            <path id="Path_1433-2" data-name="Path 1433" d="M389.9,90.589c-3.632,14.508,21.068,17.01,28.628,18.813a22.617,22.617,0,0,0,24.488,7.528c5.409,9.769,15.888,13.464,27.74,12.636,26.356,1.286,11.976-17.739,43.646-12.568,9.582.012,19.042-6.853,21.07-15.878,27.5-1.177,26.918-46.935.07-49.323,1.387-13.527-2.226-25.426-18.194-26.078C501.857,31.354,507,19.212,492.5,15.943,487.924,7.782,482.793,2.016,472.831,2c-9.752-.015-15.362,4.2-20.217,9.548-8.848-1.71-19.64,4.695-22.493,14.767-7.828-6.366-17.954-7.494-25.091-2-6.551,2.707-4.53,15.254-10.856,13.287C365.2,34.794,358.447,90.165,389.9,90.589Z" transform="translate(-355.566 -1.034)" fill="none" stroke="#312f30" stroke-miterlimit="10" stroke-width="4"/>
            <path id="Path_1434-2" data-name="Path 1434" d="M23.118,152.771c.482.022-2.651,4.075,4.441,10.218,5.694,4.933,15.466,6.673,22.666,4.843a20.592,20.592,0,0,0,1.52,1.937c6.051,6.844,15.729,9.212,24.49,6.792,5.409,8.825,15.888,12.159,27.74,11.412,12.177-.768,16.331.992,24.062-13.32,3.6,3.072,14.267,1.96,19.584,1.968,9.582.013,19.042-6.188,21.07-14.338,12.45-.669,20.857-10.3,20.842-22.254-.014-11.44-9.071-20.888-20.769-22.295a21.744,21.744,0,0,0,.3-3.646c-.013-10.984-4.041-19.25-18.5-19.907-3.406-.154-8.636.606-11.372,2.335-2.624-5.393-4.9-10.363-13.48-11.161-4.572-7.375-9.7-12.583-19.665-12.6-9.752-.014-15.362,3.795-20.217,8.624a21.243,21.243,0,0,0-16.07,4.362,19.43,19.43,0,0,0-6.423,8.975c-7.828-5.749-17.954-6.769-25.091-1.81a17.135,17.135,0,0,0-7.207,12.451,23.815,23.815,0,0,0-3.654-.451C14.05,104.308,2.7,115.045,2.036,128.89s7.74,23.286,21.079,23.881" transform="translate(181.371 -37.613)" fill="#fffdfc"/>
            <path id="Path_1435-2" data-name="Path 1435" d="M23.118,152.771c.482.022-2.651,4.075,4.441,10.218,5.694,4.933,15.466,6.673,22.666,4.843a20.592,20.592,0,0,0,1.52,1.937c6.051,6.844,15.729,9.212,24.49,6.792,5.409,8.825,15.888,12.159,27.74,11.412,12.177-.768,16.331.992,24.062-13.32,3.6,3.072,14.267,1.96,19.584,1.968,9.582.013,19.042-6.188,21.07-14.338,12.45-.669,20.857-10.3,20.842-22.254-.014-11.44-9.071-20.888-20.769-22.295a21.744,21.744,0,0,0,.3-3.646c-.013-10.984-4.041-19.25-18.5-19.907-3.406-.154-8.636.606-11.372,2.335-2.624-5.393-4.9-10.363-13.48-11.161-4.572-7.375-9.7-12.583-19.665-12.6-9.752-.014-15.362,3.795-20.217,8.624a21.243,21.243,0,0,0-16.07,4.362,19.43,19.43,0,0,0-6.423,8.975c-7.828-5.749-17.954-6.769-25.091-1.81a17.135,17.135,0,0,0-7.207,12.451,23.815,23.815,0,0,0-3.654-.451C14.05,104.308,2.7,115.045,2.036,128.89S9.78,152.177,23.118,152.771Z" transform="translate(181.371 -37.613)" fill="none" stroke="#312f30" stroke-miterlimit="10" stroke-width="4"/>
            <path id="Path_1436-2" data-name="Path 1436" d="M394.472,152.771c-3.633,13.1,21.068,15.364,28.628,16.991,6.051,6.848,15.726,9.215,24.492,6.8,5.409,8.825,15.888,12.159,27.74,11.412,26.356,1.162,11.976-16.021,43.646-11.35,9.582.011,19.042-6.19,21.07-14.34,27.5-1.063,26.919-42.389.07-44.547,1.387-12.217-2.226-22.964-18.194-23.552-15.491,5.088-10.346-5.878-24.851-8.829-4.573-7.371-9.7-12.578-19.666-12.593-9.753-.014-15.362,3.795-20.217,8.624-8.848-1.544-19.64,4.24-22.493,13.337-7.828-5.749-17.954-6.769-25.091-1.81-6.551,2.445-4.53,13.776-10.856,12-28.979-2.534-35.727,47.475-4.274,47.857" transform="translate(-362.266 -37.612)" fill="#fffdfc"/>
            <path id="Path_1437-2" data-name="Path 1437" d="M394.475,152.771c-3.633,13.1,21.068,15.364,28.628,16.991,6.051,6.848,15.726,9.215,24.492,6.8,5.409,8.825,15.888,12.159,27.74,11.412,26.356,1.162,11.976-16.021,43.646-11.35,9.582.011,19.042-6.19,21.07-14.34,27.5-1.063,26.919-42.389.07-44.547,1.387-12.217-2.226-22.964-18.194-23.552-15.491,5.088-10.346-5.878-24.851-8.829-4.573-7.371-9.7-12.578-19.666-12.593-9.753-.014-15.362,3.795-20.217,8.624-8.848-1.544-19.64,4.24-22.493,13.337-7.828-5.749-17.954-6.769-25.091-1.81-6.551,2.445-4.53,13.776-10.856,12C369.769,102.379,363.021,152.388,394.475,152.771Z" transform="translate(-362.269 -37.612)" fill="none" stroke="#312f30" stroke-miterlimit="10" stroke-width="4"/>
            <path id="Path_1438-2" data-name="Path 1438" d="M107.475,250.93c-3.632,13.1,21.068,15.364,28.628,16.991,6.051,6.85,15.728,9.218,24.488,6.8,5.409,8.825,15.888,12.16,27.74,11.412,26.356,1.162,11.976-16.021,43.646-11.35,9.582.011,19.042-6.19,21.07-14.34,27.5-1.063,26.918-42.39.07-44.547,1.387-12.217-2.226-22.964-18.194-23.552-15.491,5.088-10.346-5.878-24.851-8.829-4.573-7.371-9.7-12.578-19.666-12.593-9.752-.014-15.362,3.795-20.217,8.624-8.848-1.544-19.64,4.24-22.493,13.337-7.828-5.749-17.954-6.769-25.091-1.81-6.551,2.444-4.53,13.776-10.856,12-28.979-2.534-35.726,47.475-4.274,47.857" transform="translate(58.062 -88.355)" fill="#fffdfc"/>
            <path id="Path_1439-2" data-name="Path 1439" d="M107.476,250.93c-3.632,13.1,21.068,15.364,28.628,16.991,6.051,6.85,15.728,9.218,24.488,6.8,5.409,8.825,15.888,12.16,27.74,11.412,26.356,1.162,11.976-16.021,43.646-11.35,9.582.011,19.042-6.19,21.07-14.34,27.5-1.063,26.918-42.39.07-44.547,1.387-12.217-2.226-22.964-18.194-23.552-15.491,5.088-10.346-5.878-24.851-8.829-4.573-7.371-9.7-12.578-19.666-12.593-9.752-.014-15.362,3.795-20.217,8.624-8.848-1.544-19.64,4.24-22.493,13.337-7.828-5.749-17.954-6.769-25.091-1.81-6.551,2.444-4.53,13.776-10.856,12C82.771,200.538,76.023,250.547,107.476,250.93Z" transform="translate(58.061 -88.355)" fill="none" stroke="#312f30" stroke-miterlimit="10" stroke-width="4"/>
            <path id="Path_1440-2" data-name="Path 1440" d="M26.1,377.177c-4.227,15.248,24.518,17.879,33.316,19.773,7.041,7.971,18.3,10.726,28.5,7.912,6.295,10.267,18.49,14.151,32.283,13.281,30.672,1.352,13.937-18.645,50.793-13.209,11.152.012,22.161-7.2,24.521-16.69,32-1.237,31.327-49.332.082-51.841,1.614-14.218-2.591-26.725-21.174-27.408-18.028,5.922-12.04-6.84-28.921-10.275-5.324-8.578-11.293-14.637-22.886-14.655-11.35-.016-17.877,4.417-23.529,10.036-10.3-1.794-22.855,4.934-26.176,15.521-9.11-6.691-20.894-7.877-29.2-2.106-7.623,2.846-5.272,16.032-12.634,13.966-33.725-2.949-41.578,55.247-4.974,55.7" transform="translate(151.63 -146.845)" fill="#e79da9"/>
            <path id="Path_1441-2" data-name="Path 1441" d="M26.1,377.177c-4.227,15.248,24.518,17.879,33.316,19.773,7.041,7.971,18.3,10.726,28.5,7.912,6.295,10.267,18.49,14.151,32.283,13.281,30.672,1.352,13.937-18.645,50.793-13.209,11.152.012,22.161-7.2,24.521-16.69,32-1.237,31.327-49.332.082-51.841,1.614-14.218-2.591-26.725-21.174-27.408-18.028,5.922-12.04-6.84-28.921-10.275-5.324-8.578-11.293-14.637-22.886-14.655-11.35-.016-17.877,4.417-23.529,10.036-10.3-1.794-22.855,4.934-26.176,15.521-9.11-6.691-20.894-7.877-29.2-2.106-7.623,2.846-5.272,16.032-12.634,13.966C-2.648,318.533-10.5,376.732,26.1,377.177Z" transform="translate(151.63 -146.845)" fill="none" stroke="#312f30" stroke-miterlimit="10" stroke-width="4"/>
            <path id="Path_1442-2" data-name="Path 1442" d="M562.5,280.706c3.633,14.508-21.068,17.01-28.628,18.813a22.616,22.616,0,0,1-24.488,7.528c-5.409,9.769-15.888,13.464-27.74,12.636-26.356,1.286-11.976-17.739-43.646-12.568-9.582.012-19.042-6.853-21.07-15.878-27.5-1.177-26.918-46.935-.07-49.323-1.387-13.527,2.227-25.426,18.194-26.078,15.491,5.635,10.346-6.507,24.851-9.776,4.573-8.161,9.7-13.927,19.666-13.942,9.753-.015,15.362,4.2,20.217,9.548,8.848-1.71,19.64,4.695,22.493,14.767,7.828-6.366,17.954-7.494,25.091-2,6.551,2.707,4.53,15.254,10.856,13.287,28.979-2.805,35.726,52.565,4.274,52.99" transform="translate(-395.58 -99.313)" fill="#fffdfc"/>
            <path id="Path_1443-2" data-name="Path 1443" d="M562.5,280.706c3.633,14.508-21.068,17.01-28.628,18.813a22.616,22.616,0,0,1-24.488,7.528c-5.409,9.769-15.888,13.464-27.74,12.636-26.356,1.286-11.976-17.739-43.646-12.568-9.582.012-19.042-6.853-21.07-15.878-27.5-1.177-26.918-46.935-.07-49.323-1.387-13.527,2.227-25.426,18.194-26.078,15.491,5.635,10.346-6.507,24.851-9.776,4.573-8.161,9.7-13.927,19.666-13.942,9.753-.015,15.362,4.2,20.217,9.548,8.848-1.71,19.64,4.695,22.493,14.767,7.828-6.366,17.954-7.494,25.091-2,6.551,2.707,4.53,15.254,10.856,13.287C587.2,224.912,593.95,280.284,562.5,280.706Z" transform="translate(-395.58 -99.313)" fill="none" stroke="#312f30" stroke-miterlimit="10" stroke-width="4"/>
            <path id="Path_1444-2" data-name="Path 1444" d="M262.072,417.079c-3.632,13.1,21.068,15.364,28.628,16.991,6.05,6.849,15.725,9.217,24.49,6.8,5.409,8.825,15.888,12.159,27.74,11.412,26.356,1.162,11.976-16.021,43.646-11.35,9.582.011,19.042-6.19,21.07-14.34,27.5-1.063,26.918-42.389.07-44.547,1.387-12.217-2.226-22.964-18.194-23.552-15.491,5.089-10.346-5.878-24.851-8.829-4.573-7.371-9.7-12.578-19.666-12.593-9.752-.014-15.362,3.795-20.217,8.624-8.848-1.544-19.64,4.24-22.493,13.337-7.828-5.749-17.954-6.769-25.091-1.81-6.551,2.445-4.53,13.776-10.856,12-28.979-2.534-35.726,47.475-4.274,47.856" transform="translate(-168.357 -174.244)" fill="#f6e1ce"/>
            <path id="Path_1445-2" data-name="Path 1445" d="M262.075,417.079c-3.632,13.1,21.068,15.364,28.628,16.991,6.05,6.849,15.725,9.217,24.49,6.8,5.409,8.825,15.888,12.159,27.74,11.412,26.356,1.162,11.976-16.021,43.646-11.35,9.582.011,19.042-6.19,21.07-14.34,27.5-1.063,26.918-42.389.07-44.547,1.387-12.217-2.226-22.964-18.194-23.552-15.491,5.089-10.346-5.878-24.851-8.829-4.573-7.371-9.7-12.578-19.666-12.593-9.752-.014-15.362,3.795-20.217,8.624-8.848-1.544-19.64,4.24-22.493,13.337-7.828-5.749-17.954-6.769-25.091-1.81-6.551,2.445-4.53,13.776-10.856,12C237.37,366.687,230.622,416.7,262.075,417.079Z" transform="translate(-168.36 -174.244)" fill="none" stroke="#312f30" stroke-miterlimit="10" stroke-width="4"/>
          </g>
        </g>
      </g>
    </g>
  </g>
</svg>
