<svg xmlns="http://www.w3.org/2000/svg" xmlns:xlink="http://www.w3.org/1999/xlink" width="274" height="269" viewBox="0 0 274 269">
  <defs>
    <clipPath id="clip-pattern_one">
      <rect width="274" height="269"/>
    </clipPath>
  </defs>
  <g id="pattern_one" clip-path="url(#clip-pattern_one)">
    <rect width="274" height="269" fill="#fff"/>
    <g id="Group_1628" data-name="Group 1628" transform="translate(-1178 -1041.008)">
      <g id="Component_14_10" data-name="Component 14 – 10" transform="translate(1178 1039.008)">
        <rect id="Rectangle_779" data-name="Rectangle 779" width="41" height="40" fill="#312f30"/>
        <rect id="Rectangle_781" data-name="Rectangle 781" width="41" height="40" transform="translate(80)" fill="#312f30"/>
        <rect id="Rectangle_783" data-name="Rectangle 783" width="41" height="40" transform="translate(159)" fill="#312f30"/>
        <rect id="Rectangle_785" data-name="Rectangle 785" width="41" height="40" transform="translate(239)" fill="#312f30"/>
        <rect id="Rectangle_780" data-name="Rectangle 780" width="39" height="40" transform="translate(41)" fill="#f6e1ce"/>
        <rect id="Rectangle_782" data-name="Rectangle 782" width="38" height="40" transform="translate(121)" fill="#f6e1ce"/>
        <rect id="Rectangle_784" data-name="Rectangle 784" width="39" height="40" transform="translate(200)" fill="#f6e1ce"/>
      </g>
      <g id="Component_14_11" data-name="Component 14 – 11" transform="translate(1178 1079.008)">
        <path id="Path_1411" data-name="Path 1411" d="M0,0H40.042V39.316H0Z" transform="translate(0 0)" fill="#f6e1ce"/>
        <path id="Path_1412" data-name="Path 1412" d="M0,0H40.042V39.316H0Z" transform="translate(80.084 0)" fill="#f6e1ce"/>
        <path id="Path_1413" data-name="Path 1413" d="M0,0H40.042V39.316H0Z" transform="translate(160.167 0)" fill="#f6e1ce"/>
        <rect id="Rectangle_785-2" data-name="Rectangle 785" width="41" height="40" transform="translate(239)" fill="#f6e1ce"/>
        <rect id="Rectangle_780-2" data-name="Rectangle 780" width="39" height="40" transform="translate(41)" fill="#312f30"/>
        <rect id="Rectangle_782-2" data-name="Rectangle 782" width="38" height="40" transform="translate(121)" fill="#312f30"/>
        <rect id="Rectangle_784-2" data-name="Rectangle 784" width="39" height="40" transform="translate(200)" fill="#312f30"/>
      </g>
      <g id="Component_14_12" data-name="Component 14 – 12" transform="translate(1178 1157.008)">
        <path id="Path_1411-2" data-name="Path 1411" d="M0,0H40.042V39.316H0Z" transform="translate(0 0)" fill="#f6e1ce"/>
        <path id="Path_1412-2" data-name="Path 1412" d="M0,0H40.042V39.316H0Z" transform="translate(80.084 0)" fill="#f6e1ce"/>
        <path id="Path_1413-2" data-name="Path 1413" d="M0,0H40.042V39.316H0Z" transform="translate(160.167 0)" fill="#f6e1ce"/>
        <rect id="Rectangle_785-3" data-name="Rectangle 785" width="41" height="40" transform="translate(239)" fill="#f6e1ce"/>
        <rect id="Rectangle_780-3" data-name="Rectangle 780" width="39" height="40" transform="translate(41)" fill="#312f30"/>
        <rect id="Rectangle_782-3" data-name="Rectangle 782" width="38" height="40" transform="translate(121)" fill="#312f30"/>
        <rect id="Rectangle_784-3" data-name="Rectangle 784" width="39" height="40" transform="translate(200)" fill="#312f30"/>
      </g>
      <g id="Component_14_13" data-name="Component 14 – 13" transform="translate(1178 1232.008)">
        <path id="Path_1411-3" data-name="Path 1411" d="M0,0H40.042V39.316H0Z" transform="translate(0 0)" fill="#f6e1ce"/>
        <path id="Path_1412-3" data-name="Path 1412" d="M0,0H40.042V39.316H0Z" transform="translate(80.084 0)" fill="#f6e1ce"/>
        <path id="Path_1413-3" data-name="Path 1413" d="M0,0H40.042V39.316H0Z" transform="translate(160.167 0)" fill="#f6e1ce"/>
        <rect id="Rectangle_785-4" data-name="Rectangle 785" width="41" height="40" transform="translate(239)" fill="#f6e1ce"/>
        <rect id="Rectangle_780-4" data-name="Rectangle 780" width="39" height="40" transform="translate(41)" fill="#312f30"/>
        <rect id="Rectangle_782-4" data-name="Rectangle 782" width="38" height="40" transform="translate(121)" fill="#312f30"/>
        <rect id="Rectangle_784-4" data-name="Rectangle 784" width="39" height="40" transform="translate(200)" fill="#312f30"/>
      </g>
      <g id="Component_14_14" data-name="Component 14 – 14" transform="translate(1178 1117.008)">
        <rect id="Rectangle_779-2" data-name="Rectangle 779" width="41" height="40" fill="#312f30"/>
        <rect id="Rectangle_781-2" data-name="Rectangle 781" width="41" height="40" transform="translate(80)" fill="#312f30"/>
        <rect id="Rectangle_783-2" data-name="Rectangle 783" width="41" height="40" transform="translate(159)" fill="#312f30"/>
        <rect id="Rectangle_785-5" data-name="Rectangle 785" width="41" height="40" transform="translate(239)" fill="#312f30"/>
        <rect id="Rectangle_780-5" data-name="Rectangle 780" width="39" height="40" transform="translate(41)" fill="#f6e1ce"/>
        <rect id="Rectangle_782-5" data-name="Rectangle 782" width="38" height="40" transform="translate(121)" fill="#f6e1ce"/>
        <rect id="Rectangle_784-5" data-name="Rectangle 784" width="39" height="40" transform="translate(200)" fill="#f6e1ce"/>
      </g>
      <g id="Component_14_15" data-name="Component 14 – 15" transform="translate(1178 1192.008)">
        <rect id="Rectangle_779-3" data-name="Rectangle 779" width="41" height="40" fill="#312f30"/>
        <rect id="Rectangle_781-3" data-name="Rectangle 781" width="41" height="40" transform="translate(80)" fill="#312f30"/>
        <rect id="Rectangle_783-3" data-name="Rectangle 783" width="41" height="40" transform="translate(159)" fill="#312f30"/>
        <rect id="Rectangle_785-6" data-name="Rectangle 785" width="41" height="40" transform="translate(239)" fill="#312f30"/>
        <rect id="Rectangle_780-6" data-name="Rectangle 780" width="39" height="40" transform="translate(41)" fill="#f6e1ce"/>
        <rect id="Rectangle_782-6" data-name="Rectangle 782" width="38" height="40" transform="translate(121)" fill="#f6e1ce"/>
        <rect id="Rectangle_784-6" data-name="Rectangle 784" width="39" height="40" transform="translate(200)" fill="#f6e1ce"/>
      </g>
      <g id="Component_14_16" data-name="Component 14 – 16" transform="translate(1178 1270.008)">
        <rect id="Rectangle_779-4" data-name="Rectangle 779" width="41" height="40" fill="#312f30"/>
        <rect id="Rectangle_781-4" data-name="Rectangle 781" width="41" height="40" transform="translate(80)" fill="#312f30"/>
        <rect id="Rectangle_783-4" data-name="Rectangle 783" width="41" height="40" transform="translate(159)" fill="#312f30"/>
        <rect id="Rectangle_785-7" data-name="Rectangle 785" width="41" height="40" transform="translate(239)" fill="#312f30"/>
        <rect id="Rectangle_780-7" data-name="Rectangle 780" width="39" height="40" transform="translate(41)" fill="#f6e1ce"/>
        <rect id="Rectangle_782-7" data-name="Rectangle 782" width="38" height="40" transform="translate(121)" fill="#f6e1ce"/>
        <rect id="Rectangle_784-7" data-name="Rectangle 784" width="39" height="40" transform="translate(200)" fill="#f6e1ce"/>
      </g>
    </g>
  </g>
</svg>
