<svg xmlns="http://www.w3.org/2000/svg" xmlns:xlink="http://www.w3.org/1999/xlink" width="118" height="121" viewBox="0 0 118 121"><defs><clipPath id="b"><rect width="118" height="121"/></clipPath></defs><g id="a" clip-path="url(#b)"><path d="M90.444,56.072A18.815,18.815,0,1,0,71.623,23.618l.151-1.419a18.9,18.9,0,0,0-37.794,0l.151,1.419A18.828,18.828,0,1,0,15.309,56.072,18.815,18.815,0,1,0,34.131,88.526l-.151,1.419a18.9,18.9,0,0,0,37.794,0l-.151-1.419A18.828,18.828,0,1,0,90.444,56.072ZM52.877,74.9a18.824,18.824,0,1,1,18.9-18.824A18.87,18.87,0,0,1,52.877,74.9Z" transform="translate(5.623 5.928)" fill="none" stroke="#000" stroke-width="8"/></g></svg>