<svg xmlns="http://www.w3.org/2000/svg" xmlns:xlink="http://www.w3.org/1999/xlink" viewBox="0 0 1359.832 1446.118" xmlns:v="https://vecta.io/nano"><style><![CDATA[.K{fill:#f6e1ce}.L{fill:#e79da9}.M{fill:#efb541}.N{stroke-width:2}.O{fill:#312f30}.P{stroke:#312f30}.Q{stroke-miterlimit:10}]]></style><defs><clipPath id="A"><path d="M2.187 43.18h1359.7v1402.938H2.187z" fill="none"/></clipPath><path id="B" d="M367.116 696.667c-1.221.072 6.891 9.461-10.801 24.203-14.207 11.838-38.878 16.355-57.196 12.368-1.14 1.588-2.39 3.118-3.765 4.614-15.028 16.345-39.435 22.329-61.729 17.029-13.314 20.965-39.71 29.264-69.76 28.023-30.873-1.274-41.316 3.042-61.523-30.248-8.976 7.374-36.047 5.229-49.513 5.478-24.269.45-48.498-13.707-53.99-32.769-31.558-1.03-53.27-23.289-53.754-51.375-.464-26.881 22.064-49.475 51.629-53.289a47.44 47.44 0 0 1-.93-8.552c-.445-25.809 9.395-45.406 45.988-47.58 8.619-.512 21.902 1.047 28.904 4.991 6.412-12.786 11.956-24.562 33.653-26.811 11.259-17.528 24.028-29.987 49.257-30.454 24.7-.458 39.072 8.246 51.581 19.38 13.874-2.041 28.853 1.032 40.891 9.547 8.007 5.661 13.611 12.945 16.658 20.808 19.575-13.85 45.176-16.686 63.469-5.346 10.826 6.706 17.158 17.183 18.789 28.94 2.996-.622 6.079-1.029 9.234-1.22 33.758-1.999 62.978 22.734 65.255 55.234 2.277 32.512-18.589 55.051-52.348 57.03z"/><path id="C" d="M971.152 371.241c1.221.072-6.891 9.461 10.801 24.203 14.207 11.838 38.878 16.355 57.196 12.368 1.14 1.588 2.39 3.118 3.765 4.614 15.028 16.345 39.435 22.329 61.729 17.029 13.314 20.965 39.71 29.264 69.76 28.023 30.873-1.274 41.316 3.042 61.523-30.248 8.976 7.374 36.047 5.229 49.513 5.478 24.269.45 48.498-13.707 53.99-32.769 31.558-1.03 53.27-23.289 53.754-51.375.464-26.881-22.064-49.475-51.629-53.289a47.44 47.44 0 0 0 .93-8.552c.445-25.809-9.395-45.406-45.988-47.58-8.619-.512-21.902 1.047-28.904 4.991-6.412-12.786-11.956-24.562-33.653-26.811-11.259-17.528-24.028-29.987-49.257-30.454-24.7-.458-39.072 8.246-51.581 19.38-13.874-2.041-28.853 1.032-40.891 9.547-8.007 5.661-13.611 12.945-16.658 20.808-19.575-13.85-45.176-16.686-63.469-5.346-10.826 6.706-17.158 17.183-18.789 28.94-2.996-.622-6.079-1.029-9.234-1.22-33.758-1.999-62.978 22.734-65.255 55.234-2.277 32.512 18.589 55.051 52.348 57.03z"/><path id="D" d="M132.04 1016.936c0 31.308-2.415 56.688-22.542 56.688-8.655 0-16.907-14.616-14.894-50.946.237-4.279 18.718-8.341 18.718-12.945s-18.38-14.294-18.316-18.583c.372-24.853 5.636-30.902 14.492-30.902 20.127 0 22.542 25.38 22.542 56.688z"/><path id="E" d="M1229.44,1021.972c0,33.504,2.395,60.665,22.352,60.665,8.582,0,16.764-15.641,14.768-54.52-.235-4.579-18.56-8.927-18.56-13.853,0-4.931,18.225-15.297,18.161-19.886-.369-26.597-5.588-33.07-14.369-33.07-19.957,0-22.352,27.161-22.352,60.665Z"/><path id="F" d="M512.269 1081.767c3.322-4.164 2.758-10.327-1.259-13.77-.553-.474-1.144-.872-1.762-1.194 2.544-4.106 1.782-9.622-1.937-12.808-3.623-3.104-8.811-2.934-12.232.179a9.69 9.69 0 0 0-1.457-1.559c-4.018-3.443-9.968-2.861-13.29 1.303-2.482 3.11-2.795 7.34-1.117 10.719a9.38 9.38 0 0 0-4.45 3.099c-3.322 4.164-2.761 10.33 1.257 13.773 2.256 1.933 5.125 2.598 7.793 2.066.065 2.726 1.229 5.413 3.417 7.288 4.018 3.443 9.967 2.856 13.29-1.308a9.83 9.83 0 0 0 2.025-4.57c3.455.96 7.291-.171 9.722-3.218zm-20.797-8.051a10 10 0 0 0-1.043-4.229 9.27 9.27 0 0 0 3.395-1.973 9.69 9.69 0 0 0 1.457 1.559c.553.474 1.144.872 1.762 1.194-.699 1.12-1.146 2.348-1.348 3.609-1.383-.387-2.829-.434-4.222-.16z"/><path id="G" d="M441.852 1110.087c1.492-7.234-2.956-14.348-9.936-15.893a12.39 12.39 0 0 0-2.868-.295c.582-6.654-3.71-12.851-10.171-14.282-6.293-1.394-12.49 2.215-14.742 8.238a12.74 12.74 0 0 0-2.72-.937c-6.98-1.546-13.849 3.062-15.341 10.296-1.114 5.404 1.088 10.745 5.188 13.747-1.714 1.768-2.969 4.052-3.511 6.68-1.492 7.234 2.955 14.353 9.935 15.898 3.919.868 7.808-.206 10.723-2.601 1.742 3.267 4.797 5.767 8.598 6.608 6.98 1.546 13.845-3.068 15.337-10.302.488-2.369.343-4.724-.331-6.877 4.781-1.099 8.748-4.989 9.839-10.281zm-30.166 3.861c-.932-1.748-2.242-3.282-3.847-4.451a13.3 13.3 0 0 0 2.917-4.622 12.74 12.74 0 0 0 2.72.937 12.39 12.39 0 0 0 2.868.295c-.165 1.819.042 3.603.566 5.266-1.916.437-3.7 1.328-5.224 2.575z"/><path id="H" d="M999.933 1149.261c3.493-3.676 3.449-9.588-.098-13.208-.489-.499-1.019-.928-1.58-1.287 2.748-3.688 2.464-9-.819-12.351-3.198-3.264-8.148-3.548-11.651-.879-.356-.571-.775-1.112-1.261-1.608a8.79 8.79 0 0 0-12.747.099c-2.609 2.746-3.245 6.743-1.919 10.101-1.647.375-3.212 1.23-4.481 2.566-3.493 3.676-3.452 9.59.095 13.21 1.992 2.033 4.667 2.911 7.248 2.634-.156 2.598.736 5.255 2.668 7.227a8.79 8.79 0 0 0 12.747-.104c1.144-1.204 1.91-2.646 2.292-4.174 3.21 1.21 6.95.463 9.505-2.226zm-19.14-9.444c.084-1.39-.132-2.801-.654-4.112 1.2-.271 2.357-.801 3.387-1.586.356.571.775 1.112 1.261 1.608s1.019.928 1.58 1.287a9.2 9.2 0 0 0-1.571 3.317c-1.285-.487-2.657-.656-4.004-.514z"/><path id="I" d="M557.059 1021.153c1.181-3.526-.619-7.375-4.022-8.599a6.27 6.27 0 0 0-1.418-.332c.691-3.295-1.087-6.674-4.236-7.807-3.068-1.103-6.387.304-7.877 3.175-.404-.259-.84-.477-1.306-.645-3.403-1.224-7.119.641-8.3 4.167-.882 2.634-.1 5.451 1.773 7.218-.964.775-1.73 1.838-2.159 3.119-1.181 3.526.618 7.378 4.021 8.602 1.911.687 3.922.4 5.526-.611.676 1.748 2.056 3.197 3.909 3.863 3.403 1.224 7.117-.644 8.298-4.171.387-1.155.455-2.344.247-3.465 2.46-.242 4.68-1.935 5.544-4.514zm-15.338-.011a6.73 6.73 0 0 0-1.66-2.477c.703-.563 1.3-1.282 1.738-2.126.404.259.84.477 1.306.645a6.33 6.33 0 0 0 1.418.333c-.192.9-.195 1.807-.033 2.673-.986.095-1.933.427-2.771.953z"/></defs><g clip-path="url(#A)"><g class="M"><path d="M603.949 654.054L228.607 481.83h138.35l244.279 162.057-7.287 10.167zm-7.331 20.3L102.971 561.21v113.144l497.137 14.068-3.49-14.068zm-.941 39.333l-360.412 69.492 43.289 67.042 318.464-127.299-1.341-9.235zm13.599 37.436l-255.52 148.581 105.528 7.844L616.563 758.53l-7.287-7.407zm74.078-127.246h16.914l48.753-277.952h-93.256l27.589 277.952zm-43.752 4.564l16.502-9.747L507.129 397.65h-94.482l226.955 230.791zm132.07 27.573l414.543-174.267h-144L762.92 643.804l8.752 12.21zm6.807 18.257l493.647-113.061v94.804l-489.953 32.121-3.694-13.864zm0 41.159l360.412 69.492-43.289 67.042L777.07 725.135l1.409-9.705zm-10.129 35.693l255.519 148.581-105.528 7.844L761.063 758.53l7.287-7.407zm-13.959-127.329l-16.503-9.747 219.001-247.734 84.228.911-286.726 256.57zM638.219 772.528l-85.043 143.475 50.366 1.474 51.18-141.74-16.503-3.209zm41.697 9.426l-13.328 146.544 44.192-3.915-13.783-143.771-17.081 1.142zm49.482-.586l50.943 121.142 57.432 7.568-95.482-132.31-12.893 3.6z"/></g><g class="N P Q"><use xlink:href="#B" class="K"/><g class="L"><path d="M462.514 524.241c-1.221.072 6.891 9.461-10.801 24.203-14.207 11.838-38.878 16.355-57.196 12.368-1.14 1.588-2.39 3.118-3.765 4.614-15.028 16.345-39.435 22.329-61.729 17.029-13.314 20.965-39.71 29.264-69.76 28.023-30.873-1.274-41.316 3.042-61.523-30.248-8.976 7.374-36.047 5.229-49.513 5.478-24.269.45-48.498-13.707-53.99-32.769-31.558-1.03-53.27-23.289-53.754-51.375-.464-26.881 22.064-49.475 51.629-53.289a47.44 47.44 0 0 1-.93-8.552c-.445-25.809 9.395-45.406 45.988-47.58 8.619-.512 21.902 1.047 28.904 4.991 6.412-12.786 11.956-24.562 33.653-26.811 11.259-17.528 24.028-29.987 49.257-30.454 24.7-.458 39.072 8.246 51.581 19.38 13.874-2.041 28.853 1.032 40.891 9.547 8.007 5.661 13.611 12.945 16.658 20.808 19.575-13.85 45.176-16.686 63.469-5.346 10.826 6.706 17.158 17.183 18.789 28.94 2.996-.622 6.079-1.029 9.234-1.22 33.758-1.999 62.978 22.734 65.255 55.234 2.277 32.512-18.589 55.051-52.348 57.03z"/><use xlink:href="#C"/></g><path d="M344.391 371.241c1.221.072-6.891 9.461 10.801 24.203 14.207 11.838 38.878 16.355 57.196 12.368 1.14 1.588 2.39 3.118 3.765 4.614 15.028 16.345 39.435 22.329 61.729 17.029 13.314 20.965 39.71 29.264 69.76 28.023 30.873-1.274 41.316 3.042 61.523-30.248 8.976 7.374 36.047 5.229 49.513 5.478 24.269.45 48.498-13.707 53.99-32.769 31.558-1.03 53.27-23.289 53.754-51.375.464-26.881-22.064-49.475-51.629-53.289a47.44 47.44 0 0 0 .93-8.552c.445-25.809-9.395-45.406-45.988-47.58-8.619-.512-21.902 1.047-28.904 4.991-6.412-12.786-11.956-24.562-33.653-26.811-11.259-17.528-24.028-29.987-49.257-30.454-24.7-.458-39.072 8.246-51.581 19.38-13.874-2.041-28.853 1.032-40.891 9.547-8.007 5.661-13.611 12.945-16.658 20.808-19.575-13.85-45.176-16.686-63.469-5.346-10.826 6.706-17.158 17.183-18.789 28.94-2.996-.622-6.079-1.029-9.234-1.22-33.758-1.999-62.978 22.734-65.255 55.234-2.277 32.512 18.589 55.051 52.348 57.03z" class="K"/><path d="M61.121 310.11c1.03.06-5.811 7.978 9.108 20.409 11.98 9.983 32.785 13.792 48.231 10.429.961 1.339 2.016 2.629 3.175 3.89 12.673 13.783 33.254 18.829 52.054 14.36 11.228 17.679 33.486 24.677 58.826 23.631 26.034-1.075 34.84 2.565 51.88-25.507 7.569 6.218 30.397 4.409 41.753 4.62 20.465.379 40.897-11.559 45.528-27.633 26.612-.869 44.92-19.639 45.329-43.323.391-22.668-18.606-41.721-43.537-44.937a40.07 40.07 0 0 0 .784-7.212c.375-21.764-7.922-38.29-38.78-40.123-7.268-.432-18.469.883-24.374 4.209-5.407-10.782-10.082-20.713-28.379-22.609-9.495-14.781-20.262-25.287-41.537-25.681-20.829-.386-32.948 6.954-43.496 16.343-11.7-1.721-24.331.87-34.482 8.051-6.752 4.774-11.478 10.917-14.047 17.546-16.507-11.679-38.095-14.071-53.521-4.508-9.129 5.655-14.469 14.489-15.844 24.404-2.527-.525-5.126-.867-7.786-1.028-28.467-1.686-53.108 19.171-55.028 46.577-1.92 27.416 15.675 46.423 44.143 48.092z" class="L"/><g class="K"><path d="M1460.848 524.241c-1.221.072 6.891 9.461-10.801 24.203-14.207 11.838-38.878 16.355-57.196 12.368-1.14 1.588-2.39 3.118-3.765 4.614-15.028 16.345-39.435 22.329-61.729 17.029-13.314 20.965-39.71 29.264-69.76 28.023-30.873-1.274-41.316 3.042-61.523-30.248-8.976 7.374-36.047 5.229-49.513 5.478-24.269.45-48.498-13.707-53.99-32.769-31.558-1.03-53.27-23.289-53.754-51.375-.464-26.881 22.064-49.475 51.629-53.289a47.44 47.44 0 0 1-.93-8.552c-.445-25.809 9.395-45.406 45.988-47.58 8.619-.512 21.902 1.047 28.904 4.991 6.412-12.786 11.956-24.562 33.653-26.811 11.259-17.528 24.028-29.987 49.257-30.454 24.7-.458 39.072 8.246 51.581 19.38 13.874-2.041 28.853 1.032 40.891 9.547 8.007 5.661 13.611 12.945 16.658 20.808 19.575-13.85 45.176-16.686 63.469-5.346 10.826 6.706 17.158 17.183 18.789 28.94 2.996-.622 6.079-1.029 9.234-1.22 33.758-1.999 62.978 22.734 65.255 55.234 2.277 32.512-18.589 55.051-52.348 57.03zm-1212.52-45.35c-1.221.072 6.891 9.461-10.801 24.203-14.207 11.838-38.878 16.355-57.196 12.368-1.14 1.588-2.39 3.118-3.765 4.614-15.028 16.345-39.435 22.329-61.729 17.029-13.314 20.965-39.71 29.264-69.76 28.023-30.873-1.274-41.316 3.042-61.523-30.248-8.976 7.374-36.047 5.229-49.513 5.478-24.269.45-48.498-13.707-53.99-32.769-31.558-1.03-53.27-23.289-53.754-51.375-.464-26.881 22.064-49.475 51.629-53.289a47.44 47.44 0 0 1-.93-8.552c-.445-25.809 9.395-45.406 45.988-47.58 8.619-.512 21.902 1.047 28.904 4.991 6.412-12.786 11.956-24.562 33.653-26.811 11.259-17.528 24.028-29.987 49.257-30.454 24.7-.458 39.072 8.246 51.581 19.38 13.874-2.041 28.853 1.032 40.891 9.547 8.007 5.661 13.611 12.945 16.658 20.808 19.575-13.85 45.176-16.686 63.469-5.346 10.826 6.706 17.158 17.183 18.789 28.94 2.996-.622 6.079-1.029 9.234-1.22 33.758-1.999 62.978 22.734 65.255 55.234 2.277 32.512-18.589 55.051-52.348 57.03z"/><path d="M1433.254 676.223c3.448 4.367 5.399 9.985 5.111 16.024-.622 13.026-11.416 23.045-24.098 22.395-4.689-.24-11.118 4.407-14.635 1.741-4.671 14.049 7.618 13.257-15.905 25.137-11.18 5.647-16.629 3.331-26.03 2.568.397 2.116-2.41-.204-2.517 2.044-.777 16.282-7.788 17.308-24.081 21.829-13.514 3.75-29.169-1.209-33.908-10.6-3.396.264-7.313.758-11.926 1.922-23.742 5.994-46.141 3.249-60.206-12.442-16.891 8.184-37.326 7.087-51.996-4.384a40.35 40.35 0 0 1-3.759-3.311c-13.945 6.399-34.347 6.595-47.616-1.163-16.537-9.667-11.616-19.001-12.608-18.857-27.225 3.854-47.564-11.94-51.114-40.016s15.645-53.95 42.88-57.779c2.545-.357 5.07-.52 7.56-.477-.648-10.289 2.676-20.253 10.192-27.749 4.574-4.552 10.197-7.711 16.37-9.465-.253-2.169-.337-4.378-.229-6.638 1.027-21.507 18.839-38.061 39.798-36.986 10.787.553 20.301 5.67 26.85 13.436a44.33 44.33 0 0 1 9.509-1.51c8.136-11.544 18.146-21.312 37.907-24.976 20.18-3.74 32.403 4.78 44.266 17.873 15.715-1.46 22.488 5.599 28.872 14.112 9.031-10.634 19.179-6.73 33.969-5.972 25.636 1.315 48.758 13.369 47.503 39.664a54.36 54.36 0 0 1-.244 3.118c19.297 8.298 35.189 38.432 38.59 57.694 2.376 13.387-.858 19.202-8.506 22.768z"/></g></g><path d="M216.923 873.703l905.003 10.038-104.796 368.828H333.896L216.923 873.703z" fill="#35a293"/><g class="P N"><g class="Q"><g class="L"><path d="M-51.518 853.164c-2.945 5.179-4.081 11.368-2.755 17.567 2.862 13.371 16.079 21.691 29.514 18.603 4.967-1.142 12.617 2.446 15.923-.983 7.359 13.659-5.9 15.179 21.227 23.003 12.893 3.719 18.321.282 28.232-2.297-.068 2.266 2.539-.671 3.033 1.637 3.577 16.713 11.237 16.441 29.4 18.02 15.065 1.31 30.947-6.806 34.424-17.434 3.671-.373 7.937-.608 13.061-.281 26.367 1.686 49.825-5.421 62.198-24.349 19.419 5.259 41.059.232 54.79-14.441 1.254-1.335 2.407-2.713 3.456-4.145 15.972 3.971 37.794.289 50.655-10.271 16.03-13.159 9.2-21.888 10.284-21.928 29.725-1.193 48.782-21.422 47.836-51.172s-25.811-52.89-55.543-51.669c-2.778.115-5.502.427-8.155.945-1.044-10.779-6.275-20.464-15.566-26.795-5.653-3.843-12.191-6.044-19.08-6.685-.096-2.294-.379-4.598-.875-6.918-4.725-22.077-26.541-35.827-48.743-30.723-11.427 2.627-20.724 9.737-26.408 19.026-3.483-.286-6.979-.202-10.41.247-10.637-10.406-22.975-18.614-44.697-18.646-22.183-.03-33.799 11.12-44.258 26.938-17.029 1.481-23.072 10.08-28.453 20.111-11.438-9.292-21.618-3.318-37.285.284-27.157 6.243-49.816 23.129-44.039 50.119a55.14 55.14 0 0 0 .787 3.182c-19.208 12.267-31.096 46.499-31.478 67.093-.279 14.315 4.156 19.721 12.925 21.958zm1378.692 141.738c4.287 4.913 6.889 11.383 6.889 18.481 0 15.31-12.095 27.707-27.001 27.707-5.511 0-12.789 5.835-17.062 2.922-4.69 16.753 9.675 15.085-17.241 30.43-12.793 7.293-19.311 4.905-30.376 4.576.584 2.457-2.837-.095-2.837 2.547 0 19.138-8.162 20.762-27.013 27.043-15.636 5.209-34.268.336-40.35-10.39-3.967.514-8.532 1.328-13.876 2.971-27.502 8.455-53.918 6.584-71.288-10.968-19.346 10.612-43.368 10.554-61.211-2.014a47.19 47.19 0 0 1-4.593-3.656c-15.992 8.341-39.903 9.797-55.894 1.5-19.931-10.34-14.684-21.58-15.839-21.352-31.705 6.156-56.437-11.14-62.172-43.846s15.324-64.197 47.043-70.324c2.964-.571 5.915-.914 8.838-1.014-1.336-12.025 2.004-23.908 10.397-33.148 5.108-5.613 11.524-9.655 18.664-12.083-.418-2.528-.64-5.113-.64-7.769 0-25.279 19.958-45.759 44.593-45.759 12.679 0 24.12 5.427 32.234 14.139 3.619-1.185 7.335-1.971 11.065-2.342 8.894-14.025 20.084-26.079 43.048-31.563 23.452-5.599 38.26 3.656 52.902 18.295 18.344-2.656 26.681 5.213 34.642 14.81 9.993-13.011 22.111-9.044 39.495-9.044 30.132 0 57.917 12.743 57.917 43.649 0 1.228-.042 2.457-.111 3.67 23.09 8.569 43.41 42.946 48.476 65.326 3.535 15.553.069 22.566-8.699 27.207z"/><path d="M499.852 1000.543c-1.223-.031 6.116 10.164-12.689 23.596-15.101 10.786-40.049 13.274-57.988 7.686a49.41 49.41 0 0 1-4.119 4.354c-16.277 15.281-41.078 19.276-62.877 12.022-14.936 20.105-41.903 26.275-71.755 22.477-30.669-3.903-41.42-.415-58.913-35.838-9.533 6.708-36.343 2.245-49.783 1.359-24.224-1.598-47.247-17.985-51.205-37.753-31.371-3.714-51.241-28.092-49.491-56.575 1.674-27.261 25.923-48.237 55.693-49.598-.334-2.844-.43-5.77-.247-8.739 1.608-26.174 12.973-45.188 49.617-44.293 8.631.211 21.746 2.914 28.411 7.5 7.407-12.406 13.868-23.863 35.672-24.304 12.615-16.798 26.331-28.335 51.513-26.674 24.654 1.626 38.286 11.657 49.868 23.991 13.99-.893 28.675 3.487 39.996 13.128 7.53 6.41 12.537 14.262 14.948 22.481 20.611-12.369 46.352-13.076 63.682-.044 10.257 7.707 15.735 18.852 16.426 30.897 3.036-.376 6.14-.527 9.3-.454 33.804.831 60.961 28.351 60.648 61.456-.315 33.117-22.903 54.178-56.706 53.325zm864.872-125.031c-1.241-.101 5.547 11.508-14.461 25.237-16.067 11.025-41.599 12.385-59.47 5.256a53.37 53.37 0 0 1-4.476 4.558c-17.56 15.9-43.042 18.926-64.727 9.754-16.516 21.276-44.343 26.574-74.445 20.756-30.926-5.978-42.088-2.736-57.535-42.633-10.136 6.848-37.101.468-50.709-1.247-24.525-3.09-46.852-22.368-49.571-44.314-31.652-5.808-50.245-33.697-46.584-64.908 3.504-29.872 29.545-51.591 59.906-51.449-.152-3.144-.056-6.366.326-9.619 3.364-28.68 16.176-48.954 53.377-45.953 8.762.707 21.918 4.399 28.393 9.807 8.351-13.228 15.678-25.465 37.877-24.75 13.937-17.769 28.645-29.694 54.141-26.482 24.961 3.145 38.159 14.92 49.121 29.113 14.284-.211 28.926 5.41 39.8 16.631 7.233 7.46 11.805 16.365 13.714 25.533 21.774-12.461 47.994-11.821 64.755 3.457 9.92 9.035 14.754 21.587 14.66 34.864 3.112-.247 6.278-.242 9.486.013 34.317 2.774 60.112 34.517 57.605 70.886-2.508 36.383-26.867 58.288-61.182 55.49z"/></g><path d="M0 950.465s87.656-260.219 156.098-262.317 174.707 251.825 217.934 453.268c21.688 101.071 115.271 306.348 115.271 306.348H0V950.465z" fill="#2b729b"/><g class="K"><path d="M79.359 861.634c-18.898 16.158-65.486 52.59-54.952 24.979 11.015-28.872 72.415-198.478 131.354-198.465 57.152.013 102.204 117.411 114.117 143.092 6.154 13.265 10.604 23.994 14.053 32.044 7.178 16.757 15.605 59.211-29.939 19.334-52.579-46.036-46.436-26.563-81.561 18.435-11.401 14.606-32.316-1.785-47.031-19.135-15.659-18.463-25.374-37.953-46.039-20.284z"/></g></g><ellipse cx="106.076" cy="1016.936" rx="25.964" ry="56.688" class="K"/></g><use xlink:href="#D" class="O"/><ellipse cx="207.766" cy="1016.936" rx="25.964" ry="56.688" class="K N P"/><g class="O"><path d="M233.73 1016.936c0 31.308-2.415 56.688-22.542 56.688-8.655 0-16.907-14.616-14.894-50.946.237-4.279 18.718-8.341 18.718-12.945s-18.38-14.294-18.316-18.583c.372-24.853 5.636-30.902 14.492-30.902 20.127 0 22.542 25.38 22.542 56.688zm-172.078 94.317c2.984 3.107 7.317 4.551 11.581 4.123 5.043-.506 9.59-3.149 13.026-6.807 2.501-2.662 4.425-5.804 5.875-9.146.761-1.753-1.823-3.283-2.59-1.514-2.54 5.852-6.79 11.544-13.04 13.703-4.414 1.524-9.391.997-12.73-2.48-1.34-1.395-3.459.728-2.121 2.121h0zm165.369-14.869c-2.265 10.028 6.182 18.342 15.398 20.327 3.555.766 7.149.739 10.737.241.809-.112 1.235-1.136 1.048-1.845-.228-.867-1.047-1.159-1.845-1.048-6.15.854-12.978-.182-17.782-4.389-3.538-3.098-5.731-7.762-4.663-12.489.425-1.88-2.467-2.683-2.893-.798h0z"/><path d="M80.862 1110.664c5.6 9.937 13.761 18.186 23.315 24.364 9.762 6.314 20.883 10.485 32.263 12.74a109.68 109.68 0 0 0 35.662 1.136c11.665-1.547 23.114-4.946 33.501-10.525 10.005-5.374 18.89-12.829 25.468-22.12a66.88 66.88 0 0 0 2.352-3.566c1.015-1.649-1.579-3.157-2.59-1.514-5.778 9.385-13.949 17.046-23.376 22.698-9.687 5.808-20.531 9.519-31.636 11.448-11.35 1.971-23.11 2.064-34.49.276-11.142-1.751-22.064-5.269-31.876-10.876-9.492-5.424-17.885-12.838-23.862-22.038-.751-1.156-1.461-2.337-2.138-3.537-.948-1.682-3.54-.172-2.59 1.514h0z"/></g><g class="P N"><g class="Q"><path d="M1359.825 922.368s-74.555-171.042-132.768-172.757-148.596 205.837-185.362 370.492c-18.447 82.613-83.715 332.275-83.715 332.275l403.906-4.613-2.061-525.397z" fill="#2b729b"/><g class="K"><path d="M1295.392 881.821c16.209 13.207 73.468 48.278 64.433 25.709-9.448-23.599-79.412-167.524-129.965-167.513-49.021.01-87.663 95.969-97.882 116.96-5.278 10.843-9.096 19.612-12.053 26.192-6.157 13.696-13.385 48.398 25.68 15.803 45.099-37.629 39.83-21.712 69.957 15.069 9.779 11.939 27.719-1.459 40.34-15.64 13.431-15.091 21.764-31.022 39.489-16.58z"/></g></g><ellipse cx="1255.185" cy="1021.972" rx="25.745" ry="60.665" class="K"/></g><use xlink:href="#E" class="O"/><ellipse cx="1154.353" cy="1021.972" rx="25.745" ry="60.665" class="K N P"/><g class="O"><path d="M1128.609 1021.972c0 33.504 2.395 60.665 22.352 60.665 8.582 0 16.764-15.641 14.768-54.52-.235-4.579-18.56-8.927-18.56-13.853 0-4.931 18.225-15.297 18.161-19.886-.369-26.597-5.588-33.07-14.369-33.07-19.957 0-22.352 27.161-22.352 60.665zm168.512 98.738c-3.217 3.618-8.048 4.342-12.488 2.727-6.289-2.288-10.499-8.442-12.893-14.4-.711-1.769-3.614-.997-2.893.798 2.324 5.782 5.855 11.27 11.218 14.656 3.841 2.425 8.676 3.57 13.11 2.231 2.342-.707 4.444-2.064 6.068-3.89 1.279-1.438-.835-3.568-2.121-2.121h0zm-164.74-12.891c1.042 4.972-.994 10.041-4.62 13.468-4.68 4.423-11.409 5.655-17.62 4.723-1.889-.283-2.703 2.607-.798 2.893 5.862.879 11.975.261 17.116-2.88 4.13-2.524 7.376-6.537 8.629-11.246.676-2.543.724-5.184.185-7.755-.396-1.888-3.288-1.089-2.893.798h0z"/><path d="M1277.606 1120.708c-5.237 10.029-12.903 18.609-22.19 25.06s-19.987 10.828-31.067 13.206c-11.139 2.391-22.781 2.802-34.062 1.196s-22.295-5.15-32.167-10.852c-9.734-5.622-18.243-13.346-24.398-22.783-.78-1.196-1.52-2.416-2.227-3.656-.956-1.677-3.549-.167-2.59 1.514 5.842 10.242 14.184 18.846 24.048 25.273 9.768 6.364 20.92 10.575 32.36 12.71 11.724 2.188 23.784 2.284 35.545.31 11.481-1.927 22.702-5.92 32.615-12.059 9.944-6.158 18.499-14.508 24.556-24.539.764-1.266 1.485-2.556 2.169-3.867.893-1.71-1.696-3.228-2.59-1.514h0z"/></g><ellipse cx="688.459" cy="697.167" rx="101.507" ry="105.197" class="M"/><g class="O"><ellipse cx="649.587" cy="674.354" rx="10.862" ry="22.812"/><ellipse cx="727.33" cy="674.354" rx="10.862" ry="22.812"/><path d="M667.525,722.594c7.286,10.954,22.475,13.881,33.763,7.468,3.246-1.844,5.976-4.41,8.104-7.468,1.105-1.588-1.494-3.089-2.59-1.514-6.483,9.314-19.869,12.068-29.682,6.517-2.82-1.595-5.21-3.82-7.004-6.517-1.064-1.6-3.664-.1-2.59,1.514h0Z"/></g><path d="M329.745 1198.905c91.023-137.567 532.991-33.262 532.991-33.262l140.896 28.606s3.841 62.066 53.904 70.224 48.095 6.257 51.552 38.89 90.85 8.056 93.167 43.94c3.064 47.445 85.45 15.206 121.301 66.323 18.362 26.182 38.331 34.138 38.331 34.138H0s12.591-60.64 54.829-87.154 96.295 5.299 114.599-15.096 27.024-76.638 50.99-103.337c20.749-23.115 73.914.148 97.191-9.518 17.842-7.409 7.503-26.751 12.136-33.754z" fill="#35a293"/><path d="M583.872 1043.004c14.298 57.131 75.242 61.652 90.586 84.219s-32.884 37.788-120.714 99.849 13.532 217.202 13.532 217.202h386.308s-160.862-121.289-144.521-163.603 69.447-108.123 67.404-158.437-116.253-76.456-138.479-84.878c-68.84-26.087 5.713-36.901 38.394-84.388s-101.925-73.58-101.925-73.58 41.669 36.681 27.371 54.304-132.255 52.181-117.957 109.313z" class="K"/><path d="M571.037 892.364c.932-.653 1.539-1.723 1.539-2.932 0-1.988-1.641-3.599-3.666-3.599-.497 0-.97.097-1.403.273-.186-1.816-1.748-3.234-3.646-3.234-1.87 0-3.411 1.374-3.637 3.149-.478-.224-1.012-.35-1.577-.35-2.024 0-3.666 1.611-3.666 3.6 0 1.189.588 2.244 1.494 2.9-.906.655-1.494 1.71-1.494 2.899 0 1.988 1.641 3.6 3.666 3.6a3.7 3.7 0 0 0 1.599-.36c.291 1.702 1.798 2.999 3.615 2.999 1.755 0 3.222-1.211 3.581-2.829.37.123.767.19 1.179.19 2.025 0 3.666-1.612 3.666-3.6 0-1.079-.483-2.047-1.249-2.707zm-8.776 2.107a3.59 3.59 0 0 0-1.443-2.299c.79-.571 1.338-1.447 1.465-2.45a3.71 3.71 0 0 0 1.577.35c.497 0 .97-.097 1.403-.273.095.931.552 1.758 1.231 2.341-.728.51-1.258 1.275-1.454 2.162-.37-.123-.767-.19-1.179-.19a3.7 3.7 0 0 0-1.6.36z" class="M"/><ellipse cx="563.656" cy="892.096" rx="4.845" ry="4.758" class="K"/><path d="M268.508 1362.258c1.628-9.432-3.878-18.551-12.302-20.374-1.16-.251-2.316-.35-3.453-.307.549-8.655-4.751-16.588-12.547-18.275-7.595-1.644-14.96 3.205-17.53 11.085a14.47 14.47 0 0 0-3.29-1.145c-8.424-1.823-16.575 4.34-18.203 13.772-1.216 7.046 1.551 13.922 6.547 17.712-2.019 2.341-3.477 5.339-4.068 8.766-1.628 9.432 3.877 18.557 12.301 20.381 4.73 1.024 9.379-.473 12.828-3.659 2.168 4.196 5.896 7.361 10.484 8.354 8.424 1.823 16.57-4.348 18.198-13.78.533-3.089.305-6.143-.554-8.921 5.721-1.553 10.4-6.708 11.592-13.608zm-36.166 5.807c-1.16-2.245-2.769-4.202-4.725-5.677 1.473-1.703 2.645-3.759 3.401-6.078a14.47 14.47 0 0 0 3.29 1.145c1.16.251 2.316.35 3.453.307-.157 2.366.132 4.676.8 6.822-2.293.618-4.417 1.822-6.22 3.481z" class="L"/><ellipse cx="233.484" cy="1362.233" rx="17.596" ry="19.7" class="K"/><path d="M458.988 1353.998c2.628-13.177-4.78-26.238-16.549-29.18a19.53 19.53 0 0 0-4.841-.588c1.082-12.134-6.077-23.52-16.97-26.242-10.612-2.652-21.134 3.827-25.029 14.782-1.438-.758-2.969-1.355-4.582-1.758-11.77-2.942-23.443 5.349-26.071 18.527-1.963 9.844 1.678 19.63 8.559 25.18-2.921 3.197-5.077 7.345-6.031 12.132-2.628 13.177 4.778 26.247 16.547 29.189 6.609 1.652 13.194-.241 18.154-4.562 2.895 5.993 8.018 10.608 14.428 12.21 11.77 2.942 23.437-5.361 26.064-18.538.86-4.315.65-8.616-.457-12.558 8.094-1.924 14.854-8.955 16.776-18.595zm-51.021 6.525c-1.549-3.206-3.739-6.029-6.434-8.19 2.131-2.326 3.851-5.162 4.998-8.385 1.438.758 2.969 1.355 4.582 1.758a19.53 19.53 0 0 0 4.841.588c-.305 3.317.017 6.576.878 9.62-3.244.764-6.271 2.36-8.864 4.609z" class="M"/><ellipse cx="409.782" cy="1352.382" rx="24.731" ry="27.689" class="K"/><path d="M1176.88 1371.653c0-13.502-9.771-24.442-21.83-24.442-1.661 0-3.28.209-4.839.607-1.305-12.107-10.508-21.472-21.669-21.472-10.873 0-19.881 8.89-21.551 20.533a19.75 19.75 0 0 0-4.814-.598c-12.059 0-21.839 10.94-21.839 24.442 0 10.086 5.458 18.749 13.254 22.487-2.229 3.833-3.525 8.407-3.525 13.312 0 13.502 9.771 24.451 21.83 24.451 6.771 0 12.83-3.454 16.831-8.881 3.991 5.143 9.89 8.397 16.458 8.397 12.059 0 21.83-10.949 21.83-24.451 0-4.422-1.042-8.568-2.89-12.145 7.525-3.852 12.754-12.363 12.754-22.24zm-48.525 18.815c-2.136-2.752-4.822-4.972-7.873-6.424 1.627-2.79 2.754-5.978 3.246-9.403a19.75 19.75 0 0 0 4.814.598c1.661 0 3.28-.209 4.839-.607.347 3.311 1.297 6.414 2.729 9.175-3.017 1.537-5.661 3.833-7.754 6.661z" class="L"/><ellipse cx="1128.542" cy="1382.079" rx="24.731" ry="27.689" class="K"/><path d="M938.74 1223.728c-2.975-8.543-11.568-12.765-19.198-9.434-1.051.459-2.029 1.038-2.928 1.721-3.494-7.3-11.38-10.682-18.442-7.599-6.879 3.003-10.62 11.117-9.11 18.944-1.067.182-2.132.495-3.177.951-7.63 3.331-11.407 12.954-8.431 21.497 2.223 6.381 7.585 10.355 13.341 10.566-.565 3.041-.378 6.293.703 9.396 2.975 8.543 11.57 12.771 19.2 9.44 4.284-1.87 7.357-5.729 8.692-10.268 3.659 2.151 8.108 2.581 12.263.767 7.63-3.331 11.399-12.958 8.424-21.501-.974-2.798-2.548-5.133-4.505-6.886 3.912-4.516 5.345-11.345 3.169-17.595zm-26.556 25.309c-1.958-1.151-4.147-1.814-6.397-1.889.415-2.214.425-4.543-.018-6.846 1.067-.182 2.132-.495 3.177-.951 1.051-.459 2.029-1.038 2.928-1.721.95 1.999 2.234 3.7 3.748 5.051-1.57 1.806-2.737 3.989-3.438 6.356z" class="L"/><ellipse cx="910.454" cy="1243.677" rx="16.795" ry="18.804" class="K"/><path d="M880.862 951.97c-1.921-5.105-7.468-7.628-12.394-5.637a9.41 9.41 0 0 0-1.89 1.028c-2.256-4.362-7.347-6.384-11.906-4.541-4.441 1.795-6.856 6.643-5.882 11.321-.689.109-1.376.296-2.051.569-4.926 1.991-7.364 7.741-5.443 12.846 1.435 3.813 4.897 6.188 8.613 6.314a10.21 10.21 0 0 0 .454 5.615c1.921 5.105 7.47 7.632 12.396 5.641 2.766-1.118 4.749-3.424 5.611-6.136 2.362 1.285 5.234 1.542 7.917.458 4.926-1.991 7.359-7.744 5.438-12.848a9.8 9.8 0 0 0-2.908-4.115c2.526-2.699 3.451-6.78 2.046-10.514zm-17.144 15.124c-1.264-.688-2.677-1.084-4.13-1.129a10.16 10.16 0 0 0-.012-4.091c.689-.109 1.376-.296 2.051-.569a9.41 9.41 0 0 0 1.89-1.028 9.57 9.57 0 0 0 2.42 3.019c-1.014 1.079-1.767 2.384-2.22 3.798z" class="L"/><ellipse cx="862.601" cy="963.891" rx="10.843" ry="11.237" class="K"/><path d="M343.138 1286.545c3.348-6.243 1.543-14.34-4.033-18.089a11.2 11.2 0 0 0-2.388-1.224c2.399-6.004.466-13.196-4.695-16.665-5.028-3.38-11.398-2.07-15.057 2.795a12.11 12.11 0 0 0-2.078-1.773c-5.576-3.749-12.812-1.73-16.16 4.513-2.501 4.664-2.126 10.366.552 14.519-1.981 1.08-3.715 2.791-4.932 5.06-3.348 6.243-1.546 14.344 4.031 18.093 3.131 2.105 6.789 2.392 9.985 1.126.57 3.619 2.491 6.957 5.528 8.999 5.576 3.749 12.81 1.723 16.158-4.52 1.097-2.045 1.643-4.286 1.676-6.514 4.435.558 8.964-1.752 11.413-6.319zm-27.105-6.385c-.305-1.936-.997-3.798-2.047-5.418 1.444-.784 2.756-1.908 3.833-3.339a12.11 12.11 0 0 0 2.078 1.773 11.2 11.2 0 0 0 2.388 1.224c-.661 1.639-.991 3.369-1.014 5.091-1.776-.227-3.568.013-5.237.669z" class="L"/><ellipse cx="318.201" cy="1276.339" rx="13.339" ry="14.935" class="K"/><use xlink:href="#F" class="L"/><ellipse cx="493.598" cy="1071.182" rx="10.692" ry="11.08" class="K"/><path d="M1011.98 1285.81c3.322-4.164 2.758-10.327-1.259-13.77-.553-.474-1.144-.872-1.762-1.194 2.544-4.106 1.782-9.622-1.937-12.808-3.623-3.104-8.811-2.934-12.232.179a9.69 9.69 0 0 0-1.457-1.559c-4.018-3.443-9.968-2.861-13.29 1.303-2.482 3.11-2.795 7.34-1.117 10.719a9.38 9.38 0 0 0-4.45 3.099c-3.322 4.164-2.761 10.33 1.257 13.773 2.256 1.933 5.125 2.598 7.793 2.066.065 2.726 1.229 5.413 3.417 7.288 4.018 3.443 9.967 2.856 13.29-1.308a9.83 9.83 0 0 0 2.025-4.57c3.455.96 7.291-.171 9.722-3.218zm-20.797-8.051a10 10 0 0 0-1.043-4.229 9.27 9.27 0 0 0 3.395-1.973 9.69 9.69 0 0 0 1.457 1.559c.553.474 1.144.872 1.762 1.194-.699 1.12-1.146 2.348-1.348 3.609-1.383-.387-2.829-.434-4.222-.16z" class="L"/><ellipse cx="993.31" cy="1275.226" rx="10.692" ry="11.08" class="K"/><path d="M583.621 1107.795c1.407-3.83-.448-8.115-4.143-9.573a6.94 6.94 0 0 0-1.546-.413c.862-3.592-.983-7.362-4.404-8.711-3.332-1.315-7.02.118-8.744 3.219a7.12 7.12 0 0 0-1.413-.752c-3.696-1.458-7.833.463-9.24 4.293-1.051 2.861-.281 5.979 1.719 7.982-1.083.818-1.956 1.959-2.468 3.35-1.407 3.83.447 8.118 4.142 9.576 2.075.819 4.292.572 6.084-.484.687 1.941 2.156 3.578 4.169 4.372 3.696 1.458 7.831-.467 9.238-4.297a7.59 7.59 0 0 0 .38-3.795c2.708-.183 5.197-1.965 6.226-4.767zm-16.832-.53c-.368-1.039-.96-1.993-1.743-2.774a7.28 7.28 0 0 0 1.975-2.275 7.12 7.12 0 0 0 1.413.752 6.94 6.94 0 0 0 1.546.413 7.46 7.46 0 0 0-.12 2.933 6.98 6.98 0 0 0-3.071.952z" class="L"/><ellipse cx="567.72" cy="1104.908" rx="8.11" ry="8.405" class="K"/><path d="M590.296 931.93c.945-2.573-.301-5.451-2.783-6.43-.342-.135-.69-.227-1.039-.277.579-2.413-.66-4.945-2.958-5.851-2.238-.883-4.715.079-5.874 2.162a4.78 4.78 0 0 0-.949-.505c-2.482-.979-5.261.311-6.207 2.884-.706 1.922-.189 4.016 1.154 5.361a4.95 4.95 0 0 0-1.658 2.25c-.945 2.573.3 5.453 2.782 6.432 1.394.55 2.883.384 4.086-.325.462 1.304 1.448 2.403 2.8 2.937 2.482.979 5.26-.313 6.205-2.886a5.1 5.1 0 0 0 .255-2.549c1.819-.123 3.491-1.32 4.182-3.202zm-11.306-.356a4.97 4.97 0 0 0-1.171-1.863c.53-.399.985-.915 1.326-1.528a4.78 4.78 0 0 0 .949.505c.342.135.69.227 1.039.277a5.01 5.01 0 0 0-.08 1.97c-.729.048-1.434.271-2.062.639z" class="L"/><ellipse cx="579.616" cy="929.991" rx="5.448" ry="5.646" class="K"/><use xlink:href="#G" class="M"/><ellipse cx="412.721" cy="1109.478" rx="14.638" ry="15.17" class="K"/><path d="M141.057 1411.274c1.492-7.234-2.956-14.348-9.936-15.893a12.39 12.39 0 0 0-2.868-.295c.582-6.654-3.71-12.851-10.171-14.282-6.293-1.394-12.49 2.215-14.742 8.238a12.74 12.74 0 0 0-2.72-.937c-6.98-1.546-13.849 3.062-15.341 10.296-1.114 5.404 1.088 10.745 5.188 13.747-1.714 1.768-2.969 4.052-3.511 6.68-1.492 7.234 2.955 14.353 9.935 15.898 3.919.868 7.808-.206 10.723-2.601 1.742 3.267 4.797 5.767 8.598 6.608 6.98 1.546 13.845-3.068 15.337-10.302.488-2.369.343-4.724-.331-6.877 4.781-1.099 8.748-4.989 9.839-10.281zm-30.166 3.861c-.932-1.748-2.242-3.282-3.847-4.451a13.3 13.3 0 0 0 2.917-4.622 12.74 12.74 0 0 0 2.72.937 12.39 12.39 0 0 0 2.868.295c-.165 1.819.042 3.603.566 5.266-1.916.437-3.7 1.328-5.224 2.575z" class="M"/><ellipse cx="111.927" cy="1410.664" rx="14.638" ry="15.17" class="K"/><path d="M472.599 1188.609c0-6.797-5.314-12.304-11.872-12.304a11.4 11.4 0 0 0-2.632.306c-.71-6.095-5.715-10.809-11.785-10.809-5.913 0-10.812 4.475-11.72 10.336-.843-.196-1.719-.301-2.618-.301-6.558 0-11.877 5.507-11.877 12.304 0 5.077 2.968 9.438 7.208 11.32a12.57 12.57 0 0 0-1.917 6.701c0 6.797 5.314 12.308 11.872 12.308 3.682 0 6.978-1.739 9.153-4.471 2.171 2.589 5.378 4.227 8.95 4.227 6.558 0 11.872-5.512 11.872-12.308 0-2.226-.567-4.313-1.572-6.114 4.093-1.939 6.936-6.223 6.936-11.196zm-26.39 9.471c-1.161-1.385-2.622-2.503-4.282-3.234a12.44 12.44 0 0 0 1.765-4.733c.843.196 1.719.301 2.618.301a11.4 11.4 0 0 0 2.632-.306c.189 1.667.705 3.229 1.484 4.619-1.641.774-3.079 1.93-4.217 3.353z" class="L"/><ellipse cx="446.311" cy="1193.858" rx="13.45" ry="13.939" class="K"/><path d="M990.032 1377.18c4.602-5.232 4.544-13.645-.129-18.797-.644-.71-1.342-1.32-2.082-1.832 3.621-5.249 3.246-12.81-1.078-17.578-4.213-4.645-10.734-5.049-15.349-1.251-.468-.813-1.021-1.582-1.661-2.288-4.673-5.152-12.191-5.091-16.792.14-3.438 3.908-4.275 9.597-2.528 14.376-2.17.533-4.231 1.751-5.903 3.652-4.602 5.232-4.547 13.649.125 18.801 2.624 2.893 6.149 4.143 9.548 3.749-.206 3.698.97 7.479 3.515 10.285 4.673 5.152 12.191 5.084 16.792-.148 1.507-1.713 2.516-3.765 3.02-5.941 4.229 1.722 9.156.659 12.522-3.169zm-25.215-13.441c.11-1.979-.174-3.987-.861-5.853 1.581-.386 3.105-1.139 4.462-2.257.468.813 1.021 1.582 1.661 2.288s1.342 1.32 2.082 1.832a13.6 13.6 0 0 0-2.07 4.721 10.71 10.71 0 0 0-5.275-.732z" class="M"/><ellipse cx="967.749" cy="1360.569" rx="13.45" ry="15.058" class="K"/><use xlink:href="#H" class="M"/><ellipse cx="983.018" cy="1137.589" rx="10.209" ry="10.58" class="K"/><path d="M545.784 1179.221c3.493-3.676 3.449-9.588-.098-13.208-.489-.499-1.019-.928-1.58-1.287 2.748-3.688 2.464-9-.819-12.351-3.198-3.264-8.148-3.548-11.651-.879-.356-.571-.775-1.112-1.261-1.608a8.79 8.79 0 0 0-12.747.099c-2.609 2.746-3.245 6.743-1.919 10.101-1.647.375-3.212 1.23-4.481 2.566-3.493 3.676-3.452 9.59.095 13.21 1.992 2.033 4.667 2.911 7.248 2.634-.156 2.598.736 5.255 2.668 7.227a8.79 8.79 0 0 0 12.747-.104c1.144-1.204 1.91-2.646 2.292-4.174 3.21 1.21 6.95.463 9.505-2.226zm-19.14-9.444c.084-1.39-.132-2.801-.654-4.112 1.2-.271 2.357-.801 3.387-1.586.356.571.775 1.112 1.261 1.608s1.019.928 1.58 1.287a9.2 9.2 0 0 0-1.571 3.317c-1.285-.487-2.657-.656-4.004-.514z" class="M"/><ellipse cx="528.869" cy="1167.55" rx="10.209" ry="10.58" class="K"/><path d="M912.206 1101.031c2.871-3.021 2.835-7.879-.08-10.854a7.43 7.43 0 0 0-1.299-1.058c2.259-3.031 2.025-7.397-.673-10.15-2.628-2.682-6.696-2.916-9.575-.723-.292-.47-.637-.914-1.036-1.321-2.915-2.975-7.605-2.94-10.476.081-2.144 2.257-2.667 5.541-1.577 8.301a7.3 7.3 0 0 0-3.683 2.109c-2.871 3.021-2.837 7.881.078 10.856 1.637 1.67 3.836 2.393 5.957 2.165-.129 2.135.605 4.319 2.193 5.939 2.915 2.975 7.605 2.936 10.476-.085.94-.989 1.57-2.174 1.884-3.43 2.638.995 5.712.38 7.812-1.83zm-15.73-7.761a7.88 7.88 0 0 0-.537-3.379 7.22 7.22 0 0 0 2.784-1.303c.292.47.637.914 1.036 1.321a7.43 7.43 0 0 0 1.299 1.058 7.58 7.58 0 0 0-1.291 2.726c-1.056-.4-2.183-.539-3.291-.423z" class="M"/><ellipse cx="898.305" cy="1091.439" rx="8.39" ry="8.695" class="K"/><path d="M806.078 1001.551c2.032-4.003.549-8.953-3.314-11.059a7.7 7.7 0 0 0-1.641-.665c1.404-3.817-.134-8.201-3.709-10.15-3.483-1.899-7.706-.836-9.993 2.324a7.95 7.95 0 0 0-1.452-1.018c-3.863-2.106-8.642-.57-10.674 3.433-1.518 2.99-1.074 6.512.861 8.982-1.291.747-2.394 1.877-3.133 3.331-2.032 4.003-.55 8.956 3.312 11.062 2.169 1.183 4.629 1.217 6.727.306.504 2.222 1.904 4.217 4.007 5.364 3.863 2.106 8.64.566 10.672-3.437.665-1.311.956-2.722.902-4.105 2.99.172 5.946-1.438 7.433-4.366zm-18.374-2.896a8.25 8.25 0 0 0-1.555-3.279c.941-.543 1.782-1.291 2.455-2.221a7.95 7.95 0 0 0 1.452 1.018 7.7 7.7 0 0 0 1.641.665c-.387 1.042-.55 2.128-.507 3.197-1.198-.071-2.39.148-3.486.621z" class="M"/><ellipse cx="789.027" cy="996.201" rx="8.951" ry="9.276" class="K"/><path d="M911.805 901.096c0-3.445-2.694-6.237-6.018-6.237a5.77 5.77 0 0 0-1.334.155c-.36-3.089-2.897-5.479-5.974-5.479-2.997 0-5.481 2.269-5.941 5.239-.428-.099-.871-.153-1.327-.153-3.324 0-6.02 2.791-6.02 6.237 0 2.574 1.504 4.784 3.654 5.738-.614.978-.972 2.145-.972 3.397 0 3.445 2.694 6.239 6.018 6.239 1.867 0 3.537-.881 4.64-2.266 1.1 1.312 2.726 2.143 4.537 2.143 3.324 0 6.018-2.794 6.018-6.239 0-1.128-.287-2.186-.797-3.099 2.075-.983 3.516-3.155 3.516-5.675zm-13.377 4.801c-.589-.702-1.329-1.269-2.17-1.639a6.31 6.31 0 0 0 .895-2.399c.428.099.871.153 1.327.153a5.77 5.77 0 0 0 1.334-.155 6.21 6.21 0 0 0 .752 2.341c-.832.392-1.561.978-2.138 1.7z" class="M"/><ellipse cx="898.48" cy="903.756" rx="6.818" ry="7.065" class="K"/><path d="M818.902 900.766c0-2.624-2.052-4.75-4.584-4.75-.349 0-.689.041-1.016.118-.274-2.353-2.206-4.173-4.55-4.173-2.283 0-4.174 1.728-4.525 3.991-.326-.076-.664-.116-1.011-.116-2.532 0-4.585 2.126-4.585 4.75 0 1.96 1.146 3.644 2.783 4.37a4.85 4.85 0 0 0-.74 2.587c0 2.624 2.052 4.752 4.584 4.752 1.422 0 2.694-.671 3.534-1.726.838.999 2.077 1.632 3.456 1.632 2.532 0 4.584-2.128 4.584-4.752 0-.859-.219-1.665-.607-2.36 1.58-.749 2.678-2.403 2.678-4.323zm-10.189 3.657c-.448-.535-1.012-.966-1.653-1.248.342-.542.578-1.162.682-1.827.326.076.664.116 1.011.116s.689-.041 1.016-.118a4.72 4.72 0 0 0 .573 1.783c-.633.299-1.189.745-1.628 1.295z" class="L"/><ellipse cx="808.753" cy="902.792" rx="5.193" ry="5.382" class="K"/><use xlink:href="#I" class="M"/><ellipse cx="542.508" cy="1018.97" rx="7.386" ry="7.655" class="K"/><path d="M652.497 909.842c1.181-3.526-.619-7.375-4.022-8.599a6.27 6.27 0 0 0-1.418-.332c.691-3.295-1.087-6.674-4.236-7.807-3.068-1.103-6.387.304-7.877 3.175-.404-.259-.84-.477-1.306-.645-3.403-1.224-7.119.641-8.3 4.167-.882 2.634-.1 5.451 1.773 7.218-.964.775-1.73 1.838-2.159 3.119-1.181 3.526.618 7.378 4.021 8.602 1.911.687 3.922.4 5.526-.611.676 1.748 2.056 3.197 3.909 3.863 3.403 1.224 7.117-.644 8.298-4.171.387-1.155.455-2.344.247-3.465 2.46-.242 4.68-1.935 5.544-4.514zm-15.338-.011a6.73 6.73 0 0 0-1.66-2.477c.703-.563 1.3-1.282 1.738-2.126.404.259.84.477 1.306.645a6.33 6.33 0 0 0 1.418.333c-.192.9-.195 1.807-.033 2.673-.986.095-1.933.427-2.771.953z" class="M"/><ellipse cx="637.946" cy="907.66" rx="7.386" ry="7.655" class="K"/><g class="L"><ellipse cx="621.576" cy="711.371" rx="14.17" ry="7.541"/><ellipse cx="752.059" cy="707.889" rx="14.17" ry="7.541"/></g><g class="O"><path d="M786.149 261.383c3.761-2.886 8.219-1.824 11.974.52 4.483 2.799 8.114 7.106 10.635 11.712 1.274 2.327 2.265 4.819 2.648 7.455.126.87 1.13 1.15 1.845 1.048 6.359-.912 12.253-3.835 18.626-4.644 3.084-.391 6.244-.167 9.131 1.047 3.917 1.647 6.969 4.785 9.526 8.089.5.646 1.594.516 2.121 0 .639-.625.493-1.484 0-2.121-3.988-5.153-9.176-9.342-15.832-10.076-5.296-.585-10.521 1.106-15.52 2.631-2.909.888-5.833 1.749-8.851 2.181l1.845 1.048c-.8-5.515-4.029-10.687-7.62-14.826-3.572-4.117-8.429-8.066-14.009-8.773-2.871-.364-5.73.351-8.034 2.119-.647.497-.975 1.285-.538 2.052.362.637 1.411 1.03 2.052.538h0zm-36.666-66.712c7.317-3.614 16.672 2.902 18.244 10.268.21.985 1.397 1.327 2.203.896 8.325-4.444 19.581-1.738 24.861 6.121 1.071 1.594 3.671.094 2.59-1.514-6.212-9.247-19.14-12.443-28.966-7.198l2.203.896c-2.005-9.399-13.661-16.501-22.651-12.061-1.731.855-.213 3.443 1.514 2.59h0zm92.436-13.036c3.401.033 6.769.949 9.008 3.656 1.693 2.047 2.435 4.705 2.786 7.29.082.607.857 1.141 1.446 1.101 4.012-.271 7.984-1.116 12.014-1.131 3.361-.012 6.759.74 7.928 4.278.603 1.825 3.501 1.043 2.893-.798-3.176-9.612-15.43-5.851-22.835-5.35l1.446 1.101c-.435-3.209-1.561-6.356-3.728-8.811-2.769-3.138-6.895-4.298-10.959-4.337-1.931-.019-1.933 2.981 0 3h0z"/></g></g></svg>