<svg xmlns="http://www.w3.org/2000/svg" xmlns:xlink="http://www.w3.org/1999/xlink" viewBox="0 0 808 195" xmlns:v="https://vecta.io/nano"><style><![CDATA[.Z{stroke-width:2}.a{fill:#312f30}.b{stroke-width:3}.c{stroke-width:5}.d{fill:#f6e1ce}.e{stroke-miterlimit:10}.f{stroke:#312f30}.g{stroke-width:.25}.h{fill:#e79da9}.i{stroke-width:.75}]]></style><path d="M789.44 0H574.98c-.26 6.67-5.74 12-12.47 12s-12.22-5.33-12.48-12H18.56C8.31 0 0 8.31 0 18.56v157.88C0 186.69 8.31 195 18.56 195h531.47c0-.17-.03-.33-.03-.5 0-6.9 5.6-12.5 12.5-12.5s12.5 5.6 12.5 12.5c0 .17-.02.33-.03.5h214.46c10.25 0 18.56-8.31 18.56-18.56V18.56A18.55 18.55 0 0 0 789.44 0z" fill="#efb541"/><g fill="#35a293"><circle cx="636.21" cy="34.43" r="20.79"/><circle cx="660.69" cy="62.12" r="20.79"/><circle cx="644.23" cy="90.3" r="20.79"/><circle cx="609.06" cy="82.37" r="20.79"/><circle cx="605.59" cy="47.75" r="20.79"/></g><circle cx="631.39" cy="64.56" r="17.34" class="h"/><g fill="#2b729b"><circle cx="167.21" cy="99.43" r="20.79"/><circle cx="191.69" cy="127.12" r="20.79"/><circle cx="175.23" cy="155.3" r="20.79"/><circle cx="140.06" cy="147.37" r="20.79"/><circle cx="136.59" cy="112.75" r="20.79"/></g><g class="d"><circle cx="162.39" cy="129.56" r="17.34"/><circle cx="704.56" cy="128.09" r="15.1"/><circle cx="722.35" cy="148.2" r="15.1"/><circle cx="710.39" cy="168.67" r="15.1"/><circle cx="684.85" cy="162.92" r="15.1"/><circle cx="682.32" cy="137.77" r="15.1"/></g><g class="h"><circle cx="701.07" cy="149.98" r="12.6"/><circle cx="459.38" cy="55.68" r="31.92"/><circle cx="515.41" cy="64.8" r="31.92"/><circle cx="523.23" cy="114.32" r="31.92"/><circle cx="473.71" cy="139.08" r="31.92"/><circle cx="435.92" cy="101.29" r="31.92"/></g><circle cx="482.95" cy="96.19" r="26.63" fill="#2b729b"/><g class="a"><path d="M789.01 17.53h.76c.07 1.03.19 1.74.35 2.15s.55.71 1.16.91v1.12h-7.84V20.2h5.57v-2.66zm-3.8 10.16c.5.35.96 1.03 1.37 2.05l.61 1.51c.28.68.51 1.15.7 1.43.3.43.65.65 1.04.65a1.26 1.26 0 0 0 1.09-.59c.27-.39.4-.92.4-1.58 0-.97-.26-1.65-.77-2.02-.27-.2-.66-.31-1.14-.33v-1.44c.68.02 1.24.2 1.68.54.76.62 1.14 1.7 1.14 3.26 0 1.29-.24 2.24-.73 2.84s-1.03.9-1.63.9c-.63 0-1.17-.32-1.62-.96-.26-.37-.58-1.03-.94-1.98l-.42-1.08c-.2-.52-.39-.92-.57-1.21-.32-.53-.67-.86-1.06-.99v6.17h-.93v-7.75c.68.05 1.27.25 1.77.6z"/><use xlink:href="#B"/><path d="M783.44 53.15h1.92V48.2h.97l5 5.17v1.2h-5.1v1.66h-.86v-1.66h-1.92v-1.42zm2.79-.02h3.57l-3.57-3.62v3.62z"/><use xlink:href="#C"/><use xlink:href="#D"/><use xlink:href="#E"/><use xlink:href="#F"/><path d="M785.34 102.93c-.55.04-.92.34-1.13.91a2.76 2.76 0 0 0-.17.98c0 .68.2 1.26.59 1.74s1.19.82 2.4 1.02a2.56 2.56 0 0 1-.73-1.17 5.23 5.23 0 0 1-.21-1.5c0-1.09.24-1.95.71-2.58s1.08-.95 1.82-.95 1.34.31 1.88.94.81 1.55.81 2.77c0 1.65-.52 2.78-1.55 3.41-.57.35-1.28.52-2.13.52-.96 0-1.82-.21-2.56-.62-1.24-.69-1.86-1.86-1.86-3.5 0-1.1.2-1.94.6-2.52.4-.57.91-.86 1.52-.86v1.44zm2 3.7c.26.47.71.7 1.35.7.58 0 1.01-.21 1.29-.63s.43-.95.43-1.6c0-.69-.16-1.25-.49-1.65s-.76-.61-1.3-.61c-.51 0-.92.18-1.22.54s-.45.93-.45 1.71c0 .56.13 1.08.39 1.54z"/><use xlink:href="#F" y="21.2"/><use xlink:href="#E" y="42.4"/><use xlink:href="#D" y="63.6"/><use xlink:href="#C" y="84.8"/><path d="M783.44,159.15h1.92v-4.95h.97l5,5.17v1.2h-5.1v1.66h-.86v-1.66h-1.92v-1.42Zm2.79-.02h3.57l-3.57-3.62v3.62Z"/><use xlink:href="#B" y="127.2"/><g class="e f"><path d="M740 16.43h39.48M740 18.62h39.48M740 20.82h39.48M740 23.02h39.48M740 25.21h39.48M740 29.61h39.48M740 38.39h39.48M740 40.59h39.48M740 44.98h39.48M740 49.37h39.48M740 51.57h39.48M740 53.77h39.48M740 55.96h39.48M740 58.16h39.48M740 62.55h39.48M740 64.75h39.48M740 66.95h39.48M740 69.14h39.48M740 73.53h39.48M740 75.73h39.48M740 84.52h39.48M740 88.91h39.48M740 93.3h39.48M740 95.5h39.48M740 97.7h39.48M740 99.89h39.48m-39.48 4.4h39.48M740 106.48h39.48m-39.48 2.2h39.48M740 110.87h39.48m-39.48 2.2h39.48M740 117.46h39.48M740 124.05h39.48m-39.48 2.2h39.48M740 132.84h39.48M740 137.23h39.48m-39.48 2.2h39.48m-39.48 2.2h39.48M740 146.02h39.48M740 148.21h39.48m-39.48 2.2h39.48M740 154.8h39.48M740 157h39.48M740 161.39h39.48m-39.48 2.2h39.48m-39.48 2.2h39.48M740 167.98h39.48M740 174.57h39.48"/><path d="M740 18.62h39.48"/><path d="M740 20.82h39.48" class="b"/><path d="M740 23.02h39.48M740 40.59h39.48"/><path d="M740 44.98h39.48" class="i"/><path d="M740 49.37h39.48M740 51.57h39.48"/><path d="M740 53.77h39.48" stroke-width="6"/><path d="M740 55.96h39.48M740 58.16h39.48M740 62.55h39.48"/><path d="M740 64.75h39.48" class="b"/><path d="M740 66.95h39.48"/><path d="M740 73.53h39.48" class="Z"/><path d="M740 75.73h39.48M740 84.52h39.48M740 88.91h39.48M740 95.5h39.48"/><path d="M740 97.7h39.48" stroke-width="4"/><path d="M740 99.89h39.48"/><path d="M740 104.29h39.48" class="Z"/><path d="M740 108.68h39.48"/><path d="M740 110.87h39.48" class="b"/><path d="M740 137.23h39.48"/><path d="M740 139.43h39.48" class="Z"/><path d="M740 141.63h39.48"/><path d="M740 148.21h39.48" class="c"/><path d="M740 150.41h39.48"/><path d="M740 157h39.48" class="Z"/><path d="M740 161.39h39.48"/><path d="M740 163.59h39.48" class="c"/><path d="M740 165.79h39.48M740 167.98h39.48"/></g><path d="M72.12 144.02v1.02l1.39.34v-1.04l1.88.47v1.04l1.72.4v1.86l-1.72-.4v1l1.72.4v1.87l-1.72-.43v1.04l-1.88-.47v-1.02l-1.39-.34v1.04l-1.88-.45v-1.04l-1.77-.43v-1.84l1.77.42v-1l-1.77-.44v-1.85l1.77.44v-1.04l1.88.45zm0 3.89l1.39.34v-1.02l-1.39-.35v1.03zm7.1-10.03v2.27H68.78v1.13h-2.61v-3.4h13.05zm-9.14-10.9c.54 0 1.05.09 1.52.27.48.18.89.42 1.25.73a3.36 3.36 0 0 1 .84 1.08 2.98 2.98 0 0 1 .31 1.32v1.14a.92.92 0 0 0 .1.44c.07.13.16.26.28.36s.26.18.41.24a1.44 1.44 0 0 0 .51.09h1.3v-5.36h2.61v7.63H75.3c-.54 0-1.05-.09-1.52-.27-.48-.18-.89-.42-1.25-.73a3.66 3.66 0 0 1-.84-1.08 2.98 2.98 0 0 1-.31-1.32v-1.14a.92.92 0 0 0-.1-.44c-.07-.14-.16-.26-.28-.36a1.44 1.44 0 0 0-.93-.33 1.44 1.44 0 0 0-.51.09c-.16.06-.3.14-.41.24-.12.1-.21.22-.28.36s-.1.28-.1.44v4.05h-2.61v-4.05a2.85 2.85 0 0 1 .31-1.32 3.66 3.66 0 0 1 .84-1.08c.35-.31.77-.55 1.24-.73s.98-.27 1.52-.27zm5.22-10.47c.54 0 1.05.09 1.52.27s.89.42 1.24.73.64.67.84 1.08a2.85 2.85 0 0 1 .31 1.32v4.54H76.6v-4.54a.92.92 0 0 0-.1-.44c-.07-.14-.16-.26-.28-.36s-.26-.18-.41-.24a1.44 1.44 0 0 0-.51-.09 1.44 1.44 0 0 0-.51.09c-.16.06-.3.14-.41.24s-.21.22-.28.36-.1.29-.1.44V123h-2.61v-3.09a.92.92 0 0 0-.1-.44c-.07-.14-.16-.26-.28-.36a1.44 1.44 0 0 0-.93-.33 1.44 1.44 0 0 0-.51.09c-.16.06-.3.14-.41.24s-.21.22-.28.36-.1.29-.1.44v4.54h-2.61v-4.54a2.85 2.85 0 0 1 .31-1.32 3.66 3.66 0 0 1 .84-1.08c.35-.31.77-.55 1.24-.73s.98-.27 1.52-.27c.48 0 .95.08 1.4.23s.86.37 1.22.65a4.03 4.03 0 0 1 1.21-.65c.45-.15.92-.23 1.4-.23zm1.31-11.44v1.13h2.61v2.27h-2.61v5.67l-10.44-1.26v-2.27l7.84.99v-3.12h-6.53v-2.27h6.53v-1.13h2.6zm-1.5-10.73c.64 0 1.21.1 1.72.29.51.2.94.46 1.29.78.35.33.62.7.81 1.13a3.3 3.3 0 0 1 .28 1.35v4.57H76.6v-4.57c0-.15-.03-.31-.08-.46s-.14-.29-.26-.42c-.12-.12-.28-.22-.46-.3s-.42-.11-.68-.11c-.24 0-.46.04-.64.11a1.36 1.36 0 0 0-.46.3 1.19 1.19 0 0 0-.28.42c-.06.16-.1.31-.1.46v4.57l-7.46-.66v-7h2.61v4.96l2.24.21V97.9a3.3 3.3 0 0 1 .28-1.35c.19-.43.46-.81.81-1.13.35-.33.79-.59 1.29-.78.51-.2 1.08-.29 1.71-.29zm-.68-11.11c.7 0 1.37.11 1.99.33s1.17.52 1.64.91a4.3 4.3 0 0 1 1.11 1.37 3.73 3.73 0 0 1 .41 1.72 3.84 3.84 0 0 1-.41 1.74 4.64 4.64 0 0 1-1.11 1.43 5.25 5.25 0 0 1-1.64.96c-.62.23-1.29.35-1.99.35a14.13 14.13 0 0 1-2.45-.21c-.8-.14-1.55-.35-2.27-.62-.71-.27-1.37-.61-1.97-1-.6-.4-1.13-.84-1.57-1.34v-3.06c.24.32.5.62.79.92a9.69 9.69 0 0 0 .94.86 10.09 10.09 0 0 0 1.06.75c.37.23.76.44 1.16.62-.18-.23-.33-.47-.45-.74s-.19-.54-.19-.82c0-.64.12-1.21.37-1.73s.59-.95 1.03-1.31.96-.63 1.57-.83c.61-.19 1.27-.29 1.99-.29zm0 2.27a3.14 3.14 0 0 0-.98.15 2.59 2.59 0 0 0-.81.42 2.01 2.01 0 0 0-.55.65c-.13.25-.2.53-.2.85s.07.59.2.85a1.88 1.88 0 0 0 .55.64c.23.18.5.31.81.41.31.09.63.14.98.14s.65-.05.96-.15a2.59 2.59 0 0 0 .81-.42 2.01 2.01 0 0 0 .56-.64 1.68 1.68 0 0 0 .21-.83 1.9 1.9 0 0 0-.2-.85 2.01 2.01 0 0 0-.55-.65c-.23-.18-.51-.32-.81-.42a3.19 3.19 0 0 0-.98-.15zm-8.26-11.83l13.05 3.87v2.43l-10.44-3.19v4.82h-2.61v-7.94zm9.32-10.61c.59 0 1.13.12 1.63.35a3.93 3.93 0 0 1 1.29.95c.36.4.64.87.85 1.41.2.54.31 1.11.31 1.72a4.65 4.65 0 0 1-.31 1.72c-.2.54-.49 1.01-.85 1.41a3.93 3.93 0 0 1-1.29.95c-.5.23-1.04.35-1.63.35a4.21 4.21 0 0 1-1-.12 3.8 3.8 0 0 1-.91-.34 3.94 3.94 0 0 1-.79-.54c-.24-.21-.44-.45-.61-.71a3.11 3.11 0 0 1-.56.44c-.21.13-.44.24-.67.33-.24.09-.48.16-.73.21a3.81 3.81 0 0 1-.75.07c-.51 0-.99-.1-1.43-.3-.45-.2-.84-.47-1.17-.81-.34-.34-.6-.74-.8-1.2-.19-.46-.29-.95-.29-1.46s.1-1.01.29-1.47a3.81 3.81 0 0 1 .8-1.21c.34-.34.73-.62 1.17-.81a3.46 3.46 0 0 1 1.43-.3c.25 0 .5.03.75.08s.5.12.74.21a3.89 3.89 0 0 1 .68.33c.21.13.4.28.57.44a3.37 3.37 0 0 1 .61-.7c.24-.21.5-.39.78-.54s.59-.26.91-.34.65-.12.99-.12zm-5.75 2.87a1.53 1.53 0 0 0-.6.12 1.51 1.51 0 0 0-.82.82 1.53 1.53 0 0 0-.12.6 1.58 1.58 0 0 0 .12.61 1.51 1.51 0 0 0 .82.82c.19.08.38.12.6.12s.41-.04.59-.12.34-.19.47-.33a1.66 1.66 0 0 0 .32-.49c.08-.19.12-.39.12-.61s-.04-.41-.12-.6a1.66 1.66 0 0 0-.32-.49c-.13-.14-.29-.25-.47-.33s-.38-.12-.59-.12zm5.68-.62a1.99 1.99 0 0 0-.81.17c-.25.11-.47.27-.66.47s-.34.43-.45.7-.16.55-.16.85.05.58.16.85a2.17 2.17 0 0 0 .45.69c.19.2.41.35.66.47a1.99 1.99 0 0 0 .81.17 1.91 1.91 0 0 0 .8-.17c.24-.11.45-.27.63-.47s.31-.43.41-.69.15-.55.15-.85-.05-.58-.15-.85-.24-.5-.41-.7c-.18-.2-.39-.35-.63-.47a1.91 1.91 0 0 0-.8-.17zM70.96 52c.84 0 1.66.07 2.45.22.8.14 1.55.35 2.26.63.71.27 1.37.61 1.97 1s1.13.84 1.57 1.34v3.06a9.73 9.73 0 0 0-.79-.93 9.69 9.69 0 0 0-.94-.86 10.09 10.09 0 0 0-1.06-.75 9.78 9.78 0 0 0-1.15-.62c.18.23.33.48.45.74a1.96 1.96 0 0 1 .19.81c0 .64-.12 1.22-.37 1.73a3.87 3.87 0 0 1-1.03 1.31c-.44.36-.96.64-1.57.83s-1.27.29-1.99.29-1.37-.11-2-.33-1.18-.52-1.65-.91c-.47-.38-.84-.84-1.11-1.37a3.73 3.73 0 0 1-.41-1.72c0-.62.14-1.21.41-1.75a4.64 4.64 0 0 1 1.11-1.43c.47-.41 1.02-.73 1.65-.96a5.76 5.76 0 0 1 2-.35zm0 2.43a3.06 3.06 0 0 0-.96.15 2.76 2.76 0 0 0-.82.42c-.24.18-.42.4-.56.65a1.69 1.69 0 0 0-.21.84 1.69 1.69 0 0 0 .21.84c.14.25.32.47.55.64a2.38 2.38 0 0 0 .81.41c.31.09.64.14.99.14s.67-.05.98-.14.57-.23.81-.41c.23-.18.41-.39.55-.64.13-.25.2-.53.2-.84s-.07-.59-.2-.85-.32-.47-.55-.65a2.59 2.59 0 0 0-.81-.42 3.14 3.14 0 0 0-.98-.15z"/></g><g fill="none" class="e f"><path d="M61.14 143.54v-86.8c0-7.86 4.27-14.23 9.53-14.23h0V22.58c0-1.27-.69-2.31-1.54-2.31H15.71c-.84 0-1.52 1.02-1.52 2.27v154.14c0 1.28.7 2.32 1.56 2.32h53.39c.85 0 1.54-1.03 1.54-2.3v-18.94h0c-5.26 0-9.53-6.37-9.53-14.23z" class="c"/><path d="M56.58 169.75H18.43m38.15-1.95H18.43m38.15-1.95H18.43m38.15-1.94H18.43m38.15-1.95H18.43m38.15-3.9H18.43m38.15-7.79H18.43m38.15-1.94H18.43m38.15-3.9H18.43m38.15-3.89H18.43m38.15-1.95H18.43m38.15-1.95H18.43m38.15-1.95H18.43m38.15-1.95H18.43m38.15-3.89H18.43m38.15-1.95H18.43m38.15-1.95H18.43m38.15-1.94H18.43m38.15-3.9H18.43m38.15-1.95H18.43m38.15-7.79H18.43m38.15-3.89H18.43m38.15-3.9H18.43m38.15-1.94H18.43m38.15-1.95H18.43m38.15-1.95H18.43m38.15-3.89H18.43m38.15-1.95H18.43m38.15-1.95H18.43M56.58 86H18.43m38.15-1.95H18.43m38.15-3.89H18.43m38.15-5.84H18.43m38.15-1.95H18.43m38.15-5.84H18.43m38.15-3.9H18.43m38.15-1.95H18.43m38.15-1.94H18.43m38.15-3.9H18.43m38.15-1.95H18.43m38.15-1.94H18.43m38.15-3.9H18.43m38.15-1.95H18.43m38.15-3.89H18.43m38.15-1.95H18.43m38.15-1.95H18.43m38.15-1.94H18.43m38.15-5.85H18.43"/><path d="M56.58 167.8H18.43"/><path d="M56.58 165.85H18.43" class="b"/><path d="M56.58 163.91H18.43"/><path d="M56.58 150.27H18.43" class="Z"/><path d="M56.58 148.33H18.43"/><path d="M56.58 144.43H18.43" class="i"/><path d="M56.58 140.54H18.43m38.15-1.95H18.43"/><path d="M56.58 136.64H18.43" stroke-width="6"/><path d="M56.58 134.69H18.43m38.15-1.95H18.43m38.15-3.89H18.43"/><path d="M56.58 126.9H18.43" class="b"/><path d="M56.58 124.95H18.43"/><path d="M56.58 119.11H18.43" class="Z"/><path d="M56.58 117.16H18.43m38.15-7.79H18.43m38.15-3.89H18.43m38.15-5.84H18.43"/><path d="M56.58 97.69H18.43" stroke-width="4"/><path d="M56.58 95.74H18.43"/><path d="M56.58 91.85H18.43" class="Z"/><path d="M56.58 87.95H18.43"/><path d="M56.58 86H18.43" class="b"/><path d="M56.58 84.05H18.43"/><path d="M56.58 72.37H18.43" class="i"/><path d="M56.58 62.63H18.43"/><path d="M56.58 60.68H18.43" class="Z"/><path d="M56.58 58.74H18.43"/><path d="M56.58 52.89H18.43" class="c"/><path d="M56.58 50.95H18.43"/><path d="M56.58 45.1H18.43" class="Z"/><path d="M56.58 41.21H18.43"/><path d="M56.58 39.26H18.43" class="c"/><path d="M56.58 37.31H18.43m38.15-1.94H18.43"/></g><g class="a"><path d="M680.08,182.11v3.34h-37.95v-11.68h7.6v8.34h7.6v-5h7.6v5h15.17Z"/><use xlink:href="#G"/><path d="M680.08 151.17v7.26h-7.2v-7.26c0-.22-.18-.4-.53-.56-.35-.15-.78-.23-1.27-.23s-.85.08-1.01.23c-.16.16-.24.34-.24.56v3.3c0 .55-.24 1.07-.71 1.55-.48.48-1.12.9-1.95 1.26-.82.36-1.78.64-2.87.84-1.09.21-2.27.31-3.52.31s-2.43-.1-3.52-.31-2.05-.49-2.86-.84c-.81-.36-1.45-.78-1.92-1.26s-.7-1-.7-1.55v-6.43h7.2v6.43c0 .22.18.4.53.56s.78.23 1.27.23.95-.08 1.31-.23c.36-.16.54-.34.54-.56v-3.3c0-.54.21-1.05.62-1.54.41-.48.99-.9 1.73-1.26s1.63-.64 2.67-.85 2.18-.31 3.41-.31a19.59 19.59 0 0 1 3.51.31c1.09.21 2.04.49 2.86.85s1.46.78 1.93 1.26.7.99.7 1.54z"/><use xlink:href="#H"/><use xlink:href="#I"/><path d="M680.08 120.93l-28.35 4.75v-3.62l17.68-2.72-17.68-2.71V113l28.35 4.75v3.19zm0-22.52v.77l-3.89 1.23c.62.3 1.2.62 1.73.96.54.34 1.01.69 1.4 1.06.4.37.71.75.94 1.15a2.32 2.32 0 0 1 .34 1.19c0 .88-.33 1.7-1.01 2.47-.67.77-1.64 1.45-2.92 2.02-1.28.58-2.84 1.03-4.7 1.37-1.85.33-3.96.5-6.33.5-2.21 0-4.23-.17-6.07-.5s-3.43-.79-4.75-1.37-2.35-1.25-3.08-2.02-1.1-1.6-1.1-2.47c0-.4.11-.8.34-1.2s.55-.78.95-1.15c.41-.37.88-.73 1.43-1.06.55-.34 1.14-.65 1.77-.95l-3.36-1.23v-.77h28.29zm-14.42 3.2a15.8 15.8 0 0 0-2.87.25c-.93.17-1.75.39-2.46.68s-1.29.62-1.72 1.01-.65.79-.65 1.23.17.84.5 1.23.83.72 1.48 1 1.46.51 2.42.67 2.06.24 3.29.24 2.33-.08 3.3-.24c.96-.16 1.77-.39 2.42-.67s1.15-.62 1.48-1c.34-.38.5-.79.5-1.23s-.22-.84-.65-1.23c-.43-.38-1.01-.72-1.72-1.01s-1.54-.51-2.46-.68c-.93-.17-1.88-.25-2.87-.25zm14.42-10.49v3.2h-39.62v-3.2h39.62z"/><use xlink:href="#H" y="-65.16"/><use xlink:href="#I" y="-65.15"/><path d="M657.37 48.42l5.32 2.33c-.74.12-1.41.28-2 .48s-1.09.43-1.5.68-.71.53-.93.82c-.21.29-.32.6-.32.91 0 .43.2.84.61 1.23.41.38.98.72 1.71 1s1.6.51 2.61.67 2.12.25 3.33.25c.99 0 1.91-.08 2.78-.25a10.8 10.8 0 0 0 2.28-.67c.65-.28 1.17-.62 1.54-1s.56-.79.56-1.23c0-.31-.1-.61-.29-.9s-.47-.56-.83-.81-.8-.48-1.32-.67c-.52-.2-1.1-.36-1.73-.48l5.32-2.33c.95.29 1.81.63 2.57 1.02a9.6 9.6 0 0 1 1.93 1.25c.53.45.93.92 1.2 1.41s.41 1 .41 1.52c0 .88-.38 1.7-1.12 2.47-.75.77-1.78 1.45-3.08 2.02-1.31.58-2.83 1.03-4.58 1.37-1.75.33-3.62.5-5.61.5-2.17 0-4.2-.17-6.09-.5s-3.53-.79-4.94-1.37c-1.4-.58-2.51-1.25-3.32-2.02s-1.22-1.6-1.22-2.47c0-.52.15-1.03.45-1.53s.74-.98 1.31-1.43 1.28-.87 2.1-1.26 1.78-.72 2.86-1zM680.08 42v3.2h-39.62V42h24.99l-13.66-4.74v-3.65l11.8 4.13 16.49-4.13v3.65l-10.3 2.53 6.67 2.21h3.63z"/><use xlink:href="#G" y="-141.12"/><path d="M680.08 10.65c0 .77-.33 1.49-.99 2.16s-1.57 1.27-2.73 1.77c-1.16.51-2.5.91-4.04 1.2s-3.18.44-4.92.44h-8.42v1.55h-7.2v-1.55h-11.33v-3.17h11.33V8.23h7.2v4.82h8.42c.76 0 1.47-.06 2.13-.19.66-.12 1.24-.29 1.73-.51s.89-.47 1.18-.77.44-.61.44-.94V8.23h7.2v2.41z"/><use xlink:href="#J"/><path d="M709.57 164.12v.87h-11.22-.85c-.27 0-.55 0-.83-.01l-.89-.03a2.91 2.91 0 0 1 .46.32l.48.44 1.4 1.3-.65.52-2.89-2.67v-.73h14.99zm-15.01-8.88l15.03 4.67v.85l-15.03-4.71v-.8z"/><use xlink:href="#J" y="-21.82"/><use xlink:href="#K"/><path d="M704.37,135.2h-1v-3.88h1v3.88Z"/><use xlink:href="#J" y="-49.59"/><path d="M709.57 117.44l-14.06-3.87v4.95h-.93v-5.82h.78l14.21 3.83v.9zm-15.01-11.79l15.03 4.67v.85l-15.03-4.71v-.8z"/><use xlink:href="#J" y="-71.41"/><use xlink:href="#K" y="-49.59"/><use xlink:href="#L"/><use xlink:href="#J" y="-98.04"/><path d="M709.57 64.27v5.83h-.74l-4.45-2.61-2.13-1.13c-.66-.31-1.31-.54-1.95-.69s-1.33-.23-2.06-.23c-1 0-1.74.18-2.23.54a1.71 1.71 0 0 0-.73 1.45c0 .38.08.74.24 1.08s.38.65.66.94l-.73.47c-.23-.24-.42-.49-.58-.75s-.29-.54-.37-.83c-.09-.29-.13-.61-.13-.94 0-.59.15-1.09.45-1.51s.74-.75 1.31-.97 1.27-.34 2.08-.34 1.61.09 2.33.27a10.78 10.78 0 0 1 2.1.76l2.13 1.17 3.83 2.29h.05V64.3h.92z"/><use xlink:href="#L" y="-22.96"/><use xlink:href="#M"/><path d="M225.03 129.8l3.19-17.58.17-.84.17-.83.22-1.1c-.11.15-.24.3-.37.45a6.67 6.67 0 0 1-.46.47l-2.32 2.26-.65-.95 4.11-4.01h1.2l-4.02 22.13h-1.24zm9.21 0l10.12-22.13h1.16l-10.14 22.13h-1.15z"/><use xlink:href="#M" x="38.86"/><use xlink:href="#N"/><path d="M283.22,122.08l.14-1.38h5.6l-.14,1.38h-5.6Z"/><use xlink:href="#M" x="93.12"/><path d="M316.1 129.8l8.33-20.81h-6.74l.22-1.32h7.94l-.12 1.17-8.33 20.97h-1.3zm11.27 0l10.12-22.13h1.16l-10.14 22.13h-1.15z"/><use xlink:href="#M" x="131.99"/><use xlink:href="#N" x="93.13"/><use xlink:href="#O"/><use xlink:href="#M" x="180.58"/><use xlink:href="#O" x="26.86"/><use xlink:href="#O" x="40.29"/><use xlink:href="#P"/><path d="M242.27 178.14c.92 0 1.6.12 2.05.37.44.25.67.66.67 1.23 0 .3-.05.56-.16.78a1.36 1.36 0 0 1-.5.54c-.22.14-.5.25-.85.32-.34.07-.75.1-1.21.1h-.82v2.36h-.66v-5.71h1.49zm-.02.35h-.81v2.65h.83c.47 0 .85-.05 1.15-.14s.52-.24.67-.45.22-.47.22-.8c0-.46-.17-.78-.5-.97-.34-.19-.85-.29-1.55-.29z"/><use xlink:href="#Q"/><path d="M264.5 183.85h-.79l-3.77-5.06h-.03c0 .1.02.2.02.3l.01.33v.38 4.05h-.64v-5.71h.79l3.77 5.01h.03a5.1 5.1 0 0 0-.02-.4 4.35 4.35 0 0 0-.02-.37c-.01-.12 0-.21 0-.3v-3.95h.64v5.71z"/><use xlink:href="#P" x="36.9"/><use xlink:href="#Q" x="28.41"/><use xlink:href="#R"/><path d="M300.04 183.85h-3.66v-5.71h3.66v.35h-3v2.19h2.83v.36h-2.83v2.46h3v.36zm9.45-2.92c0 .64-.12 1.18-.35 1.61a2.25 2.25 0 0 1-1.08.98c-.48.22-1.09.33-1.83.33h-1.7v-5.71h1.74c.73 0 1.33.11 1.81.31.47.21.83.52 1.06.94.24.41.35.93.35 1.54zm-.69.02c0-.53-.09-.98-.26-1.34s-.44-.65-.82-.83-.87-.28-1.49-.28h-1.05v5h1.01c.92 0 1.58-.21 1.99-.64s.62-1.06.62-1.9zm10.64-2.81h2.01c.79 0 1.38.11 1.77.33s.59.56.59 1c0 .25-.05.46-.16.65s-.27.34-.47.46c-.21.12-.47.2-.77.24v.02c.37.05.68.14.92.26a1.29 1.29 0 0 1 .53.47c.12.19.17.42.17.67 0 .33-.09.61-.28.85-.18.24-.45.42-.8.55s-.78.2-1.3.2h-2.21v-5.71zm.66 2.54h1.29c.59 0 1.03-.1 1.32-.29.29-.2.43-.49.43-.89 0-.34-.14-.6-.41-.76s-.74-.25-1.4-.25h-1.23v2.2zm0 .34v2.48h1.44c.57 0 1.01-.11 1.33-.32.31-.21.47-.53.47-.96 0-.29-.08-.52-.24-.7s-.38-.31-.66-.39-.61-.12-.99-.12h-1.35zm9.63.12l1.68-3h.69l-2.04 3.49v2.22h-.67v-2.22l-2.04-3.49h.69l1.69 3zm15.98-3l-2.34 5.71h-.79l-2.31-5.71h.67l1.72 4.33.12.31.11.31.09.32.1-.32.11-.31.12-.31 1.72-4.33h.69zm7.69 5.71l-.85-2.07h-2.5l-.86 2.07h-.69l2.35-5.71h.85l2.38 5.71h-.69zm-.98-2.43l-.87-2.23c-.04-.09-.07-.18-.1-.26l-.08-.23c-.02-.08-.05-.15-.08-.23-.02.08-.05.15-.07.23-.02.07-.05.15-.08.23l-.1.26-.86 2.23h2.24zm5.51 2.43v-5.71h.66v5.35h2.89v.36h-3.55zm12.21 0h-.73l-2.38-2.87-.79.64v2.22h-.66v-5.71h.66v3.05c.05-.07.15-.18.28-.31l.49-.48 2.27-2.26h.72l-2.52 2.51 2.66 3.2zm5.14-2.71l1.68-3h.69l-2.04 3.49v2.22h-.67v-2.22l-2.04-3.49h.69l1.69 3z"/><use xlink:href="#R" x="93.77"/><path d="M390.15 183.85v-5.71h.65v5.71h-.65zm9.2 0h-3.66v-5.71h3.66v.35h-3v2.19h2.83v.36h-2.83v2.46h3v.36z"/></g><g fill="#35a293"><use xlink:href="#S"/><use xlink:href="#T"/><use xlink:href="#T" x="42.03"/><use xlink:href="#S" x="120.49"/><use xlink:href="#U"/><use xlink:href="#V"/><use xlink:href="#W"/><use xlink:href="#X"/><use xlink:href="#Y"/><use xlink:href="#Z"/><use xlink:href="#a"/></g><g class="h"><use xlink:href="#S" x="4" y="-4"/><use xlink:href="#T" x="4" y="-4"/><use xlink:href="#T" x="46.03" y="-4"/><use xlink:href="#S" x="124.49" y="-4"/><use xlink:href="#U" x="4" y="-4"/><use xlink:href="#V" x="4" y="-4"/><use xlink:href="#W" x="4" y="-4"/><use xlink:href="#X" x="4" y="-4"/><use xlink:href="#Y" x="4" y="-4"/><use xlink:href="#Z" x="4" y="-4"/><use xlink:href="#a" x="4" y="-4"/></g><g fill="#efb541"><use xlink:href="#S" x="8" y="-8"/><use xlink:href="#T" x="8" y="-8"/><use xlink:href="#T" x="50.03" y="-8"/><use xlink:href="#S" x="128.49" y="-8"/><use xlink:href="#U" x="8" y="-8"/><use xlink:href="#V" x="8" y="-8"/><use xlink:href="#W" x="8" y="-8"/><use xlink:href="#X" x="8" y="-8"/><use xlink:href="#Y" x="8" y="-8"/><use xlink:href="#Z" x="8" y="-8"/><use xlink:href="#a" x="8" y="-8"/></g><g class="d"><use xlink:href="#S" x="12" y="-12"/><use xlink:href="#T" x="12" y="-12"/><use xlink:href="#T" x="54.03" y="-12"/><use xlink:href="#S" x="132.49" y="-12"/><use xlink:href="#U" x="12" y="-12"/><use xlink:href="#V" x="12" y="-12"/><use xlink:href="#W" x="12" y="-12"/><use xlink:href="#X" x="12" y="-12"/><use xlink:href="#Y" x="12" y="-12"/><use xlink:href="#Z" x="12" y="-12"/><use xlink:href="#a" x="12" y="-12"/></g><g class="a"><path d="M177.07 162.71l.22-5.5.22-5.5c0-2.72-.46-4.08-1.37-4.08-.56 0-1 .87-1.32 2.6-.2 1.17-.29 2.23-.29 3.16 0 1.23.2 3.04.59 5.44s.59 4.21.59 5.44c0 1.07-.23 1.97-.69 2.72-.59.93-1.47 1.4-2.65 1.4-1.44 0-2.52-.71-3.24-2.12-.56-1.04-.83-2.25-.83-3.64 0-.93.15-2.32.44-4.16s.44-3.21.44-4.12c0-4.48-.8-6.72-2.4-6.72-.98 0-1.47.75-1.47 2.24 0 2.96.29 5.8.88 8.52.56 2.43.83 4.01.83 4.76 0 1.65-.26 2.88-.78 3.68-.72 1.04-2.01 1.56-3.87 1.56-4.19 0-6.28-1.36-6.28-4.07 0-1.38.66-3.39 1.99-6.01 1.32-2.62 1.99-4.65 1.99-6.09 0-1.09-.58-2.45-1.74-4.07s-1.74-2.89-1.74-3.79c0-1.12.82-1.68 2.45-1.68 1.01 0 2.12.76 3.33 2.28.78-.85 1.37-1.41 1.77-1.68.78-.59 1.67-.88 2.65-.88 1.63 0 2.78.33 3.43 1l1.62 2.48c.95-1.34 1.98-2.21 3.09-2.62.95-.38 2.42-.58 4.41-.58 3.04 0 4.67.96 4.9 2.87.1.74-.17 1.79-.81 3.15-.64 1.35-.96 2.38-.96 3.07 0 1.35.79 3.33 2.38 5.91 1.59 2.59 2.38 4.61 2.38 6.07 0 3.11-1.96 4.66-5.88 4.66-1.41 0-2.5-.69-3.29-2.08-.65-1.09-.98-2.29-.98-3.6zm16.13.53c0-1.12.38-2.74 1.15-4.87s1.15-3.75 1.15-4.87c0-1.04-.47-2.4-1.4-4.09s-1.4-2.95-1.4-3.77c0-1.97 1.68-2.96 5.05-2.96 1.28 0 2.24.38 2.89 1.14s.98 1.67.98 2.73c0 .74-.2 1.75-.59 3.03s-.59 2.27-.59 2.99c0 1.17.8 1.75 2.4 1.75 1.96 0 2.94-.77 2.94-2.31 0-.98-.26-2.07-.78-3.27l-1.62-3.11c0-.96.59-1.71 1.77-2.27.98-.45 2.11-.68 3.38-.68 1.44 0 2.57.53 3.38 1.6v.44c0 1.07-.32 2.62-.96 4.67s-.96 3.61-.96 4.67c0 .99.32 2.4.96 4.25s.96 3.25.96 4.21c0 2.02-.95 3.54-2.84 4.55-1.64.88-3.76 1.32-6.38 1.32-6.34 0-9.51-1.72-9.51-5.15z"/><use xlink:href="#b"/><use xlink:href="#c"/><path d="M259.3 156.3c0-3.61.77-6.61 2.3-9.01 1.93-3.07 4.85-4.61 8.78-4.61 3.2 0 4.81 1.43 4.81 4.28 0 1.04-.31 1.77-.93 2.2-.46.35-1.21.52-2.26.52-.78 0-1.23-.07-1.32-.2l-.71-2.31c-.25-.78-.83-1.1-1.74-.97-1.41.24-2.11 1.72-2.11 4.44 0 .91.38 1.73 1.15 2.48s1.67 1.12 2.72 1.12c.65 0 1.52-.31 2.6-.94s1.81-.94 2.21-.94c1.11 0 1.94.96 2.5 2.88.39 1.33.59 2.71.59 4.12 0 6.03-3.25 9.04-9.76 9.04-3.3 0-5.71-1.4-7.21-4.21-1.08-2.06-1.62-4.69-1.62-7.89zm51.97-16.83c-.91 0-1.36.56-1.36 1.68 0 .99.19 1.6.58 1.84.26.13 1 .2 2.23.2.9 0 1.44.21 1.6.64.03.13.05.56.05 1.28 0 1.25-.64 1.87-1.91 1.84-1.7 0-2.55.4-2.55 1.2 0 2.03.92 4.87 2.77 8.54s2.77 6.18 2.77 7.54c0 2.93-1.96 4.4-5.88 4.4h-2.21c-4.54 0-6.82-1.87-6.82-5.6 0-1.23.42-2.61 1.27-4.16l2.16-3.96c.42-1.04.64-2.33.64-3.88 0-2.21-.64-3.63-1.91-4.24l-2.3-.12c-.65-.19-.98-.69-.98-1.52s.12-1.39.35-1.6.88-.32 1.94-.32 1.59-.29 1.59-.88c0-.29-.04-.72-.12-1.28l-.12-1.28c0-1.41.6-2.49 1.81-3.24 1.11-.72 2.58-1.08 4.41-1.08 5.43 0 8.14 1.79 8.14 5.36 0 1.09-.68 1.64-2.05 1.64-1.07 0-1.8-.27-2.19-.8l-.61-1.44c-.21-.51-.64-.76-1.29-.76zm9.42 17.24c0-3.47.72-6.48 2.16-9.04 1.86-3.33 4.64-5 8.34-5 1.54 0 2.86.24 3.97.72 1.37.59 2.16 1.44 2.35 2.56.06.35.1.67.1.96 0 1.68-.92 2.87-2.75 3.56-.85.32-1.41.48-1.67.48-.46 0-1.14-.04-2.06-.12l-2.06-.12c-1.08 0-1.62.39-1.62 1.16 0 1.52 1.32 2.28 3.97 2.28.98 0 2.01-.41 3.09-1.24s1.78-1.24 2.11-1.24c1.21 0 2.12 1.37 2.75 4.12.42 1.87.64 3.76.64 5.68s-1.03 3.68-3.09 5.04c-1.9 1.25-4.07 1.88-6.52 1.88-2.13 0-3.79-.36-5-1.08-1.5-.88-2.7-2.49-3.58-4.84-.75-1.97-1.13-3.89-1.13-5.76zm8.76-11c-.5.03-.96.24-1.37.64-.42.4-.62.76-.62 1.08 0 .24.12.35.35.32l4.64.16c.53.03.8-.22.8-.75 0-.42-.24-.77-.72-1.06s-.99-.42-1.52-.39h-1.55z"/><use xlink:href="#b" x="127.59"/><path d="M368.02 163.07c0-1.44.6-3.53 1.79-6.26s1.79-4.83 1.79-6.3c0-.93-.11-1.79-.34-2.56-.33-.35-1.11-.64-2.35-.88-.85-.19-1.27-.8-1.27-1.84 0-.77.53-1.23 1.59-1.36s1.59-.6 1.59-1.4c0-.32-.13-.75-.39-1.3s-.39-.98-.39-1.3c0-1.17 1.42-1.76 4.27-1.76 1.05 0 1.98.09 2.8.28 1.21.32 1.81.79 1.81 1.4 0 .43-.26.99-.78 1.7s-.78 1.26-.78 1.66c0 .56.57.89 1.72 1 1.37.13 2.17.29 2.4.48.33.27.49.72.49 1.36s-.43 1-1.27 1.08l-2.4.32c-.88.37-1.32 1.19-1.32 2.44 0 1.63.92 3.83 2.75 6.62s2.75 4.94 2.75 6.46c0 3.65-2.3 5.48-6.91 5.48-5 0-7.5-1.77-7.5-5.32z"/><use xlink:href="#c" x="147.75"/><path d="M405.48 145.91c0-1.04.54-1.85 1.62-2.44.92-.53 2.03-.8 3.33-.8.72 0 1.57.2 2.55.6 1.31.53 2.2 1.1 2.67 1.69.47.6.71 1.47.71 2.61 0 .37-.07.98-.2 1.81l-.2 1.77c0 1.91.46 2.87 1.37 2.87.82 0 1.23-.85 1.23-2.56 0-.48-.07-1.28-.2-2.4l-.2-2.4c0-1.17.54-2.08 1.62-2.72.95-.56 2.17-.84 3.68-.84 2.94 0 4.41 1.04 4.41 3.12 0 .37-.72 1.93-2.16 4.68l-2.75 5.16c-.95 1.97-1.78 4.92-2.5 8.84-.43 2.32-1.59 3.48-3.48 3.48-1.57 0-2.76-.99-3.58-2.96-.49-1.28-.86-3.21-1.1-5.79-.25-2.58-.6-4.47-1.05-5.67-.29-.88-1.39-2.2-3.29-3.95-1.67-1.54-2.5-2.92-2.5-4.11zm36.24 22.48c-3.33 0-5.82-.44-7.45-1.32-1.96-1.09-2.94-2.93-2.94-5.51 0-4.05 1.24-7.19 3.73-9.42.2-.16 1.5-.89 3.92-2.2 1.9-1.01 2.84-1.85 2.84-2.52 0-.91-.52-1.36-1.57-1.36-.72 0-1.38.59-1.99 1.78s-1.43 1.78-2.48 1.78c-1.47 0-2.21-.8-2.21-2.4 0-1.49.98-2.67 2.94-3.52 1.6-.69 3.4-1.04 5.39-1.04 3.4 0 5.51.76 6.33 2.28.03.11.05.25.05.44 0 .43-.31 1.51-.93 3.26-.62 1.74-.93 3.04-.93 3.89 0 1.12.64 2.91 1.91 5.37s1.91 4.44 1.91 5.93c0 1.33-.16 2.17-.49 2.52-.82.88-2.03 1.46-3.63 1.76-1.01.19-2.48.28-4.41.28zm-3.24-13.24c0 1.73.57 2.52 1.7 2.36.54-.05.84-.51.9-1.36 0 .75 0 .04 0-2.12v-1.6a.25.25 0 0 0-.15-.24c-.1-.05-.21-.05-.34 0-1.41.56-2.11 1.55-2.11 2.96zm17.21 6.6c0-.93.56-2.68 1.67-5.24l2.11-5.08c.65-1.97.98-3.75.98-5.32 0-1.12-.46-2.59-1.37-4.42-.92-1.83-1.37-2.94-1.37-3.34 0-1.89 2.11-2.84 6.33-2.84 1.41 0 2.58.33 3.53.98s1.42 1.54 1.42 2.66c0 .32-.6 1.43-1.79 3.34s-1.79 3.59-1.79 5.06c0 2.03.86 4.79 2.57 8.3s2.57 5.94 2.57 7.3c0 3.49-2.71 5.24-8.14 5.24-2.81 0-4.68-.57-5.59-1.72-.75-.88-1.13-2.52-1.13-4.92z"/></g><g opacity=".34" fill="#1d1d1b"><path d="M561.5 12.68h2v5.66h-2zm0 8.02h2v2.83h-2zm0 5.19h2v5.66h-2zm0 8.04h2v5.66h-2zm0 8.02h2v2.83h-2zm0 5.19h2v5.66h-2zm0 8.04h2v5.66h-2zm0 8.02h2v2.83h-2zm0 5.19h2v5.66h-2zm0 8.04h2v5.66h-2zm0 8.02h2v2.83h-2zm0 5.19h2v5.66h-2zm0 8.04h2v5.66h-2zm0 8.02h2v2.83h-2zm0 5.19h2v5.66h-2zm0 8.04h2v5.66h-2zm0 8.02h2v2.83h-2zm0 5.19h2v5.66h-2zm0 8.04h2v5.66h-2zm0 8.02h2v2.83h-2zm0 5.19h2v5.66h-2zm0 8.04h2v5.66h-2zm0 8.02h2v2.83h-2zm0 5.19h2v5.66h-2z"/></g><g stroke="#f6e1ce" class="a e g"><path d="M521.1 163.25c-3.05.04-3.99-3.3-4.7-6.72-.77-3.73-1.32-6.42 3.48-7.9.88-.27 1.64-.41 2.26-.42.82-.01 1.41.2 1.82.64.94 1.02.83 3.15.63 5.45-.12 1.37.02 2.65.15 3.78.29 2.57.48 4.26-2.37 4.99-.45.12-.88.17-1.28.18h0z"/><path d="M522.15 148.51c.73 0 1.25.17 1.6.54.86.93.74 3.08.55 5.22-.13 1.4.02 2.7.15 3.85.31 2.78.35 4.03-2.14 4.66-.43.11-.84.17-1.21.17-2.82.04-3.69-3.05-4.4-6.48-.76-3.71-1.27-6.15 3.28-7.56.85-.26 1.58-.4 2.18-.41m0-.6c-.64 0-1.41.14-2.34.43-5.02 1.55-4.45 4.5-3.68 8.24.69 3.34 1.64 7 4.99 6.96.41 0 .86-.07 1.35-.19 4.46-1.14 2.05-4.66 2.44-9.04.31-3.44.36-6.45-2.75-6.41h0z"/><path d="M526.56 162.78c-.7 0-1.37-.25-1.99-.76-2-1.67-2.17-5.86-.38-9.55 1.08-2.21 3.52-3.84 5.82-3.87 1.16-.01 2.15.39 2.88 1.17 3.1 3.35 2.51 4.19.93 6.43l-.63.91c-2.51 3.74-4.74 5.65-6.63 5.67z"/><path d="M530.02 148.89h0c.75 0 1.81.17 2.65 1.07 2.94 3.18 2.47 3.84.91 6.06l-.63.91c-2.46 3.65-4.61 5.52-6.38 5.54-.64 0-1.22-.22-1.79-.69-1.91-1.58-2.04-5.62-.31-9.19 1.03-2.12 3.36-3.68 5.56-3.7m0-.6c-2.34.03-4.93 1.66-6.08 4.04-1.73 3.56-1.79 8.04.46 9.9.71.59 1.45.84 2.18.83 2.66-.03 5.29-3.45 6.87-5.8 2.02-3 3.33-3.75-.33-7.71-.83-.89-1.93-1.28-3.1-1.26h0zm-12.81 17.29c-.92.01-1.77-.54-2.85-1.25-1-.65-2.13-1.39-3.64-1.89-1.61-.54-2.73-1.68-3.16-3.21-.51-1.85.07-3.94 1.61-5.75 1.02-1.19 2.2-1.83 3.41-1.85 2.34-.03 4.48 2.24 4.58 4.85.07 1.77 1.07 3.05 1.96 4.17 1.16 1.47 1.94 2.45.24 3.9-.8.68-1.48 1-2.16 1.01h0z"/><path d="M512.61 151.93h0c2.15-.03 4.18 2.15 4.28 4.57.07 1.87 1.16 3.24 2.03 4.34 1.25 1.58 1.7 2.27.28 3.49-.74.64-1.37.93-1.97.94-.82.01-1.65-.52-2.68-1.2-1.01-.66-2.16-1.4-3.7-1.92-1.51-.51-2.57-1.58-2.96-3-.49-1.75.08-3.75 1.55-5.48.96-1.13 2.06-1.73 3.19-1.75m0-.6c-1.2.02-2.47.59-3.64 1.96-3.11 3.66-2.16 8.15 1.68 9.43 3.13 1.05 4.69 3.17 6.58 3.15.7 0 1.46-.32 2.36-1.08 3.31-2.84-1.95-4.35-2.1-8.31-.1-2.68-2.32-5.17-4.88-5.14h0zm6.66 34.74c-.75 0-1.54-.18-2.36-.56-4.09-1.88-3.41-5.43-2.08-9 .97-2.6 3.8-4.66 6.43-4.69.81-.01 1.58.17 2.29.52 3.43 1.73 2.88 5.85 1.36 8.85-1.64 3.25-3.49 4.85-5.64 4.88z"/><path d="M521.28 172.11h0c.76 0 1.49.16 2.15.49 3.23 1.63 2.68 5.57 1.23 8.45-1.59 3.14-3.35 4.69-5.38 4.71-.7 0-1.45-.17-2.23-.53-3.65-1.68-3.41-4.66-1.93-8.63.93-2.49 3.64-4.47 6.15-4.5m0-.6c-2.87.04-5.72 2.28-6.7 4.89-1.26 3.35-2.24 7.32 2.23 9.38.9.41 1.73.59 2.49.58 2.71-.03 4.59-2.45 5.9-5.04 1.68-3.32 2.02-7.48-1.5-9.25a5.15 5.15 0 0 0-2.43-.56h0z"/><path d="M527.2 185.92c-3.35.04-3.68-1.01-4.66-4.13-.7-2.2-1.24-4.98-.23-6.92.5-.96 1.34-1.63 2.51-2 .36-.12.72-.18 1.07-.18 2.89-.04 4.63 3.94 5.78 6.57.7 1.6 1.29 3.62.48 4.98-.54.91-1.68 1.45-3.36 1.59l-1.59.08h0z"/><path d="M525.89 173c2.69-.03 4.38 3.83 5.5 6.39l.06.15c.61 1.39 1.18 3.31.43 4.56-.49.83-1.54 1.31-3.13 1.45l-1.56.08c-3.13.04-3.39-.8-4.38-3.92l-.07-.21c-.61-1.93-1.14-4.63-.18-6.48.47-.9 1.23-1.5 2.33-1.85.34-.11.67-.16.98-.16m0-.6c-.36 0-.75.07-1.15.19-3.88 1.22-3.72 5.37-2.55 9.08 1.04 3.28 1.37 4.6 5.02 4.55.48 0 1.01-.03 1.61-.09 4.76-.4 4.54-3.77 3.19-6.84-1.21-2.76-2.98-6.93-6.12-6.89h0zm-17.78-.74c-1.41.02-2.42-.76-3-1.42-1.17-1.31-1.82-3.32-1.61-5 .34-2.8 1.81-4.42 4.03-4.45 1.08-.01 2.29.37 3.49 1.1 1.14.69 2.49 1.08 3.68 1.43 2.66.77 4.14 1.32 3.6 3.59-.73 3.09-3.67 3.62-7.08 4.23l-2.28.44c-.28.06-.55.09-.82.09h0z"/><path d="M507.51 161.1h0c1.02-.01 2.17.35 3.33 1.06 1.17.71 2.54 1.11 3.75 1.46 2.63.76 3.87 1.22 3.4 3.23-.69 2.9-3.41 3.39-6.84 4l-2.3.44c-.26.06-.51.08-.76.09-1.3.02-2.23-.71-2.78-1.32-1.1-1.23-1.73-3.19-1.54-4.77.32-2.64 1.69-4.17 3.74-4.19m0-.6c-2.24.03-3.95 1.63-4.33 4.72-.35 2.82 1.62 6.8 4.92 6.76.28 0 .58-.04.88-.1 4.38-.95 8.65-.91 9.59-4.89s-4.09-3.32-7.41-5.34c-1.28-.78-2.53-1.16-3.65-1.15h0zm23.49 6.29c-1.99.02-3.6-1-4.54-2.87-1.53-3.07 1.16-4.73 4.27-6.66l1.48-.93c1.69-1.1 3.23-1.66 4.61-1.68 2.35-.03 4.08 1.58 5.13 4.79.37 1.12.39 1.96.07 2.58-.49.95-1.76 1.33-3.24 1.78-1.15.35-2.46.74-3.52 1.49-1.36.96-2.88 1.49-4.27 1.5h0z"/><path d="M536.84 154.95h0c2.21-.03 3.84 1.51 4.84 4.58.34 1.04.37 1.81.09 2.35-.43.83-1.65 1.2-3.06 1.63-1.17.36-2.5.76-3.6 1.53-1.31.92-2.77 1.44-4.1 1.45-1.32.02-3.13-.44-4.26-2.71-1.34-2.69.71-4.14 4.16-6.27l1.49-.94c1.64-1.06 3.13-1.61 4.45-1.63m0-.6c-1.53.02-3.18.69-4.77 1.73-3.62 2.36-7.77 4.14-5.86 7.97 1.08 2.16 2.87 3.06 4.8 3.04 1.49-.02 3.06-.59 4.44-1.56 3.16-2.22 8.44-1.18 6.8-6.19-1.2-3.66-3.19-5.02-5.42-4.99h0z"/><path d="M539.85 173.75c-.69 0-1.47-.06-2.37-.23l-1.48-.25c-3.87-.63-6.67-1.09-7.11-4.65-.11-.91.03-1.61.45-2.13.88-1.11 2.88-1.32 4.82-1.53l2.3-.31c.65-.13 1.3-.2 1.94-.21 2.33-.03 4.93.81 5.25 3.25.31 2.36.05 3.98-.79 4.95-.63.73-1.62 1.09-3.01 1.11h0z"/><path d="M538.4 164.75h0c2.21-.03 4.66.74 4.95 2.99.29 2.24.05 3.83-.72 4.72-.58.66-1.49.99-2.79 1.01-.67 0-1.43-.07-2.32-.22l-1.49-.25c-4.12-.67-6.46-1.21-6.86-4.39-.1-.83.02-1.46.39-1.91.8-1.01 2.75-1.22 4.62-1.42l2.33-.31a11.02 11.02 0 0 1 1.88-.2m0-.6c-.65 0-1.32.08-1.99.21-3.36.67-8.34.05-7.81 4.3.52 4.25 4.35 4.35 8.83 5.15.88.16 1.69.24 2.43.23 3.01-.04 4.7-1.66 4.09-6.39-.31-2.42-2.76-3.54-5.55-3.51h0z"/><path d="M535.53 182.83c-1.02.01-2.06-.68-3.58-2.39-3.02-3.39-4.69-5.5-3.93-9.46.23-1.17.84-1.72 1.94-1.73 1.63-.02 3.93 1.15 5.79 2.09l1.23.62c1.71.81 3.72 1.97 4.12 3.67.26 1.1-.16 2.39-1.26 3.82-1.79 2.33-3.12 3.38-4.31 3.39h0z"/><path d="M529.95 169.55h0c1.55-.02 3.82 1.13 5.65 2.06l1.24.62c1.65.79 3.58 1.89 3.96 3.47.24 1.01-.16 2.21-1.21 3.57-1.72 2.25-2.98 3.26-4.08 3.28-.91.01-1.92-.67-3.36-2.29-2.96-3.32-4.59-5.38-3.86-9.2.2-1.03.69-1.48 1.65-1.49m0-.6c-1.11.01-1.95.54-2.22 1.97-.79 4.13 1.05 6.4 4 9.71 1.43 1.6 2.59 2.51 3.81 2.49 1.31-.02 2.69-1.09 4.55-3.51 3.29-4.29.14-6.45-2.97-7.94-2.03-.97-5.07-2.76-7.16-2.73h0zm-18.37 12.04c-.71 0-1.58-.26-2.65-.83-2.76-1.45-3.46-4.36-2.92-6.58.45-1.85 1.68-3.05 3.15-3.07l.66.02c1.48-.02 3.07-.58 4.59-1.12 1.4-.5 2.72-.97 3.85-.98 1-.01 1.7.34 2.22 1.11.59.87.79 1.79.59 2.72-.49 2.25-3.17 4.16-4.72 5.09-.96.58-1.62 1.33-2.2 2-.8.92-1.43 1.64-2.56 1.66h0z"/><path d="M518.24 168.73c.9-.01 1.5.29 1.97.98.56.81.73 1.63.54 2.49-.47 2.15-3.07 3.99-4.58 4.9-1 .6-1.68 1.38-2.27 2.06-.86.98-1.4 1.54-2.34 1.56-.65 0-1.48-.25-2.51-.8-2.62-1.38-3.28-4.13-2.77-6.25.41-1.71 1.53-2.83 2.86-2.85h.2l.46.01c1.53-.02 3.14-.59 4.69-1.14 1.38-.49 2.68-.95 3.75-.96m0-.6c-2.43.03-5.67 2.07-8.44 2.11h-.41-.25c-3.97.05-5.44 7.54-.36 10.22 1.19.63 2.08.87 2.8.87 2.14-.03 2.68-2.36 4.91-3.7 2.97-1.79 6.48-4.93 4.22-8.24-.63-.93-1.48-1.25-2.47-1.24h0z"/></g><circle cx="523.54" cy="167.63" r="10.26" class="d f g"/><g class="a"><path d="M518.71 170.6c.37 1.15 1.5 1.91 2.62 2.2 1.42.37 2.88-.01 3.97-.99.27-.25-.14-.64-.41-.4-.93.84-2.2 1.15-3.41.84-.93-.24-1.91-.85-2.22-1.8-.11-.35-.66-.19-.55.16h0z"/><path d="M524.5 170.82c.19.82 1.13 1.31 1.92 1.02.14-.05.25-.2.2-.35-.05-.14-.2-.25-.35-.2-.04.01-.08.03-.12.04h-.08s-.03.02.01.01c-.02.01-.09 0-.11 0h-.11 0-.06c-.04 0-.08-.02-.12-.03-.04 0-.07-.02-.11-.03h-.01l-.05-.04s-.06-.03-.1-.06l-.05-.03c-.06-.04.05.04 0 0-.06-.05-.11-.11-.16-.16-.02-.02.03.04 0 0l-.03-.05-.06-.1c-.01-.02-.04-.05 0 0-.01-.01-.02-.04-.02-.06l-.03-.12c-.04-.14-.21-.24-.35-.2-.15.05-.23.2-.2.35h0zm-3.83-4.83c-.13.74-.63 1.44-1.15 1.36-.64-.11-.8-.95-.66-1.69.13-.74.49-1.58 1.2-1.46.71.13.75 1.05.62 1.79h0zm4.47 1.12c.91-.73 2.71-.39 3.02.82.09.36.64.2.55-.16-.42-1.67-2.75-2.04-3.98-1.06-.12.1-.1.31 0 .4.12.12.28.09.4 0h0z"/><path d="M525.23 166.97c.51-.78 1.62-1.07 2.41-.59.32.19.6-.31.28-.5-1.08-.65-2.52-.23-3.19.8-.2.31.3.59.5.28h0z"/><path d="M524.95 167.24c.79-.06 1.72.06 2.24.7.1.12.31.1.4 0 .12-.12.09-.28 0-.4-.61-.75-1.73-.94-2.64-.86-.15.01-.28.13-.28.29 0 .15.13.3.29.28h0z"/><g stroke="#f6e1ce" class="e g"><path d="M696.42 35.52c0 2.35-2.58 3.05-5.23 3.56-2.88.56-4.97.96-6.06-2.76-.2-.68-.3-1.27-.3-1.75 0-.63.17-1.09.51-1.4.79-.72 2.44-.61 4.21-.43 1.05.11 2.05 0 2.92-.08 1.98-.2 3.29-.33 3.83 1.88.08.35.13.68.13.99h0z"/><path d="M685.05 34.57c0-.56.14-.96.44-1.23.72-.65 2.39-.54 4.03-.37 1.08.11 2.08 0 2.97-.08 2.15-.22 3.11-.23 3.58 1.7.08.33.12.65.12.93 0 2.18-2.39 2.82-5.05 3.33-2.87.55-4.76.92-5.8-2.6-.19-.66-.29-1.22-.29-1.68m-.46 0c0 .49.1 1.09.31 1.81 1.15 3.89 3.43 3.48 6.33 2.92 2.58-.5 5.42-1.19 5.42-3.79 0-.32-.04-.66-.13-1.04-.83-3.46-3.58-1.63-6.95-1.97-2.65-.27-4.97-.34-4.97 2.06h0z"/><path d="M696.1 31.3c0 .54-.2 1.05-.61 1.53-1.31 1.53-4.54 1.62-7.37.2-1.7-.85-2.93-2.76-2.93-4.53 0-.9.32-1.66.93-2.21 2.62-2.36 3.26-1.9 4.97-.66l.69.49c2.86 1.98 4.31 3.72 4.31 5.17z"/><path d="M685.42 28.5h0c0-.58.15-1.4.85-2.04 2.48-2.24 2.99-1.87 4.69-.64l.7.5c2.8 1.93 4.21 3.61 4.21 4.98 0 .49-.18.94-.55 1.38-1.24 1.46-4.35 1.52-7.09.15-1.63-.81-2.81-2.63-2.81-4.33m-.46 0c0 1.8 1.24 3.82 3.06 4.74 2.73 1.37 6.19 1.46 7.65-.26.47-.55.66-1.11.66-1.67 0-2.06-2.61-4.12-4.41-5.36-2.3-1.59-2.86-2.6-5.95.18-.7.63-1.01 1.48-1.01 2.38h0zm13.21 10.04c0 .71-.44 1.36-.99 2.19-.51.76-1.09 1.63-1.49 2.79-.43 1.24-1.32 2.09-2.51 2.4-1.43.38-3.04-.09-4.42-1.3-.91-.8-1.39-1.72-1.39-2.65 0-1.81 1.77-3.43 3.79-3.49 1.37-.03 2.36-.8 3.24-1.47 1.15-.88 1.91-1.47 3.01-.15.52.62.76 1.15.76 1.68h0z"/><path d="M687.6 41.97h0c0-1.66 1.7-3.21 3.57-3.26 1.44-.04 2.51-.86 3.37-1.52 1.23-.95 1.77-1.29 2.7-.18.48.58.71 1.06.71 1.53 0 .64-.42 1.26-.95 2.06-.52.78-1.1 1.65-1.52 2.84-.41 1.16-1.24 1.97-2.35 2.26-1.36.36-2.89-.1-4.21-1.25-.86-.75-1.32-1.61-1.32-2.48m-.46 0c0 .92.43 1.91 1.47 2.83 2.79 2.44 6.27 1.74 7.3-1.2.84-2.41 2.49-3.59 2.49-5.05 0-.54-.23-1.13-.81-1.83-2.16-2.58-3.37 1.46-6.43 1.54-2.07.05-4.02 1.74-4.02 3.72h0zM714 37.14c0 .58-.15 1.19-.45 1.82-1.49 3.14-4.23 2.58-6.97 1.52-2-.78-3.56-2.98-3.56-5.01 0-.63.14-1.22.43-1.76 1.37-2.63 4.54-2.17 6.85-.97 2.49 1.3 3.71 2.74 3.71 4.4z"/><path d="M703.25 35.47h0a3.44 3.44 0 0 1 .4-1.65c1.29-2.48 4.33-2.02 6.54-.87 2.41 1.26 3.58 2.63 3.58 4.2 0 .54-.14 1.12-.43 1.72-1.33 2.8-3.63 2.59-6.68 1.4-1.91-.74-3.41-2.85-3.41-4.79m-.46 0c0 2.22 1.71 4.44 3.71 5.22 2.58 1 5.63 1.8 7.26-1.63.33-.69.47-1.33.47-1.91 0-2.1-1.84-3.57-3.83-4.61-2.55-1.33-5.75-1.63-7.15 1.07-.31.6-.45 1.23-.45 1.87h0z"/><path d="M713.97 31.04c0 2.58-.81 2.83-3.23 3.56-1.71.52-3.85.91-5.34.11-.73-.4-1.25-1.05-1.52-1.96a2.71 2.71 0 0 1-.13-.83c0-2.23 3.08-3.53 5.12-4.4 1.24-.53 2.81-.96 3.85-.33.7.43 1.1 1.31 1.2 2.61l.05 1.23h0z"/><path d="M703.98 31.92c0-2.08 3-3.35 4.99-4.19l.11-.05c1.08-.46 2.57-.88 3.53-.29.63.39 1 1.2 1.09 2.43l.05 1.21c0 2.41-.65 2.61-3.07 3.34l-.17.05c-1.5.45-3.58.83-5 .07-.69-.37-1.15-.97-1.41-1.82a2.61 2.61 0 0 1-.12-.76m-.46 0a2.89 2.89 0 0 0 .14.89c.9 3.01 4.11 2.92 6.98 2.06 2.54-.77 3.56-1.01 3.56-3.83l-.05-1.24c-.27-3.67-2.86-3.54-5.25-2.53-2.14.9-5.38 2.23-5.38 4.66h0zm-.73 13.74c0 1.09-.61 1.86-1.13 2.31-1.02.89-2.58 1.37-3.88 1.19-2.16-.29-3.4-1.44-3.4-3.16 0-.83.31-1.76.88-2.68.55-.88.86-1.91 1.14-2.82.62-2.04 1.06-3.18 2.8-2.74 2.38.6 2.76 2.87 3.19 5.51l.32 1.77a3.36 3.36 0 0 1 .06.63h0z"/><path d="M694.62 45.99h0c0-.79.29-1.67.85-2.56.56-.9.88-1.95 1.16-2.88.61-2.02.98-2.98 2.53-2.59 2.23.56 2.58 2.66 3.02 5.32l.32 1.78a3.01 3.01 0 0 1 .06.58c0 1.01-.57 1.72-1.05 2.13-.96.84-2.48 1.31-3.7 1.14-2.03-.28-3.2-1.34-3.2-2.93m-.46 0c0 1.73 1.22 3.06 3.6 3.38 2.17.29 5.26-1.18 5.26-3.73 0-.22-.02-.44-.07-.68-.69-3.39-.62-6.69-3.68-7.45-3.06-.77-2.6 3.12-4.19 5.67-.61.98-.92 1.94-.92 2.81h0zm5.09-18.07c0 1.53-.8 2.77-2.26 3.47-2.39 1.15-3.64-.94-5.1-3.36l-.7-1.15c-.83-1.31-1.25-2.51-1.25-3.57 0-1.82 1.26-3.13 3.74-3.91.87-.27 1.52-.28 1.99-.03.73.39 1.01 1.38 1.34 2.51.26.89.55 1.9 1.12 2.73.72 1.06 1.12 2.23 1.12 3.31h0z"/><path d="M690.16 23.3h0c0-1.7 1.21-2.95 3.58-3.7.81-.25 1.4-.27 1.81-.05.64.34.91 1.28 1.23 2.38.26.91.56 1.94 1.15 2.8.7 1.02 1.08 2.15 1.08 3.18s-.37 2.41-2.13 3.26c-2.09 1.01-3.19-.58-4.8-3.27l-.71-1.16c-.81-1.27-1.22-2.43-1.22-3.45m-.46 0c0 1.18.5 2.46 1.29 3.7 1.79 2.82 3.12 6.04 6.1 4.6 1.68-.81 2.39-2.19 2.39-3.68 0-1.15-.43-2.37-1.16-3.44-1.69-2.46-.83-6.52-4.71-5.31-2.83.89-3.91 2.41-3.91 4.13h0z"/><path d="M704.7 21.15c0 .53-.06 1.13-.2 1.83l-.21 1.14c-.53 2.98-.91 5.14-3.65 5.44-.71.08-1.24-.04-1.64-.37-.85-.69-.99-2.24-1.13-3.74l-.22-1.78c-.09-.5-.14-1.01-.14-1.5 0-1.8.67-3.8 2.56-4.02 1.83-.21 3.07 0 3.81.66.56.5.83 1.26.83 2.33h0z"/><path d="M697.74 22.19h0c0-1.7.62-3.59 2.35-3.79s2.96 0 3.63.6c.51.45.75 1.16.75 2.16 0 .52-.06 1.1-.19 1.79l-.21 1.15c-.56 3.17-.99 4.98-3.45 5.25-.64.07-1.12-.03-1.47-.32-.77-.63-.91-2.13-1.05-3.58l-.22-1.8c-.09-.49-.14-.98-.14-1.46m-.46 0a9.09 9.09 0 0 0 .14 1.54c.48 2.6-.04 6.44 3.25 6.07 3.29-.36 3.4-3.32 4.06-6.77.13-.68.2-1.31.2-1.87 0-2.33-1.23-3.65-4.9-3.22-1.87.22-2.76 2.1-2.76 4.25h0z"/><path d="M711.67 24.58c0 .79-.55 1.58-1.88 2.74-2.64 2.3-4.29 3.57-7.34 2.94-.9-.19-1.32-.67-1.32-1.51 0-1.26.92-3.03 1.67-4.45l.49-.95c.65-1.31 1.56-2.85 2.87-3.15.85-.19 1.84.15 2.94 1.01 1.78 1.4 2.58 2.44 2.58 3.36h0z"/><path d="M701.36 28.75h0c0-1.2.91-2.94 1.64-4.34l.49-.95c.62-1.26 1.49-2.75 2.72-3.02.78-.18 1.71.15 2.74.97 1.72 1.35 2.49 2.33 2.49 3.18 0 .7-.54 1.47-1.8 2.57-2.59 2.25-4.2 3.49-7.14 2.89-.79-.16-1.13-.55-1.13-1.29m-.46 0c0 .86.4 1.51 1.5 1.74 3.18.65 4.95-.75 7.54-2.99 1.25-1.08 1.96-1.97 1.96-2.92 0-1.01-.82-2.09-2.66-3.54-3.28-2.58-4.98-.17-6.16 2.22-.77 1.56-2.18 3.89-2.18 5.5h0zm9.12 14.29c0 .55-.22 1.21-.67 2.04-1.15 2.12-3.4 2.63-5.11 2.19-1.42-.36-2.34-1.33-2.34-2.46l.02-.51c0-1.15-.42-2.37-.82-3.56-.37-1.09-.72-2.11-.72-2.98 0-.77.28-1.31.88-1.7.68-.45 1.39-.6 2.11-.43 1.74.4 3.18 2.49 3.89 3.69.44.75 1.01 1.26 1.52 1.72.7.63 1.25 1.12 1.25 1.99h0z"/><path d="M700.62 37.79c0-.69.24-1.16.77-1.51.63-.42 1.27-.55 1.93-.4 1.65.38 3.05 2.41 3.74 3.58.46.78 1.05 1.31 1.57 1.77.75.67 1.18 1.09 1.18 1.82 0 .51-.21 1.14-.64 1.93-1.09 2.01-3.22 2.49-4.85 2.08-1.32-.33-2.17-1.21-2.17-2.24v-.16l.01-.35c0-1.18-.42-2.43-.83-3.63-.36-1.07-.71-2.08-.71-2.9m-.46 0c0 1.87 1.54 4.39 1.54 6.54l-.01.32v.19c0 3.06 5.77 4.27 7.88.37.5-.91.69-1.6.69-2.15 0-1.65-1.79-2.09-2.81-3.83-1.35-2.31-3.74-5.05-6.32-3.34-.72.48-.98 1.13-.98 1.9h0z"/></g></g><circle cx="699.82" cy="33.68" r="7.92" class="d f g"/><g class="a"><path d="M702.06 37.44c.89-.28 1.49-1.14 1.72-2 .3-1.09.02-2.22-.73-3.07-.19-.21-.5.1-.31.31.64.73.87 1.71.61 2.64-.19.71-.67 1.47-1.41 1.69-.27.08-.15.51.12.42h0z"/><path d="M702.29 32.97c.64-.14 1.02-.86.81-1.47-.04-.11-.15-.19-.27-.15-.11.03-.19.15-.15.27l.03.09v.05h0s0 .03 0 0c.01.02 0 .07 0 .09v.09h0v.05c0 .03-.01.06-.02.09 0 .03-.02.05-.03.08 0 .01 0 0 0-.02v.02l-.03.04-.04.07-.03.04s.03-.03 0 0l-.13.12c-.02.02.03-.02 0 0l-.04.03-.08.05c-.02 0-.04.03 0 0-.01 0-.03.01-.04.02l-.09.03c-.11.03-.19.16-.15.27.04.12.15.18.27.15h0zm-3.76 2.91c.57.11 1.11.5 1.03.9-.09.49-.74.61-1.31.5s-1.22-.4-1.11-.94.81-.57 1.38-.46h0zm.9-3.44c-.55-.71-.27-2.1.67-2.32.28-.07.16-.49-.12-.42-1.29.31-1.6 2.1-.86 3.06.07.09.24.08.31 0 .09-.09.07-.22 0-.31h0z"/><path d="M699.32 32.37c-.6-.4-.81-1.26-.43-1.87.15-.24-.23-.46-.38-.22-.51.83-.2 1.94.59 2.47.24.16.46-.22.22-.38h0z"/><path d="M699.53 32.59c-.04-.61.06-1.33.56-1.72.09-.07.08-.24 0-.31-.09-.09-.22-.07-.31 0-.59.46-.74 1.33-.69 2.03 0 .12.1.22.22.22.11 0 .23-.1.22-.22h0z"/></g><defs ><path id="B" d="M783.99 38.47c.51-.6 1.13-.9 1.87-.9v1.48c-.51.06-.88.2-1.11.41-.41.37-.62 1.03-.62 2 0 .75.14 1.35.42 1.8s.64.68 1.08.68c.54 0 .92-.24 1.14-.71.22-.48.32-1.14.32-1.98v-.29-.3h.87l-.02.37v.32c0 .53.06.97.18 1.31.21.6.57.9 1.1.9.39 0 .69-.2.91-.6.21-.4.32-.87.32-1.4 0-.95-.22-1.6-.66-1.96-.24-.2-.59-.31-1.03-.34v-1.4c.59 0 1.08.17 1.49.5.73.58 1.1 1.6 1.1 3.05 0 1.15-.18 2.04-.54 2.67s-.88.95-1.55.95a1.46 1.46 0 0 1-1.18-.56c-.19-.23-.33-.53-.44-.9-.11.59-.33 1.06-.66 1.39s-.72.5-1.19.5c-.75 0-1.36-.35-1.84-1.06-.47-.71-.71-1.72-.71-3.02s.25-2.3.77-2.91z"/><path id="C" d="M785.44 60.38c-.56.09-.95.47-1.17 1.13-.11.34-.17.73-.17 1.17 0 .84.19 1.46.56 1.87s.79.61 1.24.61c.55 0 .97-.24 1.27-.72s.45-1.06.45-1.73c0-.49-.07-.91-.2-1.26s-.31-.65-.55-.9l.05-1.23 4.24.86v5.87h-.96v-4.8l-2.19-.48a3.85 3.85 0 0 1 .31.75c.12.42.18.91.18 1.46 0 1.04-.23 1.91-.7 2.63s-1.06 1.08-1.77 1.08-1.4-.33-1.97-.99-.85-1.71-.85-3.16c0-.92.18-1.73.54-2.44s.92-1.1 1.66-1.19v1.48z"/><path id="D" d="M790.65 76.35c-.46.5-.93.75-1.41.75v-1.4c.31-.08.56-.22.73-.4.33-.34.49-.86.49-1.55 0-.79-.26-1.43-.77-1.89s-1.24-.73-2.2-.78c.33.33.58.74.75 1.23a4.79 4.79 0 0 1 .22 1.51c0 .95-.21 1.77-.63 2.48-.42.7-1.05 1.06-1.88 1.06-.71 0-1.35-.33-1.9-1s-.83-1.62-.83-2.86c0-1.06.28-1.97.84-2.74s1.5-1.15 2.82-1.15c.98 0 1.81.17 2.49.51 1.3.66 1.96 1.86 1.96 3.6 0 1.26-.23 2.14-.68 2.64zm-6.02-1.06c.35.37.76.56 1.24.56.4 0 .79-.17 1.15-.5s.55-.93.55-1.81c0-.61-.14-1.15-.42-1.61s-.71-.69-1.28-.69c-.5 0-.92.21-1.25.63-.34.42-.51 1-.51 1.74s.17 1.31.52 1.68z"/><path id="E" d="M791.17 88.03h-.86c-.25-.36-.67-.85-1.28-1.45s-1.26-1.13-1.97-1.6c-.69-.46-1.31-.8-1.87-1.04-.36-.15-.95-.35-1.75-.59v-1.57c1.5.36 3 1.15 4.48 2.37.87.72 1.62 1.48 2.26 2.27v-6.25h.99v7.86z"/><path id="F" d="M788.04 91.72c.29-.42.67-.62 1.14-.62.59 0 1.09.3 1.51.92.42.61.63 1.47.63 2.59s-.2 1.93-.6 2.55-.86.92-1.39.92c-.49 0-.89-.18-1.19-.54-.17-.2-.34-.51-.51-.93-.15.47-.32.84-.52 1.1-.37.5-.84.75-1.43.75-.69 0-1.28-.33-1.76-1s-.72-1.61-.72-2.83c0-1.1.21-2.03.62-2.79s1.02-1.14 1.81-1.14c.46 0 .87.16 1.21.49s.6.81.78 1.45c.12-.39.25-.7.41-.92zm-3.56 4.58a1.21 1.21 0 0 0 1.11.65 1.28 1.28 0 0 0 1.16-.67c.26-.45.4-1.02.4-1.72s-.13-1.23-.4-1.66-.64-.64-1.12-.64c-.41 0-.76.2-1.06.59s-.45 1-.45 1.82c0 .66.12 1.2.37 1.64zm3.89-.26c.24.35.53.53.87.53.29 0 .56-.17.81-.5.25-.34.37-.85.37-1.54s-.12-1.18-.37-1.48-.53-.46-.86-.46c-.37 0-.66.2-.87.59s-.31.86-.31 1.4c0 .63.12 1.12.37 1.47z"/><path id="G" d="M673.14 167.23c.09-.12.15-.25.17-.37.03-.12.04-.25.04-.37 0-.31-.1-.61-.29-.9s-.47-.56-.83-.81-.8-.48-1.32-.67c-.52-.2-1.1-.36-1.73-.48l5.32-2.33c.95.29 1.81.63 2.57 1.02a10.04 10.04 0 0 1 1.93 1.24c.53.45.93.92 1.2 1.41s.41 1 .41 1.52c0 .88-.37 1.7-1.11 2.47s-1.77 1.45-3.1 2.02-2.9 1.03-4.72 1.37c-1.83.33-3.83.5-6.02.5s-4.29-.17-6.14-.5-3.43-.79-4.74-1.37-2.32-1.25-3.04-2.02-1.08-1.6-1.08-2.47c0-.52.14-1.03.42-1.52.28-.5.69-.97 1.22-1.41.53-.45 1.18-.86 1.95-1.25s1.63-.73 2.58-1.02l16.33 5.96zm-14.9-1.63c-.12.15-.2.29-.24.44a1.68 1.68 0 0 0-.05.45c0 .43.18.84.54 1.23.36.38.88.72 1.55 1s1.48.51 2.42.67 2.01.24 3.19.24l.9-.02 1.02-.06.99-.1c.32-.04.6-.09.85-.15l-11.17-3.7z"/><path id="H" d="M680.08 137.61c0 .77-.33 1.49-.99 2.16s-1.57 1.27-2.73 1.77c-1.16.51-2.5.91-4.04 1.2s-3.18.44-4.92.44h-8.42v1.55h-7.2v-1.55h-11.33v-3.17h11.33v-4.82h7.2v4.82h8.42c.76 0 1.47-.06 2.13-.19.66-.12 1.24-.29 1.73-.51s.89-.47 1.18-.77.44-.61.44-.94v-2.41h7.2v2.41z"/><path id="I" d="M644.03 128c.67 0 1.3.06 1.88.17s1.09.27 1.52.46.78.42 1.03.68.38.54.38.83-.13.57-.38.83-.6.48-1.03.67-.94.34-1.52.45-1.21.17-1.88.17-1.27-.06-1.87-.17c-.59-.11-1.1-.26-1.54-.45-.43-.19-.78-.42-1.03-.67s-.38-.54-.38-.83.13-.57.38-.83.6-.49 1.03-.68.94-.35 1.54-.46c.59-.11 1.21-.17 1.87-.17zm36.05.55v3.2h-28.35v-3.2h28.35z"/><path id="J" d="M702.06 169.92l3.15.15c.94.1 1.75.26 2.42.49s1.19.51 1.55.87.54.8.54 1.32c0 .67-.28 1.21-.85 1.64-.56.43-1.41.75-2.54.96s-2.54.32-4.23.32c-1.61 0-2.99-.1-4.14-.3s-2.04-.51-2.67-.94-.93-.99-.93-1.68.31-1.23.94-1.65 1.52-.72 2.67-.9 2.51-.28 4.09-.28zm0 4.86c1.39 0 2.58-.07 3.59-.2 1-.13 1.78-.35 2.33-.65s.82-.69.82-1.18-.27-.86-.83-1.14c-.55-.28-1.33-.48-2.34-.61s-2.2-.19-3.56-.19-2.57.06-3.58.19c-1.02.13-1.8.33-2.36.62s-.84.67-.84 1.14.27.88.82 1.18 1.32.51 2.33.65 2.21.2 3.61.2z"/><path id="K" d="M694.37 143.28c0-.56.14-1.04.43-1.45s.68-.72 1.19-.94 1.1-.33 1.78-.33c.63 0 1.18.09 1.65.27s.89.43 1.25.75a6.19 6.19 0 0 1 1 1.14c.35-.46.72-.88 1.13-1.25s.86-.66 1.36-.87 1.08-.32 1.73-.32c.75 0 1.41.12 1.99.36s1.05.59 1.38 1.04c.34.45.51.99.51 1.62s-.16 1.17-.48 1.63-.77.81-1.34 1.06-1.24.38-1.99.38c-.68 0-1.29-.1-1.81-.3a4.43 4.43 0 0 1-1.39-.83c-.4-.36-.77-.76-1.1-1.22-.34.42-.71.78-1.1 1.08s-.82.54-1.28.7c-.46.17-.97.25-1.53.25-.66 0-1.25-.11-1.75-.34s-.9-.54-1.19-.96-.44-.91-.44-1.47zm.88 0c0 .59.23 1.06.69 1.4s1.08.51 1.86.51c.49 0 .93-.07 1.32-.22.4-.15.76-.36 1.09-.64a6.06 6.06 0 0 0 .93-1.01 6.88 6.88 0 0 0-.88-1.02c-.31-.29-.66-.51-1.05-.66s-.85-.23-1.39-.23c-.81 0-1.44.17-1.89.5a1.61 1.61 0 0 0-.68 1.37zm10.72 2.21c.88 0 1.59-.2 2.12-.6s.8-.92.8-1.57c0-.7-.29-1.24-.86-1.62s-1.28-.57-2.12-.57a4.03 4.03 0 0 0-1.25.19 3.95 3.95 0 0 0-1.18.62c-.38.29-.75.67-1.11 1.14l-.24.29c.3.43.63.8.98 1.12s.76.56 1.22.73 1 .26 1.62.26z"/><path id="L" d="M709.57 79.58v5.83h-.74l-4.45-2.61-2.13-1.13c-.66-.31-1.31-.54-1.95-.69s-1.33-.23-2.06-.23c-1 0-1.74.18-2.23.54a1.71 1.71 0 0 0-.73 1.45c0 .38.08.74.24 1.08s.38.65.66.94l-.73.47c-.23-.24-.42-.49-.58-.75s-.29-.54-.37-.83c-.09-.29-.13-.61-.13-.94 0-.59.15-1.09.45-1.51s.74-.75 1.31-.97 1.27-.34 2.08-.34 1.61.09 2.33.27a10.78 10.78 0 0 1 2.1.76l2.13 1.17 3.83 2.29h.05v-4.77h.92z"/><path id="M" d="M211.84 130.1c-.83 0-1.49-.42-1.96-1.25-.48-.83-.72-2.16-.72-3.99 0-.79.06-1.76.17-2.93l.52-3.73.88-3.9c.35-1.28.76-2.44 1.24-3.49.47-1.05 1.01-1.89 1.62-2.52s1.28-.95 2-.95c.44 0 .82.1 1.15.29.32.19.59.49.81.89s.38.91.49 1.51.16 1.32.16 2.13c0 .92-.06 1.99-.18 3.22l-.53 3.86-.87 3.94c-.35 1.28-.75 2.45-1.22 3.49s-1 1.88-1.59 2.49c-.59.62-1.24.92-1.96.92zm.08-1.32c.53 0 1.02-.3 1.48-.9s.87-1.4 1.24-2.4.71-2.1 1-3.32l.74-3.69.46-3.52.15-2.8c0-1.24-.12-2.13-.36-2.67s-.61-.81-1.13-.81-1.02.3-1.48.89c-.46.6-.87 1.38-1.26 2.36-.38.98-.72 2.07-1.02 3.26l-.75 3.62-.47 3.41-.16 2.67c0 1.43.14 2.44.41 3.02s.65.87 1.14.87z"/><path id="N" d="M264.48 130.1c-.78 0-1.46-.19-2.04-.58s-1.03-.93-1.34-1.63-.47-1.5-.47-2.42c0-1.2.18-2.25.54-3.15s.87-1.69 1.54-2.37 1.46-1.3 2.37-1.85c-.37-.52-.69-1.04-.96-1.58s-.48-1.11-.62-1.71-.22-1.23-.22-1.9c0-1.06.17-2.01.51-2.85s.83-1.5 1.48-1.98c.64-.48 1.41-.73 2.29-.73.65 0 1.22.17 1.71.51s.87.82 1.15 1.43.42 1.31.42 2.11c0 1-.16 1.92-.48 2.76a7.54 7.54 0 0 1-1.37 2.29c-.6.68-1.33 1.28-2.19 1.79a11.82 11.82 0 0 1 1.23 1.78 8.41 8.41 0 0 1 .79 1.94 8.23 8.23 0 0 1 .28 2.22c0 1.04-.18 2.01-.55 2.91-.36.9-.89 1.62-1.57 2.18-.69.56-1.51.83-2.49.83zm.01-1.29c.74 0 1.35-.2 1.85-.61.49-.41.87-.96 1.13-1.67.26-.7.38-1.47.38-2.31 0-.74-.09-1.41-.27-2.02a7.54 7.54 0 0 0-.75-1.72 13.56 13.56 0 0 0-1.06-1.54 11.01 11.01 0 0 0-2.02 1.55c-.59.57-1.05 1.25-1.39 2.04s-.51 1.73-.51 2.82c0 1.02.24 1.85.72 2.5a2.26 2.26 0 0 0 1.92.97zm1.61-11.38c.79-.45 1.44-.98 1.96-1.57s.9-1.25 1.16-1.96.38-1.47.38-2.28c0-.97-.2-1.71-.61-2.23s-.93-.78-1.56-.78a2.48 2.48 0 0 0-1.54.51c-.44.34-.79.82-1.05 1.45s-.38 1.38-.38 2.27c0 .97.15 1.81.44 2.54s.69 1.41 1.2 2.07z"/><path id="O" d="M374.87 129.8l.16-1.17 4.55-6.54 1.78-2.66 1.46-2.54c.42-.84.75-1.68.98-2.53s.35-1.73.35-2.63c0-1.01-.2-1.77-.61-2.29-.41-.51-.96-.77-1.67-.77a2.93 2.93 0 0 0-1.01.17c-.3.12-.58.27-.83.46a10.66 10.66 0 0 0-.77.63l-.55-1.11c.38-.39.85-.74 1.41-1.03s1.21-.44 1.97-.44a3.01 3.01 0 0 1 1.73.51c.5.34.9.82 1.19 1.45s.44 1.37.44 2.24c0 1.25-.21 2.48-.63 3.67-.42 1.2-.99 2.39-1.71 3.59l-2.42 3.69-4.15 5.9v.09h6.12l-.21 1.32h-7.56z"/><path id="P" d="M236.36 182.34a1.28 1.28 0 0 1-.3.85c-.2.24-.48.42-.85.55s-.81.19-1.33.19c-.21 0-.42 0-.64-.02l-.65-.07c-.21-.03-.41-.07-.6-.12v-.41c.27.08.57.14.92.19s.66.07.96.07c.41 0 .75-.05 1.01-.15.27-.1.47-.24.6-.42s.2-.39.2-.62-.06-.42-.18-.56-.3-.27-.55-.38-.57-.22-.96-.34l-.76-.27c-.24-.09-.44-.19-.62-.3-.18-.12-.31-.25-.41-.41s-.14-.36-.14-.58c0-.31.1-.57.3-.79.21-.22.49-.38.86-.5.37-.11.79-.17 1.27-.17a6.24 6.24 0 0 1 .97.07c.31.05.58.11.79.17l-.24.34a6.09 6.09 0 0 0-.8-.18l-.71-.05c-.38 0-.7.04-.96.13a1.38 1.38 0 0 0-.6.38c-.14.16-.21.35-.21.57 0 .23.07.43.2.57.13.15.33.28.58.38.25.11.54.21.88.32l1.07.39c.29.13.51.29.66.47s.23.41.23.7z"/><path id="Q" d="M254.74 180.99a4.46 4.46 0 0 1-.14 1.12c-.1.35-.25.67-.47.94s-.51.49-.88.64c-.37.16-.83.23-1.39.23s-1.02-.08-1.4-.24-.68-.38-.9-.66-.38-.59-.48-.94-.15-.72-.15-1.1c0-.65.11-1.19.34-1.62.22-.43.55-.76.99-.97.43-.22.97-.33 1.6-.33.7 0 1.26.13 1.68.38a2.19 2.19 0 0 1 .92 1.05 3.75 3.75 0 0 1 .29 1.5zm-5.13 0c0 .55.09 1.02.26 1.41s.42.68.76.88.74.3 1.22.3.9-.1 1.23-.29.57-.48.73-.87c.16-.38.24-.86.24-1.42 0-.84-.18-1.48-.55-1.91-.37-.44-.92-.66-1.65-.66-.5 0-.92.1-1.25.3s-.58.49-.74.87-.25.85-.25 1.4z"/><path id="R" d="M289.15 178.14c.61 0 1.12.05 1.53.15s.73.27.94.49.31.53.31.9c0 .28-.06.52-.19.73-.12.21-.31.38-.55.52s-.56.24-.94.31l2.04 2.6h-.74l-1.91-2.5h-1.27v2.5h-.66v-5.71h1.43zm-.02.35h-.75V181h1.01c.57 0 1.03-.1 1.37-.31s.51-.54.51-1c0-.42-.17-.73-.49-.92-.33-.19-.88-.28-1.64-.28z"/><path id="S" d="M114.13 37.61c-1.47 0-2.2.62-2.2 1.85 0 .9.96 1.63 2.88 2.2s2.88 1.61 2.88 3.12-.57 2.53-1.7 2.91l-2.7.85c-.9.52-1.35 1.3-1.35 2.34 0 3.31 1.53 7.86 4.58 13.63 3.05 5.78 4.58 10.32 4.58 13.63 0 2.13-.24 3.72-.71 4.76-.71 1.61-2.34 2.89-4.9 3.83-2.08.76-4.17 1.14-6.25 1.14-5.3 0-8.97-.45-11-1.35-3.31-1.47-4.97-4.5-4.97-9.09 0-3.6 1.46-8.54 4.37-14.84 2.91-6.29 4.37-11.12 4.37-14.48 0-1.47-.53-3.58-1.6-6.35-1.06-2.77-1.6-4.91-1.6-6.43 0-2.6 1.85-4.28 5.54-5.04 1.51-.28 4.43-.43 8.73-.43 3.79 0 6.39.47 7.81 1.42 1.85 1.23 2.77 3.64 2.77 7.24 0 1.94-.78 2.91-2.34 2.91-.52 0-1.04-.33-1.56-.99-.71-.9-1.3-1.51-1.77-1.85-.95-.66-2.23-.99-3.83-.99z"/><path id="T" d="M130.03 65.08c0-6.2.45-11.53 1.35-15.98.85-3.98 2.03-7.62 3.55-10.93 2.13-4.59 4.54-7.27 7.24-8.02 1.47-.43 3.45-.64 5.96-.64 5.92 0 10.13 4.73 12.64 14.2 1.56 5.92 2.34 13.06 2.34 21.44v8.02c0 2.79-.92 5.68-2.77 8.66-2.98 4.78-7.53 7.17-13.63 7.17-5.73 0-10.08-2.7-13.06-8.09-2.41-4.35-3.62-9.63-3.62-15.83zm16.61-27.83c-1.18 0-2.08.69-2.7 2.06-.05.09-.47 1.42-1.28 3.98-.38 1.28-.5 3.15-.35 5.61 0 .81.52 1.45 1.56 1.92.85.38 1.77.57 2.77.57.9 0 1.77-.19 2.63-.57 1.04-.52 1.56-1.16 1.56-1.92.09-2.46-.05-4.33-.43-5.61l-1.21-3.98c-.62-1.37-1.47-2.06-2.56-2.06z"/><path id="U" d="M257.12 47.9c0-1.61-.75-3.82-2.24-6.64s-2.24-5.03-2.24-6.64c0-3.41 3.35-5.11 10.04-5.11h4.84c3.42 0 5.72.24 6.91.71 2.14.85 3.2 2.67 3.2 5.47 0 2.27-.91 3.41-2.71 3.41-1.19 0-2.19-.38-3-1.14s-1.93-1.14-3.36-1.14c-1.71 0-2.57.69-2.57 2.06 0 1.09.55 1.75 1.65 1.99l3.23.71c1.1.57 1.65 1.78 1.65 3.62 0 .99-.54 1.6-1.63 1.81s-2.15.39-3.2.53c-1.14.38-1.7 1.25-1.7 2.63 0 1.18.26 1.96.78 2.34s1.37.57 2.56.57c1.04 0 2.27-.77 3.69-2.31s2.39-2.31 2.91-2.31c3.69 0 5.54 6.72 5.54 20.16 0 7.15-.62 11.86-1.85 14.13-1.94 3.41-6.18 5.11-12.71 5.11-4.21 0-7.74-.5-10.58-1.49-4.17-1.51-6.25-3.95-6.25-7.31 0-3.64 1.17-8.84 3.51-15.58 2.34-6.75 3.51-11.94 3.51-15.58z"/><path id="V" d="M289.99 63.24c0-1.8.21-3.55.64-5.25.61-2.46 1.54-3.69 2.77-3.69.66 0 1.57.28 2.73.85s2.07.85 2.73.85 1.3-.19 1.92-.57c.61-.38.92-.85.92-1.42 0-1.7-.76-3.43-2.27-5.18l-4.19-4.47c-1.52-1.94-2.27-3.95-2.27-6.04 0-2.84 1.32-5.06 3.98-6.67 2.27-1.42 4.92-2.13 7.95-2.13 2.74 0 5.23.62 7.46 1.85 2.7 1.47 4.05 3.43 4.05 5.89 0 1.42-.43 2.69-1.28 3.8s-1.99 1.67-3.41 1.67-2.51-.71-3.12-2.13l-1.21-4.08c-.43-1.4-1.25-2.09-2.48-2.09-1.09 0-2.06.44-2.91 1.31-.85.88-1.28 1.88-1.28 3.02 0 .47 2.63 2.84 7.88 7.1 5.54 4.54 8.66 7.48 9.37 8.8 1.66 3.03 2.48 6.79 2.48 11.29 0 6.06-1.16 11-3.48 14.84-2.79 4.73-7.01 7.1-12.64 7.1-4.78 0-8.43-1.82-10.93-5.47-2.27-3.17-3.41-7.24-3.41-12.21v-6.96z"/><path id="W" d="M345.09 38.6c0 4.02 1.29 9.85 3.87 17.47s3.87 13.47 3.87 17.54c0 9.51-3.81 14.27-11.43 14.27-4.78 0-8.14-1.23-10.08-3.69-1.66-2.18-2.48-5.73-2.48-10.65 0-3.79 1.51-9.28 4.54-16.47 3.03-7.2 4.54-12.9 4.54-17.11 0-1.47-.54-2.2-1.63-2.2-.66 0-1.11.8-1.35 2.41l-.78 4.4c-.52 1.61-1.47 2.41-2.84 2.41-1.85 0-2.77-1.73-2.77-5.18 0-3.98.26-6.72.78-8.24.99-2.7 3.1-4.05 6.32-4.05h13.06c1.09 0 1.94.1 2.56.28 2.41.76 3.62 4.66 3.62 11.71 0 1.75-.07 2.91-.21 3.48-.33 1.33-1.11 1.99-2.34 1.99-1.47 0-2.51-.85-3.12-2.56l-.99-4.69c-.38-1.71-.97-2.56-1.78-2.56-.28 0-.58.17-.89.5s-.46.64-.46.92z"/><path id="X" d="M361.42 76.59c0-3.36 1.15-8.13 3.44-14.31 2.3-6.18 3.44-10.94 3.44-14.31 0-1.56-.66-3.68-1.99-6.36-1.33-2.67-1.99-4.74-1.99-6.21 0-3.93 3.27-5.89 9.8-5.89 3.17 0 5.42.26 6.75.78 2.13.9 3.19 2.7 3.19 5.4 0 1.85-.85 4.41-2.56 7.7-1.7 3.29-2.56 5.91-2.56 7.85 0 2.79 1.05 6.86 3.16 12.21s3.16 9.49 3.16 12.42c0 8-3.5 12-10.51 12-2.65 0-5.16-.52-7.53-1.56-2.89-1.23-4.66-2.94-5.32-5.11-.33-1.04-.5-2.58-.5-4.62z"/><path id="Y" d="M422.34 78.22c0 2.46-.82 4.69-2.45 6.67-1.63 1.99-3.66 2.98-6.07 2.98-4.26 0-6.96-2.49-8.09-7.46-.43-1.89-.64-6.06-.64-12.5 0-5.21-1.14-10.51-3.41-15.9-1.23-2.94-3.81-7.79-7.74-14.56-.38-.71-.54-1.49-.5-2.34.19-1.99 1.25-3.48 3.19-4.47 1.51-.76 3.34-1.14 5.47-1.14 5.92 0 8.88 2.65 8.88 7.95 0 1.42-.2 3.51-.6 6.28s-.6 4.84-.6 6.21c0 1.23.38 2.58 1.14 4.05.85 1.7 1.82 2.56 2.91 2.56 1.32 0 2.41-.95 3.27-2.84.71-1.47 1.07-2.98 1.07-4.54 0-1.37-.39-3.37-1.17-6s-1.17-4.65-1.17-6.07c0-4.54 3.15-6.82 9.44-6.82 5.54 0 8.31 1.56 8.31 4.69 0 1.52-.92 4.24-2.77 8.17l-3.98 8.31c-3.17 7.29-4.76 14.48-4.76 21.58 0 .62.05 1.49.14 2.63s.14 1.99.14 2.56z"/><path id="Z" d="M458.62 76.92c0-2.32.47-5.74 1.42-10.24s1.42-7.9 1.42-10.17c0-1.33-.24-2.49-.71-3.49-.62-1.28-1.52-1.92-2.7-1.92-1.75 0-2.96.52-3.62 1.56-.47.76-.71 2.11-.71 4.05 0 2.18.47 5.4 1.42 9.66s1.42 7.48 1.42 9.66c0 4.36-.89 7.42-2.66 9.19-1.77 1.78-4.84 2.66-9.19 2.66-2.98 0-5.28-1.04-6.89-3.12-1.47-1.85-2.2-4.31-2.2-7.38 0-3.6 1.59-8.53 4.76-14.8s4.76-11.21 4.76-14.8c0-1.61-.58-3.81-1.74-6.6s-1.74-4.85-1.74-6.18c0-3.69 4.71-5.54 14.13-5.54h7.6c7.57 0 11.36 1.64 11.36 4.91 0 1.52-.56 3.68-1.67 6.48s-1.67 4.96-1.67 6.48c0 3.65 1.49 8.81 4.47 15.48s4.47 11.88 4.47 15.62c0 6.31-4.02 9.47-12.07 9.47-3.17 0-5.61-1.04-7.31-3.13-1.56-1.94-2.34-4.55-2.34-7.83zm-.92-40.31c-1.99.05-2.98 1.2-2.98 3.45 0 1.25.22 2.04.67 2.37.45.34 1.29.5 2.52.5 2.18 0 3.29-.98 3.34-2.95.05-1.2-.21-2.06-.78-2.58-.57-.53-1.49-.79-2.77-.79z"/><path id="a" d="M494.97 49.21c0-1.75-.94-4.04-2.8-6.86-1.87-2.82-2.8-5.04-2.8-6.65 0-4.27 4.19-6.4 12.57-6.4 1.32 0 2.74.28 4.26.85 1.99.66 2.98 1.52 2.98 2.56 0 1.42-.72 3.6-2.17 6.53-1.44 2.94-2.17 5.37-2.17 7.31 0 1.33.24 2.53.71 3.62.61 1.42 1.49 2.13 2.63 2.13.76 0 1.58-.8 2.48-2.41s1.75-2.41 2.56-2.41c2.7 0 4.59 3.34 5.68 10.03.61 3.79.92 8.27.92 13.44 0 6.12-1.04 10.48-3.12 13.09-2.27 2.94-6.34 4.41-12.21 4.41-4.4 0-7.31-.17-8.73-.5-3.08-.76-5.18-2.56-6.32-5.4-.47-1.14-.71-2.51-.71-4.12 0-2.08.78-5.76 2.34-11.02l2.63-8.96c.85-3.41 1.28-6.49 1.28-9.24z"/><path id="b" d="M217.82 159.03c0-1.25.15-2.52.44-3.8.39-1.87.98-2.8 1.77-2.8.33 0 .69.3 1.08.9s.83.9 1.32.9c.82 0 1.4-.28 1.77-.84 0-.9-.8-1.84-2.4-2.81s-2.4-1.64-2.4-2.01v-1.28c0-1.46.74-2.62 2.21-3.47 1.27-.77 2.86-1.16 4.76-1.16 4.02 0 6.03 1.49 6.03 4.48 0 1.49-.69 2.24-2.06 2.24-.95 0-1.59-.29-1.91-.88l-.59-1.62c-.2-.55-.65-.82-1.37-.82-1.11 0-1.67.36-1.67 1.08 0 .99.83 1.88 2.5 2.67 2.35 1.15 3.94 2.14 4.76 3 1.7 1.78 2.55 4.34 2.55 7.67 0 .61-.2 1.41-.59 2.4-.75 1.86-1.68 3.21-2.8 4.03-1.31.98-3.09 1.48-5.34 1.48-2.91 0-5.05-1.03-6.42-3.08-1.08-1.63-1.62-3.72-1.62-6.28z"/><path id="c" d="M240.03 163.47c0-1.33.73-3.32 2.18-5.97 1.45-2.64 2.18-4.75 2.18-6.33 0-.83-.39-1.89-1.18-3.18-.78-1.29-1.18-2.24-1.18-2.83 0-1.01.72-1.76 2.16-2.24 1.05-.35 2.3-.52 3.78-.52 1.05 0 2 .29 2.87.86s1.3 1.26 1.3 2.06c0 .75-.4 1.91-1.2 3.49s-1.2 2.83-1.2 3.77c0 1.39.79 3.3 2.38 5.75 1.58 2.44 2.38 4.27 2.38 5.47 0 1.5-.83 2.71-2.5 3.65-1.47.85-3.16 1.28-5.05 1.28-2.06 0-3.73-.46-5-1.38s-1.91-2.21-1.91-3.87zm3.19-25.71c0-.99.38-1.89 1.13-2.7s1.72-1.22 2.89-1.22c1.08 0 2.1.29 3.06.88s1.45 1.32 1.45 2.2c0 1.01-.31 1.93-.93 2.76-.69.96-1.62 1.44-2.79 1.44-1.31 0-2.4-.28-3.29-.84-1.01-.64-1.52-1.48-1.52-2.52z"/></defs></svg>