<svg xmlns="http://www.w3.org/2000/svg" viewBox="0 0 403.155 231.09" xmlns:v="https://vecta.io/nano"><path d="M48.719 169.996c1.031-.019-5.179 8.402 10.654 19.647 12.714 9.03 33.75 11.225 48.892 6.682 1.062 1.261 2.212 2.466 3.465 3.634 13.697 12.765 34.606 16.211 53.006 10.306 12.556 16.762 35.288 22.024 60.472 19.028 25.874-3.077 34.934-.127 49.76-29.429 8.026 5.616 30.647 2.054 41.984 1.389 20.434-1.199 39.885-14.676 43.263-31.059 26.466-2.917 43.274-23.042 41.856-46.687-1.357-22.63-21.765-40.163-46.87-41.449a40.03 40.03 0 0 0 .226-7.251c-1.303-21.728-10.849-37.565-41.757-37.015-7.28.13-18.346 2.303-23.977 6.074-6.221-10.333-11.648-19.874-30.036-20.355-10.605-14.004-22.15-23.649-43.392-22.403-20.797 1.22-32.314 9.472-42.108 19.646-11.798-.814-24.191 2.743-33.759 10.684-6.364 5.28-10.603 11.768-12.653 18.577-17.358-10.372-39.066-11.094-53.709-.371-8.666 6.341-13.309 15.561-13.917 25.552a54.45 54.45 0 0 0-7.843-.425C23.765 75.283.804 97.976 1.001 125.448c.198 27.483 19.206 45.077 47.717 44.547z" fill="#e79da9" stroke="#312f30" stroke-miterlimit="10" stroke-width="2"/></svg>