<svg xmlns="http://www.w3.org/2000/svg" xmlns:xlink="http://www.w3.org/1999/xlink" width="526" height="223" viewBox="0 0 526 223">
  <defs>
    <clipPath id="clip-path">
      <rect x="27" y="6" width="527.891" height="204.828" fill="none"/>
    </clipPath>
    <clipPath id="clip-path-2">
      <rect id="Rectangle_820" data-name="Rectangle 820" width="572.669" height="389.001" fill="none"/>
    </clipPath>
    <clipPath id="clip-cloud_twos">
      <rect width="526" height="223"/>
    </clipPath>
  </defs>
  <g id="cloud_twos" clip-path="url(#clip-cloud_twos)">
    <g id="Scroll_Group_5" data-name="Scroll Group 5" transform="translate(-28.891 12.172)" clip-path="url(#clip-path)" style="isolation: isolate">
      <g id="Group_1653" data-name="Group 1653" transform="translate(28.891 16.327)">
        <g id="Group_1652" data-name="Group 1652" clip-path="url(#clip-path-2)">
          <path id="Path_1432" data-name="Path 1432" d="M624.83,125.471c5.594,20.22-32.447,23.708-44.09,26.22-9.318,10.57-24.223,14.223-37.715,10.492-8.33,13.615-24.47,18.765-42.723,17.611-40.592,1.793-18.445-24.724-67.22-17.516-14.758.017-29.327-9.552-32.451-22.13-42.353-1.641-41.457-65.416-.108-68.744-2.136-18.853,3.429-35.438,28.021-36.346,23.858,7.854,15.934-9.069,38.274-13.625C473.861,10.058,481.763,2.022,497.105,2c15.02-.021,23.659,5.857,31.137,13.308,13.627-2.383,30.248,6.543,34.642,20.582,12.056-8.872,27.651-10.445,38.644-2.793,10.089,3.773,6.976,21.26,16.72,18.519,44.63-3.91,55.023,73.263,6.583,73.855" transform="translate(-105.039 -0.653)" fill="#e79da9"/>
          <path id="Path_1433" data-name="Path 1433" d="M624.83,125.471c5.594,20.22-32.447,23.708-44.09,26.22-9.318,10.57-24.223,14.223-37.715,10.492-8.33,13.615-24.47,18.765-42.723,17.611-40.592,1.793-18.445-24.724-67.22-17.516-14.758.017-29.327-9.552-32.451-22.13-42.353-1.641-41.457-65.416-.108-68.744-2.136-18.853,3.429-35.438,28.021-36.346,23.858,7.854,15.934-9.069,38.274-13.625C473.861,10.058,481.763,2.022,497.105,2c15.02-.021,23.659,5.857,31.137,13.308,13.627-2.383,30.248,6.543,34.642,20.582,12.056-8.872,27.651-10.445,38.644-2.793,10.089,3.773,6.976,21.26,16.72,18.519C662.878,47.707,673.271,124.88,624.83,125.471Z" transform="translate(-105.039 -0.653)" fill="none" stroke="#312f30" stroke-miterlimit="10" stroke-width="4"/>
          <path id="Path_1434" data-name="Path 1434" d="M258.3,184.275c-.743.03,4.083,5.68-6.839,14.242-8.77,6.875-23.819,9.3-34.909,6.75a29.33,29.33,0,0,1-2.341,2.7c-9.32,9.539-24.224,12.839-37.717,9.467-8.33,12.3-24.47,16.947-42.723,15.905-18.754-1.071-25.151,1.382-37.059-18.565-5.54,4.281-21.973,2.732-30.161,2.743-14.758.018-29.327-8.624-32.451-19.984C14.925,196.6,1.978,183.175,2,166.516c.021-15.945,13.971-29.113,31.987-31.073a27.5,27.5,0,0,1-.469-5.081c.02-15.309,6.223-26.83,28.493-27.745,5.245-.215,13.3.845,17.514,3.255,4.042-7.516,7.546-14.443,20.761-15.555,7.042-10.279,14.944-17.537,30.287-17.556,15.02-.019,23.659,5.289,31.137,12.02a35.257,35.257,0,0,1,24.75,6.079,27.347,27.347,0,0,1,9.892,12.509c12.056-8.013,27.651-9.434,38.643-2.522a23.548,23.548,0,0,1,11.1,17.353,40.358,40.358,0,0,1,5.627-.629c20.544-.841,38.028,14.124,39.046,33.42s-11.921,32.455-32.465,33.284" transform="translate(-0.569 -23.773)" fill="#e79da9"/>
          <path id="Path_1435" data-name="Path 1435" d="M258.3,184.275c-.743.03,4.083,5.68-6.839,14.242-8.77,6.875-23.819,9.3-34.909,6.75a29.33,29.33,0,0,1-2.341,2.7c-9.32,9.539-24.224,12.839-37.717,9.467-8.33,12.3-24.47,16.947-42.723,15.905-18.754-1.071-25.151,1.382-37.059-18.565-5.54,4.281-21.973,2.732-30.161,2.743-14.758.018-29.327-8.624-32.451-19.984C14.925,196.6,1.978,183.175,2,166.516c.021-15.945,13.971-29.113,31.987-31.073a27.5,27.5,0,0,1-.469-5.081c.02-15.309,6.223-26.83,28.493-27.745,5.245-.215,13.3.845,17.514,3.255,4.042-7.516,7.546-14.443,20.761-15.555,7.042-10.279,14.944-17.537,30.287-17.556,15.02-.019,23.659,5.289,31.137,12.02a35.257,35.257,0,0,1,24.75,6.079,27.347,27.347,0,0,1,9.892,12.509c12.056-8.013,27.651-9.434,38.643-2.522a23.548,23.548,0,0,1,11.1,17.353,40.358,40.358,0,0,1,5.627-.629c20.544-.841,38.028,14.124,39.046,33.42S278.842,183.447,258.3,184.275Z" transform="translate(-0.569 -23.773)" fill="none" stroke="#312f30" stroke-miterlimit="10" stroke-width="4"/>
          <path id="Path_1436" data-name="Path 1436" d="M629.41,184.275c5.595,18.262-32.447,21.413-44.09,23.681C576,217.5,561.1,220.8,547.6,217.431c-8.33,12.3-24.47,16.947-42.723,15.905-40.592,1.619-18.445-22.329-67.22-15.819-14.758.015-29.327-8.627-32.451-19.987-42.353-1.482-41.458-59.08-.108-62.087-2.136-17.028,3.429-32.006,28.021-32.826,23.858,7.092,15.934-8.192,38.274-12.306,7.043-10.273,14.946-17.531,30.288-17.551,15.02-.019,23.659,5.289,31.137,12.02,13.627-2.152,30.248,5.909,34.642,18.588,12.056-8.013,27.651-9.434,38.643-2.522,10.089,3.408,6.976,19.2,16.72,16.726,44.631-3.532,55.024,66.168,6.582,66.7" transform="translate(-106.342 -23.773)" fill="#f6e1ce"/>
          <path id="Path_1437" data-name="Path 1437" d="M629.41,184.275c5.595,18.262-32.447,21.413-44.09,23.681C576,217.5,561.1,220.8,547.6,217.431c-8.33,12.3-24.47,16.947-42.723,15.905-40.592,1.619-18.445-22.329-67.22-15.819-14.758.015-29.327-8.627-32.451-19.987-42.353-1.482-41.458-59.08-.108-62.087-2.136-17.028,3.429-32.006,28.021-32.826,23.858,7.092,15.934-8.192,38.274-12.306,7.043-10.273,14.946-17.531,30.288-17.551,15.02-.019,23.659,5.289,31.137,12.02,13.627-2.152,30.248,5.909,34.642,18.588,12.056-8.013,27.651-9.434,38.643-2.522,10.089,3.408,6.976,19.2,16.72,16.726C667.459,114.041,677.852,183.741,629.41,184.275Z" transform="translate(-106.342 -23.773)" fill="none" stroke="#312f30" stroke-miterlimit="10" stroke-width="4"/>
          <path id="Path_1438" data-name="Path 1438" d="M342.406,282.434c5.594,18.262-32.447,21.413-44.09,23.681-9.319,9.547-24.223,12.847-37.715,9.476-8.33,12.3-24.47,16.948-42.723,15.905-40.592,1.619-18.445-22.329-67.22-15.819-14.758.015-29.327-8.627-32.451-19.987-42.353-1.482-41.457-59.081-.108-62.087-2.136-17.028,3.429-32.006,28.021-32.826,23.858,7.092,15.934-8.192,38.273-12.306,7.043-10.273,14.946-17.531,30.288-17.551,15.02-.019,23.659,5.289,31.137,12.02,13.627-2.152,30.248,5.909,34.642,18.588,12.056-8.013,27.651-9.434,38.643-2.522,10.089,3.407,6.976,19.2,16.72,16.726,44.631-3.532,55.023,66.168,6.582,66.7" transform="translate(-24.685 -55.845)" fill="#f6e1ce"/>
          <path id="Path_1439" data-name="Path 1439" d="M342.406,282.434c5.594,18.262-32.447,21.413-44.09,23.681-9.319,9.547-24.223,12.847-37.715,9.476-8.33,12.3-24.47,16.948-42.723,15.905-40.592,1.619-18.445-22.329-67.22-15.819-14.758.015-29.327-8.627-32.451-19.987-42.353-1.482-41.457-59.081-.108-62.087-2.136-17.028,3.429-32.006,28.021-32.826,23.858,7.092,15.934-8.192,38.273-12.306,7.043-10.273,14.946-17.531,30.288-17.551,15.02-.019,23.659,5.289,31.137,12.02,13.627-2.152,30.248,5.909,34.642,18.588,12.056-8.013,27.651-9.434,38.643-2.522,10.089,3.407,6.976,19.2,16.72,16.726C380.455,212.2,390.847,281.9,342.406,282.434Z" transform="translate(-24.685 -55.845)" fill="none" stroke="#312f30" stroke-miterlimit="10" stroke-width="4"/>
          <path id="Path_1440" data-name="Path 1440" d="M299.508,413.84c6.51,21.252-37.76,24.919-51.311,27.559-10.844,11.11-28.189,14.95-43.892,11.027-9.695,14.31-28.477,19.723-49.72,18.51-47.239,1.884-21.465-25.986-78.228-18.41-17.175.017-34.13-10.04-37.765-23.261-49.289-1.724-48.247-68.756-.127-72.254-2.486-19.816,3.991-37.248,32.61-38.2,27.765,8.254,18.543-9.533,44.542-14.321,8.2-11.956,17.393-20.4,35.248-20.425,17.48-.022,27.533,6.156,36.237,13.988,15.859-2.5,35.2,6.877,40.314,21.633,14.031-9.325,32.179-10.978,44.972-2.935,11.741,3.966,8.119,22.345,19.458,19.465,51.94-4.11,64.035,77,7.661,77.626" transform="translate(-0.569 -92.814)" fill="#e79da9"/>
          <path id="Path_1441" data-name="Path 1441" d="M299.508,413.84c6.51,21.252-37.76,24.919-51.311,27.559-10.844,11.11-28.189,14.95-43.892,11.027-9.695,14.31-28.477,19.723-49.72,18.51-47.239,1.884-21.465-25.986-78.228-18.41-17.175.017-34.13-10.04-37.765-23.261-49.289-1.724-48.247-68.756-.127-72.254-2.486-19.816,3.991-37.248,32.61-38.2,27.765,8.254,18.543-9.533,44.542-14.321,8.2-11.956,17.393-20.4,35.248-20.425,17.48-.022,27.533,6.156,36.237,13.988,15.859-2.5,35.2,6.877,40.314,21.633,14.031-9.325,32.179-10.978,44.972-2.935,11.741,3.966,8.119,22.345,19.458,19.465C343.787,332.105,355.882,413.219,299.508,413.84Z" transform="translate(-0.569 -92.814)" fill="none" stroke="#312f30" stroke-miterlimit="10" stroke-width="4"/>
          <path id="Path_1442" data-name="Path 1442" d="M428.408,315.588c-5.595,20.22,32.447,23.708,44.09,26.22,9.318,10.57,24.223,14.224,37.715,10.492,8.33,13.615,24.47,18.765,42.723,17.611,40.592,1.793,18.445-24.724,67.22-17.516,14.758.017,29.327-9.552,32.451-22.13,42.353-1.641,41.457-65.416.108-68.744,2.136-18.853-3.43-35.438-28.021-36.346-23.858,7.854-15.934-9.069-38.274-13.625-7.043-11.375-14.946-19.411-30.288-19.432-15.02-.021-23.659,5.857-31.137,13.308-13.627-2.383-30.248,6.543-34.642,20.582-12.056-8.872-27.651-10.445-38.643-2.793-10.089,3.773-6.976,21.26-16.72,18.519-44.631-3.91-55.023,73.263-6.582,73.855" transform="translate(-112.812 -62.771)" fill="#e79da9"/>
          <path id="Path_1443" data-name="Path 1443" d="M428.408,315.588c-5.595,20.22,32.447,23.708,44.09,26.22,9.318,10.57,24.223,14.224,37.715,10.492,8.33,13.615,24.47,18.765,42.723,17.611,40.592,1.793,18.445-24.724,67.22-17.516,14.758.017,29.327-9.552,32.451-22.13,42.353-1.641,41.457-65.416.108-68.744,2.136-18.853-3.43-35.438-28.021-36.346-23.858,7.854-15.934-9.069-38.274-13.625-7.043-11.375-14.946-19.411-30.288-19.432-15.02-.021-23.659,5.857-31.137,13.308-13.627-2.383-30.248,6.543-34.642,20.582-12.056-8.872-27.651-10.445-38.643-2.793-10.089,3.773-6.976,21.26-16.72,18.519C390.359,237.824,379.967,315,428.408,315.588Z" transform="translate(-112.812 -62.771)" fill="none" stroke="#312f30" stroke-miterlimit="10" stroke-width="4"/>
          <path id="Path_1444" data-name="Path 1444" d="M497.008,448.583c5.594,18.262-32.447,21.413-44.09,23.681C443.6,481.81,428.7,485.11,415.2,481.739c-8.33,12.3-24.47,16.947-42.723,15.905-40.592,1.619-18.445-22.329-67.22-15.819-14.758.015-29.327-8.627-32.451-19.987-42.353-1.482-41.457-59.08-.108-62.087-2.136-17.027,3.429-32.006,28.021-32.826,23.858,7.092,15.934-8.192,38.273-12.306,7.043-10.273,14.946-17.531,30.288-17.551,15.02-.019,23.659,5.289,31.137,12.02,13.627-2.152,30.248,5.909,34.642,18.588,12.056-8.013,27.651-9.434,38.643-2.522,10.089,3.407,6.976,19.2,16.72,16.726,44.631-3.532,55.023,66.168,6.582,66.7" transform="translate(-68.672 -110.132)" fill="#f6e1ce"/>
          <path id="Path_1445" data-name="Path 1445" d="M497.008,448.583c5.594,18.262-32.447,21.413-44.09,23.681C443.6,481.81,428.7,485.11,415.2,481.739c-8.33,12.3-24.47,16.947-42.723,15.905-40.592,1.619-18.445-22.329-67.22-15.819-14.758.015-29.327-8.627-32.451-19.987-42.353-1.482-41.457-59.08-.108-62.087-2.136-17.027,3.429-32.006,28.021-32.826,23.858,7.092,15.934-8.192,38.273-12.306,7.043-10.273,14.946-17.531,30.288-17.551,15.02-.019,23.659,5.289,31.137,12.02,13.627-2.152,30.248,5.909,34.642,18.588,12.056-8.013,27.651-9.434,38.643-2.522,10.089,3.407,6.976,19.2,16.72,16.726C535.057,378.349,545.449,448.049,497.008,448.583Z" transform="translate(-68.672 -110.132)" fill="none" stroke="#312f30" stroke-miterlimit="10" stroke-width="4"/>
        </g>
      </g>
    </g>
  </g>
</svg>
