<svg xmlns="http://www.w3.org/2000/svg" xmlns:xlink="http://www.w3.org/1999/xlink" viewBox="0 0 1475.638 1043.083" xmlns:v="https://vecta.io/nano"><style><![CDATA[.L{fill:#f6e1ce}.M{stroke:#312f30}.N{stroke-width:2}.O{fill:#312f30}.P{stroke-miterlimit:10}.Q{fill:#2b729b}.R{fill:#e14725}]]></style><defs><clipPath id="A"><path d="M0 0h1475.822v1042.702H0z" fill="none"/></clipPath><path id="B" d="M301.493 566.2c.754-.018-3.772 6.048 7.825 14.04 9.312 6.418 24.696 7.898 35.759 4.573a29.89 29.89 0 0 0 2.54 2.59c10.037 9.092 25.331 11.47 38.773 7.154 9.211 11.963 25.84 15.634 44.248 13.374 18.912-2.322 25.542-.247 36.329-21.324 5.878 3.991 22.411 1.336 30.699.808 14.938-.951 29.135-10.701 31.576-22.464 19.345-2.21 31.598-16.715 30.519-33.664-1.033-16.221-15.985-28.702-34.343-29.512.206-1.692.265-3.433.152-5.2-.991-15.574-8-26.888-30.596-26.356-5.322.125-13.41 1.734-17.52 4.463-4.567-7.382-8.552-14.199-21.997-14.461-7.779-9.995-16.237-16.86-31.766-15.871-15.203.968-23.609 6.936-30.751 14.275-8.627-.531-17.682 2.075-24.664 7.812-4.643 3.814-7.731 8.486-9.218 13.377-12.71-7.36-28.583-7.78-39.27-.026-6.325 4.586-9.703 11.218-10.129 18.384-1.872-.224-3.786-.314-5.735-.27-20.845.495-37.592 16.869-37.398 36.568.194 19.706 14.123 32.237 34.968 31.73z"/><path id="C" d="M588.855 657.948c-.754-.018 3.772 6.048-7.825 14.04-9.312 6.418-24.696 7.898-35.759 4.573a29.89 29.89 0 0 1-2.54 2.59c-10.037 9.092-25.331 11.47-38.773 7.154-9.211 11.963-25.84 15.634-44.248 13.374-18.912-2.322-25.542-.247-36.329-21.324-5.878 3.991-22.411 1.336-30.699.808-14.938-.951-29.135-10.701-31.576-22.464-19.345-2.21-31.598-16.715-30.519-33.664 1.033-16.221 15.985-28.702 34.343-29.512-.206-1.692-.265-3.433-.152-5.2.991-15.574 8-26.888 30.596-26.356 5.322.125 13.41 1.734 17.52 4.463 4.567-7.382 8.552-14.199 21.997-14.461 7.779-9.995 16.237-16.86 31.766-15.871 15.203.968 23.609 6.936 30.751 14.275 8.627-.531 17.682 2.075 24.664 7.812 4.643 3.814 7.731 8.486 9.218 13.377 12.71-7.36 28.583-7.78 39.27-.026 6.325 4.586 9.703 11.218 10.129 18.384 1.872-.224 3.786-.314 5.735-.27 20.845.495 37.592 16.869 37.398 36.568-.194 19.706-14.123 32.237-34.968 31.73z"/><path id="D" d="M267.879 701.336c0 33.105-2.747 59.943-25.639 59.943-9.844 0-19.23-15.455-16.941-53.871.27-4.525 21.29-8.82 21.29-13.689s-20.905-15.115-20.832-19.65c.423-26.28 6.41-32.676 16.482-32.676 22.892 0 25.639 26.837 25.639 59.943z"/></defs><g clip-path="url(#A)"><g class="M N P"><g fill="#e79da9"><use xlink:href="#B"/><path d="M643.742 593.693c.754-.018-3.772 6.048 7.825 14.04 9.312 6.418 24.696 7.898 35.759 4.573a29.89 29.89 0 0 0 2.54 2.59c10.037 9.092 25.331 11.47 38.773 7.154 9.211 11.963 25.84 15.634 44.248 13.374 18.912-2.322 25.542-.247 36.329-21.324 5.878 3.991 22.411 1.336 30.699.808 14.938-.951 29.135-10.701 31.576-22.464 19.345-2.21 31.598-16.715 30.519-33.664-1.033-16.221-15.985-28.702-34.343-29.512.206-1.692.265-3.433.152-5.2-.991-15.574-8-26.888-30.596-26.356-5.322.125-13.41 1.734-17.52 4.463-4.567-7.382-8.552-14.199-21.997-14.461-7.779-9.995-16.237-16.86-31.766-15.871-15.203.968-23.609 6.936-30.751 14.275-8.627-.531-17.682 2.075-24.664 7.812-4.643 3.814-7.731 8.486-9.218 13.377-12.71-7.36-28.583-7.78-39.27-.026-6.325 4.586-9.703 11.218-10.129 18.384-1.872-.224-3.786-.314-5.735-.27-20.845.495-37.592 16.869-37.398 36.568.194 19.706 14.123 32.237 34.968 31.73z"/><path d="M933.08 588.323c.754-.013-3.703 7.13 7.997 16.749 9.395 7.724 24.809 9.663 35.84 5.849.79 1.076 1.644 2.105 2.573 3.103 10.153 10.905 25.486 13.907 38.887 8.946 9.359 14.301 26.045 18.854 44.44 16.391 18.899-2.531 25.558.01 36.104-24.867 5.93 4.805 22.444 1.851 30.732 1.323 14.938-.951 29.03-12.35 31.333-26.275 19.333-2.392 31.423-19.455 30.143-39.574-1.226-19.256-16.338-34.239-34.719-35.417a39.64 39.64 0 0 0 .091-6.167c-1.177-18.488-8.325-31.992-30.932-31.629-5.325.086-13.399 1.898-17.48 5.086-4.658-8.811-8.727-16.946-22.185-17.417-7.903-11.95-16.449-20.194-31.978-19.205-15.203.968-23.545 7.948-30.605 16.57-8.64-.733-17.671 2.251-24.589 8.975-4.602 4.47-7.636 9.975-9.066 15.76-12.807-8.882-28.697-9.569-39.3-.497-6.275 5.365-9.577 13.193-9.919 21.69a34.43 34.43 0 0 0-5.742-.388c-20.855.34-37.42 19.567-36.993 42.937.428 23.379 14.516 38.411 35.371 38.056zm298.113-61.395c1.311-.02-6.411 12.802 13.967 30.138 16.363 13.921 43.169 17.463 62.334 10.65 1.377 1.938 2.866 3.79 4.485 5.588 17.693 19.642 44.363 25.095 67.644 16.228 16.326 25.742 45.353 33.989 77.325 29.631 32.848-4.478 44.436.114 62.677-44.563 10.328 8.659 39.028 3.411 53.436 2.494 25.967-1.653 50.425-22.09 54.377-47.113 33.604-4.227 54.56-34.853 52.258-71.023-2.204-34.618-28.534-61.609-60.497-63.796.316-3.603.375-7.315.135-11.086-2.116-33.237-14.594-57.54-53.898-56.972-9.257.134-23.289 3.361-30.372 9.077-8.132-15.857-15.237-30.494-38.637-31.391-13.786-21.51-28.675-36.362-55.67-34.643-26.429 1.682-40.905 14.199-53.148 29.67-15.024-1.349-30.715 3.981-42.718 16.04-7.984 8.018-13.239 17.902-15.703 28.295-22.299-16.014-49.929-17.309-68.329-1.041-10.89 9.62-16.602 23.678-17.163 38.951-3.263-.525-6.596-.764-9.985-.72-36.258.532-64.986 35.031-64.155 77.044.832 42.028 25.382 69.101 61.64 68.542z"/></g><path d="M743.295 653.582c15.291-42.219 65.194-213.778 107.174-214.994s99.057 148.029 133.673 262.587c19.629 64.961 70.703 177.473 70.703 177.473l-402.896-8.606s65.994-146.463 91.345-216.461z" class="Q"/><path d="M770.874 572.147c18.568-56.321 52.293-136.098 80.262-136.091 23.813.006 59.91 56.746 84.096 121.143 6.274 16.705-20.117-32.95-27.764-33.646-24.519-2.231-15.561 48.758-26.587 48.109-12.437-.732-25.918-40.102-34.816-40.513-21.078-.973-22.155 45.462-37.981 45.334-9.635-.078-13.596-41.157-22.788-28.243-7.886 11.08-16.228 29.382-14.422 23.906z" class="L"/><path d="M481.74 617.745c17.585-50.046 74.974-253.406 123.252-254.847S718.909 538.367 758.718 674.16c22.574 77.003 81.31 210.371 81.31 210.371L376.693 874.33s75.894-173.613 105.048-256.585z" class="Q"/><path d="M512.69 524.216c21.353-66.761 60.137-161.326 92.302-161.318 27.385.007 68.898 67.265 96.712 143.599 7.215 19.801-23.814-51.339-38.629-3.3-8.577 27.813-31.326-34.979-44.005-35.748-14.302-.867-24.077 51.611-34.309 51.124-24.24-1.153-18.001-36.728-28.342-40.361-10.488-3.685-16.28 26.206-26.851 41.514-9.069 13.134-18.954 10.981-16.878 4.49z" class="L"/><g fill="#e79da9"><path d="M406.25 483.251c-1.133-.028 5.67 9.092-11.764 21.108-13.999 9.649-37.128 11.874-53.76 6.875-1.17 1.352-2.438 2.643-3.819 3.895-15.09 13.669-38.083 17.244-58.292 10.755-13.847 17.985-38.848 23.505-66.522 20.107-28.432-3.491-38.4-.371-54.617-32.059-8.837 6.001-33.693 2.009-46.153 1.215-22.457-1.43-43.802-16.088-47.471-33.773-29.083-3.322-47.504-25.13-45.882-50.61 1.552-24.387 24.032-43.151 51.632-44.368-.31-2.544-.398-5.162-.229-7.818 1.49-23.414 12.027-40.423 45.999-39.623 8.001.189 20.16 2.606 26.339 6.709 6.866-11.098 12.857-21.347 33.071-21.741 11.695-15.027 24.411-25.347 47.757-23.861 22.856 1.455 35.494 10.428 46.232 21.461 12.97-.799 26.584 3.119 37.079 11.744 6.981 5.734 11.623 12.758 13.858 20.111 19.108-11.065 42.972-11.697 59.038-.039 9.509 6.894 14.588 16.865 15.228 27.639 2.814-.337 5.693-.472 8.622-.406 31.339.744 56.516 25.362 56.225 54.976-.292 29.626-21.233 48.465-52.571 47.703z"/><use xlink:href="#C"/><path d="M276.204 616.274c-.754-.018 3.772 6.048-7.825 14.04-9.312 6.418-24.696 7.898-35.759 4.573a29.89 29.89 0 0 1-2.54 2.59c-10.037 9.092-25.331 11.47-38.773 7.154-9.211 11.963-25.84 15.634-44.248 13.374-18.912-2.322-25.542-.247-36.329-21.324-5.878 3.991-22.411 1.336-30.699.808-14.938-.951-29.135-10.701-31.576-22.464-19.345-2.21-31.598-16.715-30.519-33.664 1.033-16.221 15.985-28.702 34.343-29.512-.206-1.692-.265-3.433-.152-5.2.991-15.574 8-26.888 30.596-26.356 5.322.125 13.41 1.734 17.52 4.463 4.567-7.382 8.552-14.199 21.997-14.461 7.779-9.995 16.237-16.86 31.766-15.871 15.203.968 23.609 6.936 30.751 14.275 8.627-.531 17.682 2.075 24.664 7.812 4.643 3.814 7.731 8.486 9.218 13.377 12.71-7.36 28.583-7.78 39.27-.026 6.325 4.586 9.703 11.218 10.129 18.384 1.872-.224 3.786-.314 5.735-.27 20.845.495 37.592 16.869 37.398 36.568-.194 19.706-14.123 32.237-34.968 31.73z"/></g><path d="M118.317 641.059s85.52-210.165 152.295-211.86S441.063 632.585 483.236 795.28c21.16 81.629 112.462 247.421 112.462 247.421l-595.699.892 118.317-402.534z" class="Q"/><g class="L"><path d="M173.493 554.933c-12.84 18.398-42.482 59.874-32.117 37.574 10.838-23.318 71.73-211.083 129.719-211.072 56.231.01 86.852 114.29 101.871 143.164 5.673 10.906 20.359 42.565 23.752 49.066 7.062 13.533-1.583 47.432-28.845.382-31.403-54.196-19.193 27.799-43.394 27.749-46.694-.096-48.281-61.798-64.086-67.448-24.679-8.822-18.917 58.847-39.375 60.283-31.923 2.241-20.845-77.927-47.524-39.699z"/></g></g><ellipse cx="238.348" cy="701.336" rx="29.531" ry="59.943" class="L M N"/><use xlink:href="#D" class="O"/><ellipse cx="354.009" cy="701.336" rx="29.531" ry="59.943" class="L M N"/><g class="O"><path d="M383.54 701.336c0 33.105-2.747 59.943-25.639 59.943-9.844 0-19.23-15.455-16.941-53.871.27-4.525 21.29-8.82 21.29-13.689s-20.905-15.115-20.832-19.65c.423-26.28 6.41-32.676 16.482-32.676 22.892 0 25.639 26.837 25.639 59.943zm-195.574 99.671c8.023 7.78 20.618 4.21 27.747-2.888 2.771-2.759 4.951-6.068 6.599-9.603.811-1.739-1.774-3.264-2.59-1.514-4.109 8.813-13.358 17.626-23.927 15.005-2.154-.534-4.112-1.573-5.708-3.12-1.387-1.345-3.51.774-2.121 2.121h0zm188.141-15.639c-2.657 10.897 7.425 19.3 17.1 21.333 3.943.829 7.987.88 11.974.364 1.888-.245 1.912-3.248 0-3-7.1.92-14.931.067-20.716-4.521-4.006-3.177-6.728-8.198-5.465-13.378.457-1.875-2.435-2.675-2.893-.798h0z"/><path d="M209.848 800.401c6.487 10.707 15.842 19.376 26.539 25.79 11.161 6.692 23.696 11.028 36.463 13.389 13.358 2.47 27.107 2.887 40.588 1.215 13.106-1.626 26.005-5.151 37.854-11.043 11.274-5.605 21.462-13.451 29.102-23.51.913-1.203 1.784-2.436 2.618-3.696 1.069-1.615-1.528-3.119-2.59-1.514-6.689 10.106-16.073 18.122-26.611 24.004-11.167 6.234-23.557 10.127-36.156 12.155-12.943 2.083-26.305 2.176-39.277.279-12.643-1.849-25.117-5.549-36.416-11.573-10.569-5.635-20.157-13.364-27.059-23.224a68.09 68.09 0 0 1-2.463-3.785c-.999-1.649-3.594-.143-2.59 1.514h0z"/></g><g class="P"><g class="M N"><path d="M1475.822 586.514S696.676 469.765 307.431 1042.701h1168.391V586.514z" fill="#35a293"/><path d="M1475.822 663.185s-106.086-10.285-188.22-11.359c-227.145-2.97-621.9 117.106-762.618 391.767h492.833s84.75-201.763 458.005-218.156V663.184z" class="O"/></g><g stroke="#f6e1ce" stroke-width="3" class="L"><path d="M723.25 1041.648s6.019-17.553 18.227-39.815c11.025-20.105 21.314-30.229 21.314-30.229l24.807 6.81s-12.538 17.732-20.129 31.536c-8.317 15.124-14.893 33.644-14.893 33.644l-29.326-1.946zm79.521-122.912l23.583 6.449s13.801-19.066 24.321-30.158 26.61-24.609 26.61-24.609l-20.845-10.701s-11.606 7.587-28.743 25.395c-19.25 20.004-24.925 33.624-24.925 33.624zm104.527-96.462l19.395 11.604s19.449-14.379 32.976-21.501 31.666-15.733 31.666-15.733l-17.884-11.093s-15.82 4.41-33.217 13.083c-12.351 6.158-32.937 23.64-32.937 23.64zm117.901-59.53l13.289 16.671s21.968-10.122 36.66-14.343l32.143-9.543-10.623-14.918s-16.598 1.472-36.14 6.597c-13.349 3.501-35.329 15.535-35.329 15.535zm145.876-39.164l9.532 18.237s22.586-5.325 37.23-6.487 33.935-1.891 33.935-1.891l-5.724-16.319s-12.402-2.15-37.372-.809c-13.238.711-37.601 7.269-37.601 7.269zm133.567-4.923l7.359 17.222s23.343.09 37.864.847 31.27 2.503 31.27 2.503l-1.595-15.941s-14.574-2.99-32.503-4.298c-13.075-.953-42.395-.332-42.395-.332zm118.225 6.001l5.559 12.784s17.205.25 27.913.923 23.066 2.094 23.066 2.094l-1.301-11.793s-10.765-2.324-23.989-3.43c-9.644-.807-31.249-.577-31.249-.577z"/></g><g class="M N"><g fill="#efb541"><path d="M1213.542 743.675l20.552-8.723s-27.414-44.323-34.515-61.056c-14.223-33.512-19.937-67.243-19.937-67.243l-20.552 8.723s3.142 28.039 18.625 64.519c15.931 37.535 35.828 63.779 35.828 63.779zm-204.381 36.265l22.26 10.8s23.413-80.784 35.602-105.907c24.413-50.318 63.542-78.179 63.542-78.179l-21.682-15.018s-36.951 25.659-63.527 80.435c-27.344 56.359-36.195 107.87-36.195 107.87z"/></g><g class="L"><path d="M1175.199 413.432c-6.499 35.462 10.61 66.071-26.721 72s-43.212-28.899-46.698-60.077-12.088-61.149 30.099-70.035c45.967-9.682 49.481 24.495 43.32 58.112z"/><path d="M1246.186 443.916c-18.744 23.007-52.672 58.827-77.726 33.819-16.977-16.946-13.133-53.475 3.684-81.287s55.153-49.407 73.408-25.628c26.93 35.08 19.379 50.089.634 73.096zm-133.961-12.301c22.794 23.235 40.099 48.767 10.923 69.486s-37.465-8.595-71.498-23.599c-30.369-13.389-44.218-56.122-14.471-81.981 46.874-40.749 52.253 12.86 75.047 36.095zm-16.065 149.553c12.785-26.446 50.472-45.677 77.84-28.539s21.456 50.869 5.274 76.732-44.112 58.92-76.223 40.419c-34.988-20.158-19.677-62.166-6.891-88.612z"/><path d="M1150.042 630.579c-6.81-31.193-4.957-65.209 27.65-72.272s45.697 34.062 54.386 60.218 7.872 66.568-31.293 66.307c-42.673-.285-43.934-23.06-50.743-54.252zm-81.718-162.653c31.409 5.789 67.26 17.395 56.561 49.204s-56.487 33.467-88.057 39.387-52.957-7.099-48.64-49.311c4.704-45.994 48.727-45.069 80.136-39.28zm195.641 49.296c-27.527 15.79-61.687 13.722-74.426-19.048s22.48-44.191 53.857-60.74c33.851-17.854 85.705-4.982 80.776 34.35-5.371 42.855-32.679 29.649-60.206 45.439z"/><path d="M1273.849 582.141c-36.025-9.903-67.232-13.582-68.32-48.743s39.13-26.368 67.078-29.289c29.318-3.064 68.918 19.147 69.828 43.846 1.795 48.734-32.56 44.089-68.586 34.186z"/><path d="M1222.128 633.596c-21.626-29.276-34.955-49.233-25.372-82.368s51.783-1.256 76.101 13.237 49.178 48.744 19.055 81.354c-32.821 35.531-48.158 17.054-69.784-12.222zm-173.379-89.301c28.138-16.536 77.22-27.305 93.166 1.479s-15.055 51.779-40.669 64.171-39.667 35.095-76.675 11.041c-40.323-26.208-3.96-60.155 24.178-76.691z"/></g></g></g><circle cx="1163.378" cy="517.335" r="74.295" fill="#efb541" class="M N"/><g class="O"><path d="M1127.144 535.537c1.36 6.244 6.191 11.272 11.546 14.445 6.352 3.764 13.976 5.239 21.256 3.969 4.639-.809 9.002-2.818 12.756-5.639 1.525-1.146.031-3.752-1.514-2.59-5.864 4.408-13.087 6.497-20.393 5.422-6.2-.913-12.221-3.846-16.479-8.487-2.062-2.248-3.627-4.922-4.28-7.917-.411-1.886-3.303-1.088-2.893.798h0z"/><path d="M1168.808 540.943c.804 5.825 7.067 9.534 12.612 8.064.783-.208 1.261-1.069 1.048-1.845-.217-.79-1.059-1.256-1.845-1.048-.284.075-.569.136-.859.187-.352.062.149.002-.176.019-.144.007-.287.022-.43.028a8.45 8.45 0 0 1-.857-.01 10.15 10.15 0 0 1-.425-.037c.316.034-.135-.024-.162-.029-.559-.101-1.095-.264-1.628-.458-.416-.152.237.127-.16-.069l-.379-.186a9.27 9.27 0 0 1-.729-.423c-.118-.076-.231-.159-.348-.236-.258-.171.117.111-.143-.106-.216-.18-.426-.364-.626-.561s-.383-.409-.569-.619c-.205-.232.083.138-.11-.14l-.239-.348a8.34 8.34 0 0 1-.425-.732c-.054-.105-.104-.212-.154-.319-.043-.097-.04-.086.01.032-.027-.066-.053-.133-.077-.2-.204-.576-.353-1.156-.437-1.762-.111-.803-1.138-1.242-1.845-1.048-.865.238-1.159 1.039-1.048 1.845h0zm-25.04-37.341c-1.457 5.248-5.525 10-9.202 9.011-4.544-1.222-5.132-7.34-3.675-12.587s4.608-11.096 9.623-9.703 4.712 8.032 3.254 13.279zm30.956 10.728c7.528-4.947 20.87-1.462 22.4 8.23.3 1.902 3.191 1.094 2.893-.798-1.825-11.568-17.785-15.952-26.807-10.023-1.607 1.056-.106 3.655 1.514 2.59h0z"/><path d="M1175.35 513.517c4.47-5.627 12.95-7.243 18.861-2.912.658.482 1.667.106 2.052-.538.453-.755.112-1.576-.538-2.052-6.89-5.048-17.266-3.203-22.496 3.381-.508.639-.612 1.496 0 2.121.517.529 1.618.633 2.121 0h0z"/><path d="M1173.953 514.831c5.569.05 12.509 1.57 15.797 6.529 1.062 1.602 3.661.101 2.59-1.514-3.914-5.903-11.672-7.954-18.387-8.015-1.931-.017-1.933 2.983 0 3h0z"/></g><g class="M N P"><g class="R"><path d="M947.484 763.491l93.525 68.659s4.353-50.323-.969-64.01c-2.7-6.943-35.798-6.715-40.934-11.88s-41.292-20.013-51.622 7.231z"/><path d="M1030.021 752.291s-24.44-13.664-30.26-6.392 2.514 16.183 16.903 21.722 24.33 10.441 27.781 5.296-3.25-13.997-14.425-20.627z"/></g><path d="M974.987,822.373s38.738,36.93,54.75,26.084c19.811-13.42,7.231-34.348-13.171-52.167-24.721-21.592-56.463-44.59-67.278-32.962-13.372,14.377,15.627,50.006,25.699,59.045Z" class="L"/><g class="R"><path d="M954.463 798.006l16.02-34.034m-3.315 50.373l17.978-42.136m-3.315 55.845l17.977-45.481m-6.221 54.512l17.976-45.481m-5.342 53.808l16.966-42.925"/></g><path d="M1201.232 815.237s9.505 8.764 15.145 6.46c13.912-5.685 46.19-61.287 47.587-66.03 1.967-6.678.775-21.542-2.741-21.251s-59.991 80.822-59.991 80.822z" class="L"/><g class="R"><path d="M1201.844,752.778s7.524,21.393,1.115,33.331c-6.773,12.616-13.164,19.907-3.853,30.502,2.682,3.052,10.295,3.882,14.155,1.103,21.826-15.716,49.922-67.563,49.591-79.767-.177-6.538-15.905-20.549-24.574-20.549s-36.434,35.379-36.434,35.379Z"/><path d="M1204.996 733.498c-3.43.523-6.866.995-7.737 4.354-.98 3.78-1.102 8.771 2.588 13.248 7.144 8.669 26.087-6.422 29.94-11.88 3.385-4.795 17.548-25.541 3.283-30.911-3.335-1.256-10.766-2.651-10.914 3.581-.394 16.656-11.733 20.78-17.161 21.608z"/></g></g><g class="O"><path d="M705.787 381.993c4.05-2.708 8.902-1.715 12.948.486 4.637 2.523 8.641 6.448 11.442 10.908 1.342 2.136 2.433 4.438 2.85 6.943.096.578.85 1.176 1.446 1.101 6.854-.857 13.325-3.585 20.181-4.365 3.364-.382 6.741-.204 9.954.921 4.117 1.442 7.488 4.346 10.345 7.563 1.285 1.446 3.4-.682 2.121-2.121-4.462-5.024-10.059-8.764-16.86-9.441-5.565-.554-11.094.98-16.42 2.397-3.071.817-6.163 1.651-9.323 2.046l1.446 1.101c-.883-5.304-4.433-10.171-8.143-13.897-4.007-4.024-9.183-7.55-14.945-8.226-3.005-.353-6.037.306-8.56 1.993-1.597 1.068-.097 3.668 1.514 2.59h0zm-39.315-62.335c7.166-3.087 17.841 1.842 19.721 9.535.248 1.013 1.361 1.289 2.203.896 8.596-4.001 20.845-2.05 26.805 5.684.498.646 1.284.975 2.052.538.635-.362 1.032-1.412.538-2.052-7.034-9.129-20.68-11.522-30.91-6.761l2.203.896c-1.152-4.712-5.047-8.428-9.287-10.516-4.658-2.294-10.004-2.896-14.841-.812-1.768.762-.242 3.347 1.514 2.59h0zm99.168-12.167c3.517.029 7.2.76 9.733 3.385 1.776 1.841 2.631 4.286 3.018 6.771.095.611.848 1.136 1.446 1.101 4.307-.253 8.58-1.044 12.901-1.057 3.244-.009 7.268.446 8.586 3.925.677 1.788 3.578 1.013 2.893-.798-1.631-4.308-5.605-5.857-9.939-6.091-4.829-.261-9.634.737-14.441 1.02l1.446 1.101c-.477-3.068-1.733-6.066-3.967-8.274-3.093-3.057-7.454-4.049-11.677-4.084-1.931-.016-1.933 2.984 0 3h0z"/></g></g></svg>